/* XPM */
static char *alphabetsouth[] = {
/* columns rows colors chars-per-pixel */
"62 72 142 2 ",
"   c #0F0A11",
".  c #130E14",
"X  c #161017",
"o  c #171218",
"O  c #1A151B",
"+  c #1D181E",
"@  c #1F1A20",
"#  c #221D23",
"$  c #252126",
"%  c #272228",
"&  c #2A252B",
"*  c #2D292E",
"=  c #2F2A30",
"-  c #302C31",
";  c #353136",
":  c #373338",
">  c #3A353B",
",  c #3D393E",
"<  c #3F3B40",
"1  c #413D42",
"2  c #454146",
"3  c #474348",
"4  c #4A464A",
"5  c #4E4A4E",
"6  c #4F4C50",
"7  c #514E52",
"8  c #555256",
"9  c #575358",
"0  c #59555A",
"q  c #5D595D",
"w  c #5F5B60",
"e  c #625F63",
"r  c #656266",
"t  c #676468",
"y  c #69666A",
"u  c #6D696D",
"i  c #6F6C70",
"p  c #716E71",
"a  c #757275",
"s  c #777478",
"d  c #787579",
"f  c #7D7A7E",
"g  c #817E82",
"h  c #858286",
"j  c #878588",
"k  c #888689",
"l  c #8C898C",
"z  c #8F8D90",
"x  c #908E91",
"c  c #959395",
"v  c #979598",
"b  c #999699",
"n  c #9C9A9D",
"m  c #9F9DA0",
"M  c #A09EA1",
"N  c #A5A3A5",
"B  c #A7A5A8",
"V  c #A9A7A9",
"C  c #ACAAAC",
"Z  c #AFAEB0",
"A  c #B0AFB1",
"S  c #B3B2B4",
"D  c #B8B6B8",
"F  c #BCBABC",
"G  c #C0BFC1",
"H  c #C5C3C5",
"J  c #C7C6C8",
"K  c #C8C7C8",
"L  c #CECDCE",
"P  c #CFCECF",
"I  c #CDCCCD",
"U  c #CCCBCC",
"Y  c #D0CFD0",
"T  c #D0CFD0",
"R  c #D1D0D1",
"E  c #D1D0D2",
"W  c #D2D1D2",
"Q  c #D2D2D3",
"!  c #D3D2D3",
"~  c #D4D3D4",
"^  c #D4D3D5",
"/  c #D5D4D5",
"(  c #D5D4D6",
")  c #D6D5D6",
"_  c #D7D6D7",
"`  c #D5D4D5",
"'  c #D7D7D8",
"]  c #D8D7D8",
"[  c #D8D7D8",
"{  c #D9D9DA",
"}  c #DAD9DA",
"|  c #DBDADB",
" . c #DBDBDC",
".. c #DCDBDC",
"X. c #DDDCDD",
"o. c #DDDDDE",
"O. c #DEDDDE",
"+. c #DFDFDF",
"@. c #DCDBDC",
"#. c #E0DFE0",
"$. c #E0DFE0",
"%. c #E0E0E1",
"&. c #E2E2E2",
"*. c #E3E3E3",
"=. c #E4E3E4",
"-. c #E4E4E4",
";. c #E4E4E5",
":. c #E5E4E5",
">. c #E6E5E6",
",. c #E6E6E6",
"<. c #E4E4E4",
"1. c #E8E7E8",
"2. c #E9E9EA",
"3. c #EAEAEA",
"4. c #EBEBEB",
"5. c #EFEEEF",
"6. c #EFEFEF",
"7. c #EBEAEB",
"8. c #F0EFF0",
"9. c #F0EFF0",
"0. c #F1F1F2",
"q. c #F3F3F3",
"w. c #F4F4F4",
"e. c #F4F4F5",
"r. c #F6F6F6",
"t. c #F6F6F7",
"y. c #F7F7F7",
"u. c #F4F4F4",
"i. c #F8F7F8",
"p. c #F8F8F8",
"a. c #F8F8F9",
"s. c #F9F8F9",
"d. c #F9F9F9",
"f. c #FAFAFA",
"g. c #FBFAFB",
"h. c #FBFBFB",
"j. c #FCFBFC",
"k. c #FCFCFC",
"l. c #FDFDFD",
"z. c #FEFEFE",
"x. c #FFFFFF",
"c. c #FFFFFF",
/* pixels */
"x.x.f o + + + S x.x.x.x.x.p . 7 t.x.x.x.x.x.x.x.x.x.x.x.x.x.x.x.x.x.x.0 . t x.x.x.x.x.x.x.x.x.x.x.x.x.x.x.x.x.x.x.x.x.x.x.x.",
"x.x.f X + + + S x.x.x.x.x.p . 7 t.x.x.x.x.x.x.x.x.x.x.x.x.x.x.x.x.x.x.0 . t x.x.x.x.x.x.x.x.x.x.x.x.x.x.x.x.x.x.x.x.x.x.x.x.",
"x.x.J v f # + S x.x.x.x.x.p . 7 x.x.x.x.x.x.x.x.x.x.x.x.x.x.x.x.x.x.x.0 . y x.x.x.x.x.x.x.x.x.x.x.x.x.x.x.x.x.x.x.x.x.x.x.x.",
"C C C S x # + f C J 6.S C 7 X , N C C C U 6.S C C C C C C 6.U C C C V 1 X 4 C S 6.x.x.%.C C C C C C S t.x.x.%.C C C C Y x.x.",
"+ + + + + + + + o e ) * + + + + + + + + u ) & + + + + + # K d o + + + + + + + & ) x.x.F # + + + + + = ..x.x.S + + + o f x.x.",
"+ + # & $ + + # $ y ] , & # + @ & & + X u ) & + # & & & - U s X + & & + + # & : ) x.x.F @ + $ & # + * ..x.x.S + + $ $ h x.x.",
"+ + f ) C $ + c ) %.t.) ) w X 3 U U 4 . u ) & + x ) ) ) ) t.s . 1 K U 5 . 0 ) ) t.x.x.F @ # M ) j + * ..x.x.A + $ C ) %.x.x.",
"+ + 3 u 0 @ + S x.x.x.x.x.p X * y y = X u ) & + 5 u u y p ..s X * t y - X y x.x.x.b r 7 + + 8 u 4 + * ) v r 5 + @ 0 u y y y ",
"o o X . . o + A x.x.x.x.x.u . o . . X . u Y $ X . . . . + J s . X . . X . r x.x.x.e   X + + X . . X & ) q . X + + X . . . . ",
"9 9 9 9 9 9 0 J x.x.x.x.x.c 8 0 9 9 9 8 c ..e 9 9 9 0 9 q ) b 8 9 9 9 9 8 z x.x.x.z 8 3 + + 4 0 0 8 r #.l 8 1 + @ 4 0 9 9 9 ",
"t.i.t.i.x.x.x.x.x.x.x.x.x.x.x.x.x.x.x.x.x.x.x.x.t.x.i.x.x.x.x.i.x.x.x.x.i.x.x.x.x.x.x.S @ # B ..%.i.x.x.x.x.C + % U x.x.i.i.",
"x.x.x.x.x.x.x.x.x.x.x.x.x.x.x.x.x.x.x.x.x.x.x.x.x.x.x.x.x.x.x.x.x.x.x.x.x.x.x.x.x.x.x.F @ + * - g x.x.x.x.x.S + % Y x.x.x.x.",
"x.x.x.x.x.x.x.x.x.x.x.x.x.x.x.x.x.x.x.x.x.x.x.x.x.x.x.x.x.x.x.x.x.x.x.x.x.x.x.x.x.x.x.F + + + . u x.x.x.x.x.S + $ U x.x.x.x.",
"x.x.x.x.x.x.x.x.x.x.x.x.x.x.x.x.x.x.x.x.x.x.x.x.x.x.x.x.x.x.x.x.x.x.x.x.x.x.x.x.x.x.x.%.b b b b G x.x.x.x.x...b M 6.x.x.x.x.",
"x.x.x.x.x.x.x.x.x.x.x.x.x.J N F x.x.x.x.x.x.x.x.x.x.%.V C 6.x.x.x.x.x.F N J x.x.x.J N J t.S V ..x.x.x.x.x.x.x.x.x.x.x.x.x.x.",
"x.x.x.x.x.x.x.x.x.x.x.x.x.i . 7 t.x.x.x.x.x.x.x.x.x.F + # J x.x.x.x.x.0 . r x.x.x.u . q ) - o b x.x.x.x.x.x.x.x.x.x.x.x.x.x.",
"x.x.x.x.x.x.x.x.x.x.x.x.x.p . 7 t.x.x.x.x.x.x.x.x.x.G - ; U x.x.x.x.x.r $ s x.x.x.u . q ' - o b x.x.x.x.x.x.x.x.x.x.x.x.x.x.",
"x.x.x.x.x.x.x.x.x.x.x.x.x.i . 7 t.x.x.x.x.x.x.x.x.x.8.) ) t.x.x.x.x.x...) %.x.x.x.y . q ) - o v x.x.x.x.x.x.x.x.x.x.x.x.x.x.",
"e e e e e e r U x.x.%.p e ; + & w e e e b ..u e e e r r u ..x.x.x.x.x.z e b ..u e ; + - 8 # + 1 M ..y r U x.x.x.x.x.x.x.x.x.",
"o o X . . X + A x.x...% . + + + . . X . u U # . . . . X # J x.x.x.x.x.9 . t U # . + + + . o + . p U # + S x.x.x.x.x.x.x.x.x.",
"+ + < e 7 + + S x.x.%.y q - + & 0 0 & X u ..r q q q 4 + $ K x.x.x.x.x.0 . y ..t 0 - + * 0 0 & X s U $ + D x.x.x.x.x.x.x.x.x.",
"+ + g ..Z $ + b ..%.x.x.x.u . 7 t.t.8 . u x.x.x.x.x.D @ # K 6.......) 7 . t x.x.x.y . 0 t.t.7 . s U $ + M %.....%.x.x.x.x.x.",
"+ + $ - & + + & * u x.x.x.p . 7 t.x.8 . u x.x.x.x.x.F @ # K h * - - = # o t x.x.x.u . 0 x.t.7 . s U $ + & - - - , ) x.x.x.x.",
"+ + + o + + + + . q x.x.x.u . 7 t.x.8 . y x.x.x.x.x.F + # K s . o + + + X r x.x.x.y . 0 x.t.7 . p U # + + o o X $ U x.x.x.x.",
"b b b M h # + i b D x.x.x.G v S x.x.S v F x.x.x.x.x.%.b b %.J v b b b b v F x.x.x.F v S x.x.S v J 6.M b b b b b M 6.x.x.x.x.",
"x.x.U N j # + S x.x.x.x.x.x.x.x.x.x.x.x.x.x.x.x.x.x.x.x.x.x.x.x.x.x.x.x.x.x.x.x.x.x.x.x.x.x.x.x.x.x.x.x.x.x.x.x.x.x.x.x.x.x.",
"x.x.f . + + + S x.x.x.x.x.x.x.x.x.x.x.x.x.x.x.x.x.x.x.x.x.x.x.x.x.x.x.x.x.x.x.x.x.x.x.x.x.x.x.x.x.x.x.x.x.x.x.x.x.x.x.x.x.x.",
"x.x.j & * * * D x.x.x.x.x.x.x.x.x.x.x.x.x.x.x.x.x.x.x.x.x.x.x.x.x.x.x.x.x.x.x.x.x.x.x.x.x.x.x.x.x.x.x.x.x.x.x.x.x.x.x.x.x.x.",
"x.x.6.) ) ) ' t.x.x.x.x.x.x.x.x.x.x.x.x.x.x.x.x.x.x.x.x.x.x.x.x.x.x.x.x.x.x.x.x.x.x.x.x.x.x.x.x.x.x.x.x.x.x.x.x.x.x.x.x.x.x.",
"x.x.x.x.x.x.x.x.x.x.x.x.x.x.x.x.x.x.x.x.x.x.x.x.x.x.x.x.x.x.x.x.x.x.x.x.x.x.x.x.x.x.x.x.x.x.x.x.x.x.x.x.x.x.x.x.x.x.x.x.x.x.",
"x.x.x.x.x.x.x.x.x.x.x.x.x.x.x.x.x.x.x.x.x.x.x.x.x.x.x.x.x.x.x.x.x.x.x.x.x.x.x.x.x.x.x.x.x.x.x.x.x.x.x.x.x.x.x.x.x.x.x.x.x.x.",
"x.x.x.x.x.x.x.x.x.x.x.x.x.x.x.x.x.x.x.x.x.x.x.x.x.x.x.x.x.x.x.x.x.x.x.x.x.x.x.x.x.x.x.x.x.x.x.x.x.x.x.x.x.x.x.x.x.x.x.x.x.x.",
"..................%.x...............t.6.............%.x.x.x.6.............%.t...............t.x.x.t...............t.x.x.x.x.",
"= = = = - = = - & i ..1 * = = = = ; J l & = = = = * y x.x.x.g & - - - - & s ) , * * * = = ; K x.x.Y , = = - = * , ) x.x.x.x.",
"+ + + + + + + + X w ) * + + + + + @ G g X + + + + X 0 x.x.x.s X + + + + X y Y & + + + + + # J x.x.U # + + + + + $ U x.x.x.x.",
"+ + r p + $ h 3 X e ) * + y N f + # J g X ; b N 4 . 0 x.x.x.s X , b M 1 X y Y & + s V f + # J x.x.U $ + s N p o # U x.x.x.x.",
"+ + b C + & ) r . e ) * + N x.J # # J g X ; b N 4 . 0 6.C M 6 o , b M 1 X y ) & + s V f + @ f M J U $ + F x.) s f %.x.x.x.x.",
"+ o v C + & ) r . e ) * + N x.J # @ J g X + + + + X 0 ) = o + + + + + + X y Y & + + + + + + + . p U # + S x.x.x.x.x.x.x.x.x.",
"= * N S = < ) s & i ..1 * C x.U ; ; J l * - - = - * y ..3 * # + @ * - = * s ) , * = - & + + & * g P , - F x.x.x.x.x.x.x.x.x.",
"....6.t.....x.%...%.x.....t.x.t.....t.6.............%.x.....r X 3 ) ......1.x.........N + # V ..6.t.....t.x.x.x.x.x.x.x.x.x.",
"x.x.x.x.x.x.x.x.x.x.x.x.x.x.x.x.x.x.x.x.x.x.x.x.x.x.x.x.x.x.s . 5 t.x.x.x.x.x.x.x.x.x.F @ # J x.x.x.x.x.x.x.x.x.x.x.x.x.x.x.",
"x.x.x.x.x.x.x.x.x.x.x.x.x.x.x.x.x.x.x.x.x.x.x.x.x.x.x.x.x.x.p . 4 t.x.x.x.x.x.x.x.x.x.F + @ J x.x.x.x.x.x.x.x.x.x.x.x.x.x.x.",
"x.x.x.x.x.x.x.x.x.x.x.x.x.x.x.x.x.x.x.x.x.x.x.x.x.x.x.x.x.x.M q h t.x.x.x.x.x.x.x.x.x.Y r t ) x.x.x.x.x.x.x.x.x.x.x.x.x.x.x.",
"x.x.x.x.x.x.x.x.x.x.x.x.x.x.x.x.x.x.x.x.x.x.x.x.x.x.x.x.x.x.x.x.x.x.x.x.x.x.x.x.x.x.x.x.x.x.x.x.x.x.x.x.x.x.x.x.x.x.x.x.x.x.",
"x.x.x.x.x.x.x.x.x.x.x.x.x.x.x.x.x.x.x.x.x.x.x.x.x.x.x.x.x.x.x.x.x.x.x.x.x.x.x.x.x.x.x.x.x.x.x.x.x.x.x.x.x.x.x.x.x.x.x.x.x.x.",
"x.x.x.x.x.x.x.x.x.x.x.x.x.x.x.x.x.x.x.x.x.x.x.x.x.x.x.x.x.x.x.x.x.x.x.x.x.x.x.x.x.x.x.x.x.x.x.x.x.x.x.x.x.x.x.x.x.x.x.x.x.x.",
"x.x.x.x.x.x.x.x.x.x.x.x.x.x.x.x.x.x.x.x.x.x.x.x.x.x.x.x.x.x.x.x.x.x.x.x.x.x.x.x.x.x.x.x.x.x.x.x.x.x.x.x.x.x.x.x.x.x.x.x.x.x.",
"x.x.x...M M M M b F 6.V m M M M M M M b J 6.N M ..x.%.N N 6.J b m V t.x.U b b N 6.G b F 8.C b ) ..b V 6.F b M M M M b U x.x.",
"x.x.x.V + + + + . q ) & o + + + + + + . u U $ + C x.F + # K s X + - ..x.g X + % Y y . q ..- X b V + * ) w . + + + + . f x.x.",
"x.x.x.C + + * - * i ..1 = - % + + * - * f U & + C x.F @ # K h # + - ..x.h o + , ) y . q ..; o b V + = ) p * & + + & * j x.x.",
"x.x.x.N + & F ....%.x.......h + = J ....6.U % + C x.D + # J 8.l + - ..x.g X , U t.y . q ) - o b N + * ..%...c + $ Z ] 1.x.x.",
"q q q 3 + & ] x.x.x.x.x.x.x.b o - %.x.x.x.U % + 3 q 4 + # J x.M + # 7 q , o 1 6.x.t X * 7 # + 1 1 + = ) x q 3 + @ 7 q N x.x.",
". . . X X & ) x.x.x.x.x.x.x.v . - #.x.x.x.U # X X . . X # J x.b X o . . X . 1 6.x.r . X . o o X . X & ) q   . o o . . f x.x.",
"e e e e e u %.x.x.x.x.x.x.x.F e s 6.x.x.x...u e e e e e y ..x.F e e e e e e f t.x.c e e e e e e e e p %.c e e e e e e N x.x.",
"x.x.x.x.x.x.x.x.x.x.x.x.x.x.x.x.x.x.x.x.x.x.x.x.x.x.x.x.x.x.x.x.x.x.x.x.x.x.x.x.x.x.x.x.x.x.x.x.x.x.x.x.x.x.x.x.x.x.x.x.x.x.",
"x.x.x.x.x.x.x.x.x.x.x.x.x.x.x.x.x.x.x.x.x.x.x.x.x.x.x.x.x.x.x.x.x.x.x.x.x.x.x.x.x.x.x.x.x.x.x.x.x.x.x.x.x.x.x.x.x.x.x.x.x.x.",
"x.x.x.x.x.x.x.x.x.x.x.x.x.x.x.x.x.x.x.x.x.x.x.x.x.x.x.x.x.x.x.x.x.x.x.x.x.x.x.x.x.x.x.x.x.x.x.x.x.x.x.x.x.x.x.x.x.x.x.x.x.x.",
"x.x.x.x.x.x.x.x.x.x.x.x.x.x.x.x.x.x.x.x.x.x.x.x.x.x.x.x.x.x.x.x.x.x.x.x.x.x.x.x.x.x.x.x.x.x.x.x.x.x.x.x.x.x.x.x.x.x.x.x.x.x.",
"x.x.x.x.x.x.x.x.x.x.x.x.x.x.x.x.x.x.x.x.x.x.x.x.x.x.x.x.x.x.x.x.x.x.x.x.x.x.x.x.x.x.x.x.x.x.x.x.x.x.x.x.x.x.x.x.x.x.x.x.x.x.",
"x.x.x.x.x.x.x.x.x.x.x.x.x.x.x.x.x.x.x.x.x.x.x.x.x.x.x.x.x.x.x.x.x.x.x.x.x.x.x.x.x.x.x.x.x.x.x.x.x.x.x.x.x.x.x.x.x.x.x.x.x.x.",
"x.x.x.x.x.x.x.x.x.x.x.x.x.x.x.x.x.x.x.x.x.x.x.x.x.x.x.x.x.x.x.x.x.x.x.x.x.x.x.x.x.x.x.x.x.x.x.x.x.x.x.x.x.x.x.x.x.x.x.x.x.x.",
"x.x.x.x.x.x.x.x.x.x.x.x.x.x.x.x.x.x.x.x.x.x.x.x.x.x.x.x.x.x.x.x.x.x.x.x.x.x.x.x.x.x.x.x.x.x.x.x.x.x.x.x.x.x.x.x.x.x.x.x.x.x.",
"9 8 S x...e 0 J x.x.%.r 8 9 9 8 y 6.x.x.x.x.x.x.x.x.x.x.x.x.x.x.x.x.x.x.x.x.x.x.x.x.x.x.x.x.x.x.x.x.x.x.x.x.x.x.x.x.x.x.x.x.",
"o X c x.U # + A x.x.] % . . X X - #.x.x.x.x.x.x.x.x.x.x.x.x.x.x.x.x.x.x.x.x.x.x.x.x.x.x.x.x.x.x.x.x.x.x.x.x.x.x.x.x.x.x.x.x.",
"+ + c x.) % + S x.x.%.s t y 3 + - %.x.x.x.x.x.x.x.x.x.x.x.x.x.x.x.x.x.x.x.x.x.x.x.x.x.x.x.x.x.x.x.x.x.x.x.x.x.x.x.x.x.x.x.x.",
"+ + f ] C # + c ) #.x.x.x.x.v + = F ) ) %.x.x.x.x.x.x.x.x.x.x.x.x.x.x.x.x.x.x.x.x.x.x.x.x.x.x.x.x.x.x.x.x.x.x.x.x.x.x.x.x.x.",
"+ + # & $ + + # $ y x.x.x.x.b + + % & $ s x.x.x.x.x.x.x.x.x.x.x.x.x.x.x.x.x.x.x.x.x.x.x.x.x.x.x.x.x.x.x.x.x.x.x.x.x.x.x.x.x.",
"+ + + + + + + + o q x.x.x.x.b + + + + X u x.x.x.x.x.x.x.x.x.x.x.x.x.x.x.x.x.x.x.x.x.x.x.x.x.x.x.x.x.x.x.x.x.x.x.x.x.x.x.x.x.",
"C C C S x # + f C J x.x.x.x...C C C C C U x.x.x.x.x.x.x.x.x.x.x.x.x.x.x.x.x.x.x.x.x.x.x.x.x.x.x.x.x.x.x.x.x.x.x.x.x.x.x.x.x.",
"x.x.J v f # + S x.x.x.x.x.x.x.x.x.x.x.x.x.x.x.x.x.x.x.x.x.x.x.x.x.x.x.x.x.x.x.x.x.x.x.x.x.x.x.x.x.x.x.x.x.x.x.x.x.x.x.x.x.x.",
"x.x.f . + + + S x.x.x.x.x.x.x.x.x.x.x.x.x.x.x.x.x.x.x.x.x.x.x.x.x.x.x.x.x.x.x.x.x.x.x.x.x.x.x.x.x.x.x.x.x.x.x.x.x.x.x.x.x.x.",
"x.x.f o + + + S x.x.x.x.x.x.x.x.x.x.x.x.x.x.x.x.x.x.x.x.x.x.x.x.x.x.x.x.x.x.x.x.x.x.x.x.x.x.x.x.x.x.x.x.x.x.x.x.x.x.x.x.x.x."
};
