/* XPM */
static char *af96d409100145f4868c19910204a8bcNmGn6G5XazpFCA2V[] = {
/* columns rows colors chars-per-pixel */
"72 72 160 2 ",
"   c #020003",
".  c #070309",
"X  c #0A050B",
"o  c #0D090E",
"O  c #100B0F",
"+  c #0F0B10",
"@  c #120D13",
"#  c #141116",
"$  c #171318",
"%  c #1B151C",
"&  c #1D191E",
"*  c #1F1A20",
"=  c #211D22",
"-  c #252126",
";  c #282327",
":  c #262328",
">  c #2A252B",
",  c #2B292C",
"<  c #312B2F",
"1  c #2F2A30",
"2  c #322E33",
"3  c #343235",
"4  c #373538",
"5  c #3A353B",
"6  c #3B393C",
"7  c #3D3B40",
"8  c #413D42",
"9  c #454346",
"0  c #484647",
"q  c #474548",
"w  c #49464A",
"e  c #4D4A4D",
"r  c #504B4F",
"t  c #4F4E50",
"y  c #514E52",
"u  c #545154",
"i  c #585357",
"p  c #575558",
"a  c #595659",
"s  c #5C5A5D",
"d  c #5F5D60",
"f  c #615E62",
"g  c #656365",
"h  c #686667",
"j  c #666468",
"k  c #696769",
"l  c #6C6B6D",
"z  c #6F6D70",
"x  c #716F72",
"c  c #737174",
"v  c #777578",
"b  c #7B777D",
"n  c #7C7A7D",
"m  c #7F7D82",
"M  c #817F83",
"N  c #858386",
"B  c #888387",
"V  c #878689",
"C  c #8A868A",
"Z  c #8B8A8C",
"A  c #8F8D90",
"S  c #918E92",
"D  c #959395",
"F  c #979598",
"G  c #989699",
"H  c #9C9B9C",
"J  c #9F9CA0",
"K  c #A19EA2",
"L  c #A3A3A4",
"P  c #A7A6A9",
"I  c #A9A7AA",
"U  c #ABABAD",
"Y  c #AFADB0",
"T  c #B1AFB2",
"R  c #B3B2B4",
"E  c #B6B5B8",
"W  c #B8B6B9",
"Q  c #BCBBBC",
"!  c #C0C2BF",
"~  c #BFBDC0",
"^  c #C0BEC1",
"/  c #C3C3C5",
"(  c #C6C6C8",
")  c #C9C6CA",
"_  c #CCCBCC",
"`  c #CFCDD1",
"'  c #D0CED1",
"]  c #D2D0D3",
"[  c #D2D2D2",
"{  c #D5D5D7",
"}  c #D5D5D5",
"|  c #D4D3D4",
" . c #D6D6D8",
".. c #D9D7DA",
"X. c #D8D8D8",
"o. c #DDDBDE",
"O. c #DEDCDF",
"+. c #DCDBDC",
"@. c #DFDEE0",
"#. c #E1DFE2",
"$. c #E0E0E2",
"%. c #E4E2E5",
"&. c #E6E4E7",
"*. c #E4E4E4",
"=. c #E5E4E5",
"-. c #E8E6E7",
";. c #E9E9E7",
":. c #E6E6E8",
">. c #E7E6E8",
",. c #E8E6E9",
"<. c #E9E7EA",
"1. c #E9E7EC",
"2. c #E9E7EA",
"3. c #E9E9EB",
"4. c #E8E8EA",
"5. c #EAE8EB",
"6. c gray91",
"7. c #EBE9EC",
"8. c #ECECEC",
"9. c gray93",
"0. c #EEEEEE",
"q. c #ECEBEC",
"w. c #F2EEEF",
"e. c #EEEEF0",
"r. c #EFEEF1",
"t. c #F0EEF1",
"y. c #F1F1F1",
"u. c #F0F0F2",
"i. c #F4F6F3",
"p. c gray97",
"a. c #F4F4F4",
"s. c #F4F3F4",
"d. c #F9F9F7",
"f. c #F6F6F8",
"g. c #F9F7F8",
"h. c #F8F8F8",
"j. c #F9F9F9",
"k. c #FBFBFB",
"l. c gray98",
"z. c #F8F8FA",
"x. c #FCFAFB",
"c. c #FDFDFB",
"v. c #FDFBFC",
"b. c #FCFAFD",
"n. c gray99",
"m. c #FDFDFD",
"M. c #FEFCFD",
"N. c #FEFEFC",
"B. c #FEFFFD",
"V. c #FFFFFD",
"C. c #FDFDFF",
"Z. c #FFFDFE",
"A. c #FFFDFF",
"S. c #FDFFFE",
"D. c #FEFEFE",
"F. c #FEFEFF",
"G. c #FFFEFF",
"H. c #FEFFFF",
"J. c white",
"K. c #FEFEFE",
/* pixels */
"c.m.] % = * * X A m.j.m.m.j.m.A o @ U m.m.m.m.m.m.m.m.m.m.m.m.m.m.m.m.m.m.m.m.m.%.= o y m.m.m.m.m.m.m.m.m.m.m.m.m.m.m.m.m.m.m.m.m.m.m.m.m.m.m.m.",
"j.m._   . + = X Z m.p.m.m.p.m.Z @ o U m.p.m.j.m.m.m.M.M.m.m.x.M.m.j.m.m.j.m.c.m.$.= + y M.j.m.m.m.m.m.m.x.M.m.M.j.m.m.m.m.m.m.m.m.m.j.m.m.m.m.m.",
"m.m.j.L L c # X G m.m.m.m.m.m.G o o E m.m.m.m.m.m.m.m.m.m.m.m.m.m.m.m.m.m.m.m.m.y.- o u m.m.m.m.m.m.m.m.m.m.m.m.m.m.m.m.m.m.m.m.m.m.m.m.m.m.m.m.",
"R T R ~ / N @ @ j T I 8.8.I T j @ # b T U R U R m.] I R R R R R Y W m.( I R Y T K = @ 8 T I ] m.m.m.r.U R Y R R R T U *.m.m.m.+.U R T T T 8.m.m.",
"X o o . . o & & # +   / /   + # & % @ o o o . % m.c   @ o X o o   , m.u   + o o o % & $ +   l m.j.m.) . o o o X X o   E m.j.m.V   + o X . _ m.m.",
"* & & % & & % % & = o ( ( o = & & % & & & = % > m.n o = & & % * # 4 m.s @ = & & % % & & = o b m.i.m.) % * * & & & = o W m.p.M.S o = & & # ' m.j.",
"% @ 8 ,.5.J @ + n O.} p.p.} O.n @ @ J 7.,.8 o > m.n o $ R 7.>.5.5.,.m.s o & ) 5.' = @ w o.+.8.m.m.m.{ # + f 1.5.b o # W m.m.m.D o @ K ,.*.m.m.m.",
"& % , l l y % o D m.m.m.m.m.m.D o & y l l , # > m.n o & a l l l h n m.s @ = d l g - @ i m.m.m.y.l g u & # 3 l l 8 % + / +.p k 8 $ $ r z l j j g ",
"@ @ o       #   V m.j.m.m.j.m.V   @       o o % m.v   @           * m.u   #       @   q m.j.m.5.+   X % & @     X #   ( Q     + % & X           ",
"t t y y u u u 9 I m.m.m.m.m.m.U 9 u y y u y e a m.H 8 u u u u u e k m.N q u u y u y q n m.m.m.8.s y q % $ 1 a p u y 9 ] } 9 u 5 % $ 6 u u u u y ",
"m.m.m.m.m.m.m.m.m.m.m.m.m.m.m.m.m.m.m.m.m.m.m.m.m.m.m.m.m.m.m.m.m.m.m.m.m.m.m.m.m.m.m.m.m.m.m.m.m.m.' # o f a.8.m.m.m.m.m.m.m.D o + R m.m.m.m.m.",
"m.m.m.m.m.m.m.m.m.m.m.m.m.m.m.m.m.m.m.m.m.m.m.m.m.m.m.m.m.m.m.m.m.m.m.m.m.m.m.m.m.m.m.m.m.m.m.m.j.m._ % = = , % D m.j.m.m.j.j.A @ # U m.j.m.m.m.",
"m.m.m.m.m.m.m.m.m.m.m.m.m.m.m.m.m.j.m.m.m.m.m.m.m.m.m.m.m.m.m.m.j.j.m.m.m.m.m.m.c.j.j.m.m.m.m.m.j.j.(   X   .   V m.m.m.m.j.m.V     I m.m.m.m.m.",
"m.m.m.m.m.m.m.m.m.m.m.m.m.m.m.m.m.m.m.m.m.m.m.m.m.m.m.m.m.m.m.m.m.m.m.m.m.m.m.m.m.m.m.m.m.m.m.m.m.m.p.F I Y U F ] m.m.m.m.m.m._ D F +.m.m.m.m.m.",
"m.m.m.m.m.m.m.m.m.m.m.m.m.m.m.} P P $.m.m.m.m.m.m.m.m.m.m.m.j.R P W m.m.m.m.m.m.p.U P Q m.m.m.j.Y P Q m._ E Q m.m.m.m.m.m.m.m.m.m.m.m.m.m.m.m.m.",
"m.m.m.m.m.m.m.m.m.m.m.m.m.m.m.V     P m.m.m.m.m.m.m.m.m.m.m.p.-   , m.m.m.m.m.m.%.#   9 m.m.m.8.=   6 j.6   o @.m.m.m.m.m.m.m.m.m.j.m.m.m.m.m.m.",
"m.m.m.m.m.m.m.c.m.m.m.m.m.j.m.Z @ @ U m.j.m.m.m.m.m.m.m.j.m.p.3 @ 8 j.m.m.m.m.m.*.: # u m.j.c.8.< @ q m.e @ : $.m.m.m.m.m.m.m.m.m.m.m.m.m.m.m.m.",
"m.m.m.m.m.m.m.m.m.m.m.m.m.m.m.D o o E m.m.m.m.m.m.m.m.m.m.m.m.t.q.t.m.m.m.m.m.m.m.8.7.y.m.m.m.j., X w m.e + = r.m.m.m.m.m.m.m.m.m.m.m.m.m.m.m.m.",
"d d d d d d f y R m.j.m._ p f 7 % $ 9 d s s a j m.L u f d f d j s b m.m.m.m.m.m.5.k s V m.n p s = $ > s , % * q E y.s u Z m.m.m.m.m.m.m.m.m.m.m.",
"o O o       @   V m.p.m.R     + & % o     o X % m.j           X   , m.m.m.m.m.m.$.#   w m.,     $ & #   X @ =   D 7.o   t m.j.m.m.m.m.m.m.m.m.m.",
"= % > d d q = o D m.m.m._ e s 5 $ % 8 a a > $ , j.H e a a a p - # 6 m.m.m.m.m.m.,.- @ u m.c u u * $ : a a 8 % X D q.& o s m.m.m.m.m.m.m.m.m.m.m.",
"& @ 8 w.s.K @ o M >.$.j.m.m.m.D o o E m.m.9 o , y.m.m.m.m.m.m.3 + 5 M.8.*.5.*.*.` = o y m.m.m.g.1 o w m.m.E + X D q.% O p q.-.5.q.5.j.m.m.m.m.m.",
"* & = = - = % % = > % W m.p.m.D @ # U m.b.q @ 2 y.m.m.m.c.m.f.3 @ 6 m.g % > - : - = @ u m.m.m.8.< + e m.m.U # o H 7.& & = , > > , & R m.m.m.m.m.",
"o X X .   o & % @ o   R m.p.m.V     P m.m.3   & 8.m.m.m.m.m.p.:   , m.y   o X X X o   9 m.m.m.r.&   6 m.m.P     A 7.  X o . X X o   P m.m.m.m.m.",
"H H K I U v # @ s J D O.m.m.m._ D G +.m.m.U G L j.m.m.m.m.m.m.P D I m.W F J H H H H F R m.m.m.j.L D R m.m.O.G F ] p.H H H H H H L D O.m.m.m.m.m.",
"m.m.m.R E n $ o G m.m.m.m.m.m.m.m.m.m.m.m.m.m.m.m.m.m.m.m.m.m.m.m.m.m.m.m.m.m.m.m.m.m.m.m.m.m.m.m.m.m.m.m.m.m.m.m.m.m.m.m.m.m.m.m.m.m.m.m.m.m.m.",
"j.m._   X + * X Z M.p.m.m.m.m.m.j.m.m.m.m.m.m.m.m.m.m.m.m.m.m.m.j.m.m.m.n.j.m.k.j.m.m.m.m.m.m.m.m.m.m.m.m.m.m.j.m.m.m.m.j.j.j.j.m.m.m.m.m.m.m.m.",
"m.m.] & = = = @ S m.m.m.m.m.m.m.m.m.m.m.m.m.m.m.m.m.m.m.m.m.m.m.m.m.m.m.m.m.m.m.m.m.m.m.m.m.m.m.m.m.m.m.m.m.m.m.m.m.m.m.m.m.m.m.m.m.m.m.m.m.m.m.",
"m.m.j.$.*.$.%.#.y.m.m.m.m.m.m.m.m.m.m.m.m.m.m.m.m.m.m.m.m.m.m.m.m.m.m.m.m.m.m.m.m.m.m.m.m.m.m.m.m.m.m.m.m.m.m.m.m.m.m.m.m.m.m.m.m.m.m.m.m.m.m.m.",
"m.m.m.m.m.m.m.m.m.m.m.m.m.m.m.m.m.m.m.m.m.m.m.m.m.m.m.m.m.m.m.m.m.m.m.m.m.m.m.m.m.m.m.m.m.m.m.m.m.m.m.m.m.m.m.m.m.m.m.m.m.m.m.m.m.m.m.m.m.m.m.m.",
"m.m.m.m.j.m.m.j.m.m.m.m.m.m.m.m.m.m.m.m.m.m.m.m.m.m.m.m.m.m.m.m.m.m.m.m.m.m.m.m.m.m.m.m.m.m.m.m.m.m.m.m.m.m.m.m.m.m.m.m.m.m.m.m.m.m.m.m.m.m.m.m.",
"m.m.m.m.m.m.m.m.m.m.m.m.m.m.m.m.m.m.m.m.m.m.m.m.m.m.m.m.m.m.m.m.m.m.m.m.m.m.m.m.m.m.m.m.m.m.m.m.m.m.m.m.m.m.m.m.m.m.m.m.m.m.m.m.m.m.m.m.m.m.m.m.",
"*.*.*.*.*.>.>.*.-.*.*.d.d.*.>.*.-.*.5.*.*.k.i.*.*.,.*.*.>.*.*.c.m.m.m.8.*.*.*.*.*.*.*.8.m.5.*.*.*.*.>.>.*.8.m.m.m.j.*.*.*.*.*.*.,.*.p.m.m.m.m.m.",
"= = = - - = = ; - - # ( ) @ - - - - - = & $.P @ : = ; > - * - %.m.m.m.g # - - : - - $ p m.q % - ; : : - # k m.j.m.o.= = - - > = - # T m.j.m.m.m.",
"$ $ $ X @ % $ X @ & X / ( X & @ X X @ & @ #.L   * o     @ $ * %.m.j.M.a o & X   X % o y m.8 + $ .   X & X g b.p.m.+.$ & $ X X @ = o U m.m.m.m.m.",
"& # 2 L 6 # & H s @ o ( ( o # s L L w @ $ $.L o # c E R 8 @ = $.m.m.m.f o = H E K = o u m.8 @ > P E S & o l m.m.m.+.& @ 8 L L a     I m.m.m.m.m.",
"% @ 9 m.p o * m.D X + ( ( + o Z m.m.k o # %.L X @ c E E 8 @ & 5.] H L 8 @ & H E K = o u m.8 @ > P W S $ @ q P D } $.& X f m.m.! k k _ m.m.m.m.m.",
"& @ 7 M.e X & y.V X o ( ( o o m x.j.g X @ #.L . & o     # $ % g.M   o # & % X   X % o y m.8 + % X   X & % # X   A q.% X s m.p.m.m.m.m.m.m.m.m.m.",
"- % 9 m.a # - a.Z # % ) ) % # V m.m.l # = %.I @ : = - : - = - a.A # > * % % - : - - $ p m.q % - - > = % % * > # H q.= # f m.m.m.m.j.m.m.m.m.m.m.",
"*.>.5.m.8.*.*.m.y.*.*.j.j.*.>.y.m.m.8.%.*.c.p.%.*.*.*.*.>.*.5.m.y.$.*.u o & ( *.*.*.*.8.m.5.*.*.*.*.W # o d ,.$.i.m.*.$.8.m.m.m.m.m.m.m.m.m.m.m.",
"m.m.m.m.m.m.m.m.m.m.m.m.m.m.m.m.m.m.m.m.m.m.m.m.m.m.m.m.m.m.m.m.m.m.m.s O = $.m.m.m.m.m.m.m.m.m.m.m.' & + k m.m.m.m.m.m.m.m.m.m.m.m.m.m.m.m.m.m.",
"m.m.m.m.m.m.m.m.m.m.m.m.m.m.m.m.m.m.m.m.m.m.m.m.m.m.m.m.m.m.m.m.m.m.m.u   + +.m.m.m.m.m.m.m.m.m.j.m.) .   s m.j.m.m.m.j.m.m.m.m.m.m.m.m.m.m.m.m.",
"m.m.m.m.m.m.m.m.m.m.m.m.m.m.m.m.m.m.m.m.m.m.m.m.m.m.m.m.m.m.m.m.m.m.m.V u s $.m.m.m.m.m.m.m.m.m.m.m.+.s y D m.m.m.m.m.m.m.m.m.m.m.m.m.m.m.m.m.m.",
"m.m.m.m.m.m.m.m.m.m.m.m.m.m.m.m.m.m.m.m.m.m.m.m.m.m.m.m.m.m.m.m.m.m.m.m.m.m.m.m.m.m.m.m.m.m.m.m.m.m.m.m.m.m.m.m.m.m.m.m.m.m.m.m.m.m.m.m.m.m.m.m.",
"m.m.m.m.m.m.m.m.m.m.m.m.m.m.m.m.m.m.m.m.m.m.m.m.m.m.m.m.m.m.m.m.m.m.m.m.m.m.m.m.m.m.m.m.m.m.m.m.m.m.m.m.m.m.m.m.m.m.m.m.m.m.m.m.m.m.m.m.m.m.m.m.",
"m.m.m.m.m.m.j.m.m.j.m.m.m.j.j.m.m.j.m.j.m.m.j.m.m.m.j.m.m.m.m.m.b.m.m.m.k.j.j.m.m.m.m.m.j.c.m.m.m.j.j.m.m.j.m.m.m.m.j.m.m.m.j.m.j.j.m.m.j.m.m.m.",
"m.m.m.m.m.m.m.m.m.m.m.m.m.m.m.m.m.m.m.m.m.m.m.m.m.m.m.m.m.m.m.m.m.m.m.m.m.m.m.m.m.m.m.m.m.m.m.m.m.m.m.m.m.m.m.m.m.m.m.m.m.m.m.m.m.m.m.m.m.m.m.m.",
"m.m.m.m.E H P L L L H *.*.H L L L L L L L L L P m.( H H *.m.j.U H Y m.Q H L H _ m.m./ H P H _ m.P H E m.W H L m.] H H *.*.H P L L L L P L 8.m.m.",
"m.m.m.m.9   o X X X   / /   o X X X o X X X   # m.l     Q m.y.-   , m.t   @   n m.m.s   @   x b.$   6 m.9   o y.N     / /   X X X X X X   _ m.n.",
"m.m.j.m.u @ = - - > $ ( ( $ > - - = & = - : - 2 m.v @ $ / m.y.3 @ 6 m.g # - o N m.m.k @ = @ V j.> @ 0 m.u @ = y.V @ @ ( _ # : = & & = - & | m.m.",
"m.m.m.m.u o = ` *.%.*.j.j.*.%.*._ * + e ,.*.*.*.m.c + @ ) m.b.3 o 6 j.r.L # o C m.m.k o & Q y.5.> o q m.y o & M.S X @ W j.,.y.V o @ L y.8.j.m.m.",
"a a a a , % - ,.m.m.m.m.m.m.m.m.5.- + u m.m.m.m.m.c + = q p u : # 6 f.m.Q @ & 5 a p 2 % % } m.;.> $ > a , % * p 5 & + / } y d 8 % & 9 d s O.m.m.",
"        o o # O.m.m.m.m.m.m.j.m.%.$   q m.m.m.m.m.k   @       o   , j.m.R   @ X     X o o _ m.*.$ o o   X o o   X @   / Q     . + +       _ m.m.",
"d s d s d s d 8.m.m.m.m.m.m.m.m.7.f u N m.m.m.m.m.H u d s s d s a c j.m._ u d s d d s s s O.m.y.g s s s s s s f s s u } } u g s s s s d s $.m.m.",
"m.m.m.m.m.m.m.m.m.m.m.m.m.m.m.m.m.m.m.m.m.m.m.m.m.m.m.m.m.m.m.m.m.m.m.m.m.m.m.m.m.m.m.m.m.m.m.m.m.m.m.m.m.m.m.m.m.m.m.m.m.m.m.m.m.m.m.m.m.m.m.m.",
"m.m.c.k.m.m.m.m.m.m.m.m.m.m.m.m.m.m.j.m.m.m.m.m.m.m.m.m.m.m.m.c.m.m.m.m.m.m.m.c.m.m.m.m.m.m.m.m.m.j.m.m.c.m.m.m.c.n.m.m.m.m.m.m.c.m.m.m.k.m.m.m.",
"m.m.m.m.m.m.m.m.m.m.m.m.m.m.m.m.m.m.m.m.m.m.m.m.m.m.m.m.m.m.m.m.m.m.m.m.m.m.m.m.m.m.m.m.m.m.m.m.m.m.m.m.m.m.m.m.m.m.m.m.m.m.m.m.m.m.m.m.m.m.m.m.",
"m.m.m.m.m.m.m.m.m.m.m.m.m.m.m.m.m.m.m.m.m.m.m.m.m.m.m.m.m.m.m.m.m.m.m.m.m.m.m.m.m.m.m.m.m.m.m.m.m.m.m.m.m.m.m.m.m.m.m.m.m.m.m.m.m.m.m.m.m.m.m.m.",
"m.m.m.m.m.m.m.m.m.m.m.m.m.m.m.m.m.m.m.m.m.m.m.m.m.m.m.m.m.m.m.m.m.m.m.m.m.m.m.m.m.m.m.m.m.m.m.m.m.m.m.m.m.m.m.m.m.m.m.m.m.m.m.m.m.m.m.m.m.m.m.m.",
"m.m.m.m.m.m.m.m.m.m.m.m.m.m.m.m.m.m.m.m.m.m.m.m.m.m.m.m.m.m.m.m.m.m.m.m.m.m.m.m.m.m.m.m.m.m.m.m.m.m.m.m.m.m.m.m.m.m.m.m.m.m.m.m.m.m.m.m.m.m.m.m.",
"m.m.m.m.m.m.m.m.m.m.m.m.m.m.m.m.m.m.m.m.m.m.m.m.m.m.m.m.m.m.m.m.m.m.m.m.m.m.m.m.m.m.m.m.m.m.m.m.m.m.m.m.m.m.m.m.m.m.m.m.m.m.m.m.m.m.m.m.m.m.m.m.",
"m.m.m.m.m.m.m.m.m.m.m.m.m.m.m.m.m.m.m.m.m.m.m.m.m.m.m.m.m.m.m.m.m.m.m.m.m.m.m.m.m.m.m.m.m.m.m.m.m.m.m.m.m.m.m.m.m.m.m.m.m.m.m.m.m.m.m.m.m.m.m.m.",
"u w l m.m.! w q I m.j.m._ e u u u y w n m.m.m.m.m.m.m.m.m.m.m.m.m.m.m.m.m.m.m.m.m.m.m.m.m.m.m.m.m.m.m.m.m.m.m.m.m.m.m.m.m.m.m.m.m.m.m.m.m.m.m.m.",
"@ X 5 m.m.I     V m.p.m.R         @   q m.m.m.m.m.m.m.m.m.m.m.m.m.m.m.m.m.m.m.m.m.m.m.m.m.m.m.m.m.m.m.m.m.m.m.m.m.m.m.m.m.m.m.m.m.m.m.m.m.m.m.m.",
"= # 9 m.m.E @ @ D m.m.m._ s j g s = @ a m.m.m.m.m.m.m.m.m.m.m.m.m.m.m.m.m.m.m.m.m.m.m.m.m.m.m.m.m.m.m.m.m.m.m.m.m.m.m.m.m.m.m.m.m.m.m.m.m.m.m.m.",
"& @ 6 +.o.D @ @ n o.{ p.m.m.m.m.8.= @ w O.+.O.@.m.m.m.m.m.m.m.m.m.m.m.m.m.m.m.m.m.m.m.m.m.m.m.m.m.m.m.m.m.m.m.m.m.m.m.m.m.m.m.m.m.m.m.m.m.m.m.m.",
"& & & & & * % & & = @ W m.j.j.c.$.= & * & & % 1 y.m.m.m.m.m.m.m.m.m.m.m.m.m.m.m.m.m.m.m.m.m.m.m.m.m.m.m.m.m.m.m.m.m.m.m.m.m.m.m.m.m.m.m.m.m.m.m.",
"o o o . X o & & # @   R m.m.m.m.#.# o o X o . & 8.m.m.m.m.m.m.m.m.m.m.m.m.m.m.m.m.m.m.m.m.m.m.m.m.m.m.m.m.m.m.m.m.m.m.m.m.m.m.m.m.m.m.m.m.m.m.m.",
"T Y E ^ / B @ @ j T U *.m.m.m.m.p.R Y T T T Y E j.m.m.m.m.m.m.m.m.m.m.m.m.m.m.m.m.m.m.m.m.m.m.m.m.m.m.m.m.m.m.m.m.m.m.m.m.m.m.m.m.m.m.m.m.m.m.m.",
"m.m.j.J P c @ o H m.m.m.m.m.m.m.m.m.m.m.m.m.m.m.m.m.m.m.m.m.m.m.m.m.m.m.m.m.m.m.m.m.m.m.m.m.m.m.m.m.m.m.m.m.m.m.m.m.m.m.m.m.m.m.m.m.m.m.m.m.m.m.",
"j.m._     + * X Z m.j.m.m.m.m.m.m.j.m.m.m.m.m.j.m.m.m.m.m.m.m.m.m.m.m.m.m.m.m.m.m.m.m.m.m.m.m.m.m.m.m.m.m.m.m.m.m.m.m.m.m.m.m.m.m.m.m.m.m.m.m.m.",
"m.m.] % = & = X S m.m.m.m.m.m.m.m.m.m.m.m.m.m.m.m.m.m.m.m.m.m.m.m.m.m.m.m.m.m.m.m.m.m.m.m.m.m.m.m.m.m.m.m.m.m.m.m.m.m.m.m.m.m.m.m.m.m.m.m.m.m.m."
};
