/* XPM */
static char *_4a7f562418840c5c00bbeb9371cd4489dgFSM3gfcKCqm9q[] = {
/* columns rows colors chars-per-pixel */
"72 72 256 2 ",
"   c black",
".  c #010101",
"X  c #020202",
"o  c gray1",
"O  c #040404",
"+  c gray2",
"@  c #060606",
"#  c #070707",
"$  c gray3",
"%  c #090909",
"&  c gray4",
"*  c #0B0B0B",
"=  c #0C0C0C",
"-  c gray5",
";  c #0E0E0E",
":  c gray6",
">  c #101010",
",  c #111111",
"<  c gray7",
"1  c #131313",
"2  c gray8",
"3  c #151515",
"4  c #161616",
"5  c gray9",
"6  c #181818",
"7  c #191919",
"8  c gray10",
"9  c #1B1B1B",
"0  c gray11",
"q  c #1D1D1D",
"w  c #1E1E1E",
"e  c gray12",
"r  c #202020",
"t  c gray13",
"y  c #222222",
"u  c #232323",
"i  c gray14",
"p  c #252525",
"a  c gray15",
"s  c #272727",
"d  c #282828",
"f  c gray16",
"g  c #2A2A2A",
"h  c gray17",
"j  c #2C2C2C",
"k  c #2D2D2D",
"l  c gray18",
"z  c #2F2F2F",
"x  c gray19",
"c  c #313131",
"v  c #323232",
"b  c gray20",
"n  c #343434",
"m  c #353535",
"M  c gray21",
"N  c #373737",
"B  c gray22",
"V  c #393939",
"C  c #3A3A3A",
"Z  c gray23",
"A  c #3C3C3C",
"S  c gray24",
"D  c #3E3E3E",
"F  c #3F3F3F",
"G  c gray25",
"H  c #414141",
"J  c gray26",
"K  c #434343",
"L  c #444444",
"P  c gray27",
"I  c #464646",
"U  c gray28",
"Y  c #484848",
"T  c #494949",
"R  c gray29",
"E  c #4B4B4B",
"W  c #4C4C4C",
"Q  c gray30",
"!  c #4E4E4E",
"~  c gray31",
"^  c #505050",
"/  c #515151",
"(  c gray32",
")  c #535353",
"_  c gray33",
"`  c #555555",
"'  c #565656",
"]  c gray34",
"[  c #585858",
"{  c gray35",
"}  c #5A5A5A",
"|  c #5B5B5B",
" . c gray36",
".. c #5D5D5D",
"X. c gray37",
"o. c #5F5F5F",
"O. c #606060",
"+. c gray38",
"@. c #626262",
"#. c gray39",
"$. c #646464",
"%. c #656565",
"&. c gray40",
"*. c #676767",
"=. c #686868",
"-. c DimGray",
";. c #6A6A6A",
":. c gray42",
">. c #6C6C6C",
",. c #6D6D6D",
"<. c gray43",
"1. c #6F6F6F",
"2. c gray44",
"3. c #717171",
"4. c #727272",
"5. c gray45",
"6. c #747474",
"7. c gray46",
"8. c #767676",
"9. c #777777",
"0. c gray47",
"q. c #797979",
"w. c gray48",
"e. c #7B7B7B",
"r. c #7C7C7C",
"t. c gray49",
"y. c #7E7E7E",
"u. c gray50",
"i. c #808080",
"p. c #818181",
"a. c gray51",
"s. c #838383",
"d. c #848484",
"f. c gray52",
"g. c #868686",
"h. c gray53",
"j. c #888888",
"k. c #898989",
"l. c gray54",
"z. c #8B8B8B",
"x. c gray55",
"c. c #8D8D8D",
"v. c #8E8E8E",
"b. c gray56",
"n. c #909090",
"m. c gray57",
"M. c #929292",
"N. c #939393",
"B. c gray58",
"V. c #959595",
"C. c gray59",
"Z. c #979797",
"A. c #989898",
"S. c gray60",
"D. c #9A9A9A",
"F. c #9B9B9B",
"G. c gray61",
"H. c #9D9D9D",
"J. c gray62",
"K. c #9F9F9F",
"L. c #A0A0A0",
"P. c gray63",
"I. c #A2A2A2",
"U. c gray64",
"Y. c #A4A4A4",
"T. c #A5A5A5",
"R. c gray65",
"E. c #A7A7A7",
"W. c gray66",
"Q. c #A9A9A9",
"!. c #AAAAAA",
"~. c gray67",
"^. c #ACACAC",
"/. c gray68",
"(. c #AEAEAE",
"). c #AFAFAF",
"_. c gray69",
"`. c #B1B1B1",
"'. c #B2B2B2",
"]. c gray70",
"[. c #B4B4B4",
"{. c gray71",
"}. c #B6B6B6",
"|. c #B7B7B7",
" X c gray72",
".X c #B9B9B9",
"XX c gray73",
"oX c #BBBBBB",
"OX c #BCBCBC",
"+X c gray74",
"@X c gray",
"#X c gray75",
"$X c #C0C0C0",
"%X c #C1C1C1",
"&X c gray76",
"*X c #C3C3C3",
"=X c gray77",
"-X c #C5C5C5",
";X c #C6C6C6",
":X c gray78",
">X c #C8C8C8",
",X c gray79",
"<X c #CACACA",
"1X c #CBCBCB",
"2X c gray80",
"3X c #CDCDCD",
"4X c #CECECE",
"5X c gray81",
"6X c #D0D0D0",
"7X c gray82",
"8X c #D2D2D2",
"9X c LightGray",
"0X c gray83",
"qX c #D5D5D5",
"wX c gray84",
"eX c #D7D7D7",
"rX c #D8D8D8",
"tX c gray85",
"yX c #DADADA",
"uX c gray86",
"iX c gainsboro",
"pX c #DDDDDD",
"aX c gray87",
"sX c #DFDFDF",
"dX c gray88",
"fX c #E1E1E1",
"gX c #E2E2E2",
"hX c gray89",
"jX c #E4E4E4",
"kX c gray90",
"lX c #E6E6E6",
"zX c #E7E7E7",
"xX c gray91",
"cX c #E9E9E9",
"vX c #EAEAEA",
"bX c gray92",
"nX c #ECECEC",
"mX c gray93",
"MX c #EEEEEE",
"NX c #EFEFEF",
"BX c gray94",
"VX c #F1F1F1",
"CX c gray95",
"ZX c #F3F3F3",
"AX c #F4F4F4",
"SX c gray96",
"DX c #F6F6F6",
"FX c gray97",
"GX c #F8F8F8",
"HX c #F9F9F9",
"JX c gray98",
"KX c #FBFBFB",
"LX c gray99",
"PX c #FDFDFD",
"IX c #FEFEFE",
"UX c white",
/* pixels */
"    o O . X o o   5 BXUX%.X O   o X o X O   U.UX;X  X X o o o o @ X F UXIXG . o   o o o o .   :XUXI.  O o X O o o @ O $.UXAX0   o o o o o o o o ",
"  .     X       . 5 BXUX}   O           X . Y.UX;X    .   .         b UXUXm   o     .     .   ;XUXU.. O               [ UXAX9 .         X       ",
"o   &.:X*X*X>X{   9 CXUX8X8..   I.:X>XT.O   I.UX:X    0.{.`.[.].{.[.;XUXPX;X) . < ~.[.[.q.    :XIXU.  o T.:X;X;X;X,X=XpXUXDXu   } >X-X;X-X;X:X-X",
"X . K t.r.r.y.B . 8 SXPXUX_.  o %.t.y.-.O . Y.IX-X  . [.IXUXUXUXIXUXUXPXKXIXy.  7 IXUXUX[.    ;XUXP.. O =.t.r.y.y.u.u._.PXSXe   B y.e.y.t.y.t.y.",
"    .     .   .   5 AXUXLXP.  O   .     O   U.UX;X    R.HXDXHXGXJXGXKXUXJXLX5.. 9 bXJXHXE.. . -XUXU.  o   X       .   W UXZX0     .     .   .   ",
"X   s ! ! W ~ i   8 AXPXUX/.. X Y } { T o . U.UX:X    '.UXIXUXUXUXUXUXPXKXUXe.  6 JXUXUX`.    :XUXI.  O R { [ [ ]  .[ Z.UXAXr   i ~ Q ~ Q ! W ! ",
"+ . j.UXUXUXUX0.  0 AXIXjXj.    {.sXdXXXo   U.UX;X. . c.7X5X9X7X9X8XaXUXKXaX@.. 4 -X9X9Xx..   ;XUXY.  X oXaXaXsXaXsXsXnXUXFXt . 0.IXUXUXUXUXIXUX",
"+   p.LXGXGXLX2.X 9 BXUX+.  O . .       O   U.UX:X  X     .   . .   Z UXUXZ   O   .     . .   :XUXU.  +   X           O.UXZXu   2.IXHXKXPXKXIXKX",
".   p.UXKXKXUX1.  6 BXUXO..               . L.UX;X  .               Z UXUXC .         .       ;XUXP.  .   X     .     @.UXCXe   1.UXKXIXUXUXIXUX",
"6X8XzXUXUXIXUXjX6XqXLXUXgX6X6X5X6X5X5X7X6X6XNXUXAX5X5X7X5X7X7X6X6X6XuXUXUXpX5X6X7X5X7X5X7X6X5XSXUXMX7X5X6X5X7X6X5X7X8XfXPXPXwX7XlXUXIXUXIXUXUXUX",
"IXUXIXKXHXJXLXUXUXUXUXUXUXUXIXUXUXUXUXIXUXUXIXIXUXIXUXUXUXUXUXIXUXUXUXIXIXIXUXIXUXUXUXUXUXUXUXIXPXUXUXUXUXUXUXUXUXUXIXUXIXUXUXIXUXPXUXUXUXUXIXUX",
"UXPXUXUXUXUXUXIXUXUXIXUXUXIXUXKXPXPXIXUXUXIXUXUXIXUXUXUXUXUXUXUXUXUXUXUXUXUXLXIXPXLXUXIXUXIXUXUXUXUXIXUXUXPXPXUXUXUXIXLXUXUXUXUXUXUXIXUXUXIXUXIX",
"v.b.m.m.n.m.n.N.M.F.HXIXOXc.L.PXUXUXIXnXv.b.rXUXzXn.m.M.n.b.b.n.N.m.^.IXIXIXUXPXUXUXE.m.B.n.v.lXUXeXb.n.bXUX8Xb.M.MXUXUXUXKXF.c.%XUXPXUXUXIXUXUX",
"            .   .   MXUX{   2 HXIXKXUX7X  . H.UX%X.         X       f UXPXUXIXUXPXIXw     . . &XUXJ.    2XPXb.    wXPXKXIXZX= . =.IXKXUXIXUXIXUX",
"+ O 6 h h h h j g D CXUX&.O g IXUXUXIXtX$ o R.UX5Xf h j 8 o @ a k g X.UXUXIXPXUXIXUX_ h r O + :XUXR.o # wXUXF.+ $ dXUXUXUXAXr o 6.UXKXUXUXUXUXUX",
"O   a.UXHXPXUXIXUXIXLXIX%.. y kXbXcXnX=Xo   T.UXKXPXJXPXj.  - kXIXLXIXIXUXUXUXUXUXUXJXLX!.    :XUXU.  o #XMXx.  @ >XbXBXIXZX9   4.IXKXUXUXUXUXUX",
"O X a.UXLXUXUXIXIXIXKXUX$.  @ < < < 1 > X   R.IXKXUXPXUXj.  , kXUXIXUXIXUXIXIXIXUXIXLXUX~..   ;XUXI.  o > < - o o , ; >.UXNX0   5.UXKXIXUXIXIXUX",
"O   p.HXFXDXKXf.p S CXUX#.  O . .   .   +   Y.UXLXKXSXJXf.  - gXKXHXLXIXUX .p o.LXJXGXHXE.    ;XUXU.  O   .       .   +.UXBXq   <.LXFXLXJXKXLXKX",
"+   c.UXIXUXIX6.  3 BXIX&.. 9 /.].).`.B.o   R.UXIXUXUXUXM.  : DXUXUXUXLXUXC   K PXUXUXIX|.    ;XUXY.  o V.'.)._.(.9 . %.UXMX0 . w.UXUXIXUXUXPXUX",
"+ X N ,.:.;.,.b @ 0 VXUX&.o h UXUXUXUXhX@ X R.IXpX:.:.>.Z X % O.,.-.n.PXUXK + u ,.;.-.<.Y O o :XUXT.X + gXUXUXIXUXh o *.IXBX9 O x ,.:.:.:.>.:.:.",
".     .     .     & BXUX..  6 DXKXJXKX4X    J.UX$X      X   .   . . u UXUXv       .       .   *XIXJ..   6XKXHXLXDX6   | UXVX$   . .         .   ",
"U I T R W E W T U [ ZXUXm.L @.KXUXPXUXdXE U OXUXeXE Q W Y U U E W R 0.IXUX6.Y R E E R E E I Y eXUX+XI T sXUXPXUXKX+.P n.IXZX{ U R E E R W E R W ",
"UXUXUXIXUXUXUXUXUXIXUXIXUXUXUXIXPXUXPXIXUXUXUXUXIXUXUXUXUXIXUXUXUXIXUXIXUXUXPXUXIXUXIXUXIXUXUXIXUXIXUXUXUXLXUXPXUXUXIXUXUXIXUXUXUXUXIXUXUXUXUXUX",
"PXLXPXPXIXPXPXLXPXUXUXUXIXIXLXUXUXIXUXUXLXIXPXUXUXLXIXPXPXIXLXPXIXPXIXUXUXIXPXPXPXLXIXLXIXPXLXUXUXIXPXLXUXUXUXUXUXPXIXPXUXUXPXPXIXPXPXPXPXLXIXPX",
"IXUXPXPXUXPXUXIXPXIXUXUXIXPXIXIXIXIXIXIXIXIXIXIXUXPXPXIXIXPXUXIXIXPXIXUXUXPXPXIXIXIXUXIXIXPXPXUXIXIXPXIXPXIXIXIXIXIXPXPXUXUXIXPXIXIXIXIXIXIXUXIX",
"s a f j a s g g s Z CXIXe.d h h h g g j f s _.UX4Xd d j f h j h h s | IXUX| d h h g h h g s d 5XUX`.a f j h g g g j s e.UXDXG s d j j f h h a d ",
"  . .         .   : NXUXX.  .       X   .   L.IX=X      .           N UXIXM             .     =XIXL.. .   .     . .   X.UXZX2 . .     .         ",
"O X ) 3.o o r.Y X q MXUX$.o 6 b.n.b.m.q.O X R.UX:X  o +.m.b.b.M.g . H UXUXJ o l U.P.L.I.>.o X :XUXY.. + e.v.z.v.b.5 o $.UXAXy X T Y.P.P.Y._ . @ ",
"@   H.tX    cXh.  8 VXUX%.  a UXUXIXUXhXo . I.IX;X    }.UXUXUXUXR   H UXUXD   j P.J.J.P.:.X X :XUXY.. o hXUXPXUXUXd   %.UXAXe . R K.F.F.K.` . + ",
"X . b.=X.   0Xr.  q VXIX&.  p FXLXGXLX6Xo . U.UX:X    W.JXSXFXKXL . G UXIXD o           .     =XUXI.  X qX5X(.oXSXi   %.UXSXq         . .   .   ",
"+   m.,X  . wXy.  0 NXUX&.  p HXUXPXUX9Xo   Y.UX;X    ).UXUXUXIXU   G UXIXD   : z k l l k g h 4XUXU..   bX$.  r LXd . %.UXAXq . 5 d O O y h f f ",
"+   n.<X    rXt.. 9 VXUX%.  a JXUXLXUX0XX . I.UX:X    F.xXkXzXcXF . F IXUXH   P UXPXUXUXUXUXIXKXIXE.  . 6X#.o f fXu   &.UXZXu   y.eX    |.UXLXUX",
"$ X B.<Xo X tXi.o e NXUX*.o d JXUXKXUXqX+ o T.UX:Xo O = > , : > % X H UXIXL X U IXPXUXUXUXUXUXKXUXR.o @ > #   O > $ o $.UXAXi o u.yXX O  XUXLXUX",
"  . l.;X. . wX8.. , BXUX .  8 JXUXPXPX9X    L.UX=X              .   b UXUXM . A UXJXIXUXIXUXPXKXUXP.        .     .   | UXVX5   0.qXX   `.UXJXUX",
"}.].dXNX].].AXtX`.oXKXUX7X[.#XPXUXIXUXBX{.].jXUXMX].].{.[.{.|.{.{.{.:XIXUX;X].>XIXUXUXIXUXIXUXIXUXkX].{.{.Y o r {.[.].7XUXLX@X'.rXAX[.[.vXUXUXIX",
"UXUXUXUXUXIXIXUXUXUXIXIXUXIXUXLXPXKXKXUXIXUXUXIXUXUXIXUXUXUXLXUXUXUXUXUXUXUXUXUXLXIXUXPXJXLXLXIXUXIXUXUXUX}   7 IXUXUXUXUXIXUXUXUXUXIXIXUXKXLXLX",
"UXUXUXUXUXUXUXUXPXUXUXUXUXIXPXUXIXUXUXUXUXIXUXUXIXUXUXUXKXKXPXLXUXUXIXUXUXUXUXUXUXIXUXUXIXUXUXUXPXUXUXIXIX!.e.n.LXUXUXUXIXUXUXUXUXUXUXUXUXUXUXUX",
"(.(.(._._.).)._.(.}.JXUX3X(.'.(.(.).(.(._./.dXUXMX~.^.kXIXUXUXIX*X~.=XIXUX%X(./.[.HXUX7X^.).(.mXUXdX^.(.AXuXOX<XLXXX^.4XUXKX|.^.).(.(.(./.(._./.",
"            .     + BXUX]             .     H.UX*X    R.IXKXPXUXZ   M UXUXz     # nXUX*.      &XIXJ.    aX@.  8 FX8    .UXZX> . . .       .   . ",
"O X ; 3 1 3 3 4 3 h VXUX2.1 6 2 @ o & 3 4 2 ~.UX:Xo o ~.UXKXPXUXU o K UXUX! & o 6 bXUX3.o & 2 <XUXY.o O aX,.O j FXd o *.IXAXy O ; , o o < - O O ",
"O   e.MXcXmXmXMXmXBXPXUXAXnXMXvXs   { NXvXmXSXUX<X    ~.UXLXPXUXP   J IXJXCX,.  8 nXUX2.. 9 dXKXIXR.    sX;.  g FXp . %.UXAXw   8.&X.   XXh.  . ",
"O + 0 n c v c v z H FXUXIXUXIXUXf   #.IXPXUXPXUX<X  . !.UXKXPXIXP   G UXHXUX0.  7 nXUX4.  0 JXIXUXY.. . sX>.  f DXs   *.IXGX0X>XxX:X.   #XnX,X2X",
"        .   .     : ZXUXUXIXIXKXd . o.UXLXPXLXUX2X    W.JXGXHXLXL   K UXGXIX9.  6 xXKX2.. 0 ZXIXPXW.    pX;.  f ZXp . $.UXPXUXUXUX.X  . ).UXUXUX",
"Y.T.R.R.T.U.Q.E o 0 AXUXPXPXUXLXf   +.UXJXUXKXUX,X    |.UXIXUXIXT   H UXJXIX8.  9 IXUX8.  q ZXIXUXR..   MX4.  l UXs   %.IXDX9.@.XXyX    6X;X#.%.",
"I.P.P.I.I.P.U.E X q AXIXUXIXIXKXf X @.UXLXUXLXUX2XX . O.m.b.n.m.j . H IXHXUX0.X , g.M.K o 9 SXPXUXT.X X u.D X 7 x.8 . &.UXAX, X H 9.O X 5.W .   ",
"  . .     .       : ZXUXIXPXUXLXy . | IXKXIXKXUX>X                  B UXGXUX1.  .         > CXIXIXI.        .         ..UXCX6     .             ",
"g k g g j g j g d C SXUXPXUXUXPXR i w.UXLXUXUXUX8Xs d f k h g h g d | UXJXUXz.s g g h h s Z SXIXUX[.a h g g a d j g s e.IXDXJ s h h p d g g s d ",
"UXLXUXIXIXIXUXIXPXIXUXUXUXIXUXUXUXPXIXIXUXUXIXUXUXPXUXIXPXIXUXPXUXLXIXUXUXUXUXLXUXIXIXUXIXUXUXUXUXPXPXIXIXIXPXUXPXUXPXIXUXUXPXPXIXPXUXPXPXIXUXPX",
"PXIXIXUXUXUXUXIXPXIXIXUXPXPXIXPXPXPXPXKXIXPXIXUXUXPXPXIXLXIXPXPXPXIXIXUXUXIXKXIXIXPXLXUXUXUXUXUXUXIXPXPXPXPXPXPXIXLXIXIXIXUXPXIXPXLXIXPXIXPXPXIX",
"UXUXUXUXUXUXUXUXUXUXIXUXUXUXIXIXUXUXIXUXIXIXUXUXUXUXUXIXUXUXUXUXUXUXIXUXUXUXUXIXUXPXUXIXIXUXIXUXUXUXUXIXUXUXIXUXUXUXIXUXUXUXUXUXUXIXUXUXIXIXUXIX",
"E P T.IXLXLXUXS.P  .AXPXM.R ~ W E R E R E U oXUXwXU I R E W E W R U 7.UXIX9.T ! E W L Q.UXLXUXPXUX%XT ! W R E E R E U b.IXFXO.E W W R T W R U U ",
"  X q.LXGXFXLX-.  , MXUXW         .   .     H.UX=X  X               b UXUXa   .   .   u.IXJXUXKXUXS.      . .     .   } UXZX      X   .       . ",
"$ X c.UXUXUXUXw.O q ZXUX/.w.t.e.w.w.w.*.@ o T.IX:Xo o Y <.=.;.<.t O G UXIXN.3.6.&.= o k.UXKXUXLXUX6Xw.r.r.e.w.w.8.4 O %.UXFXk.e.e.w.e.q.r.H o + ",
"O . { ]._.).'.~ . 0 CXIXtX%X*X*X*X%X=XU.X o U.UX-X    |.UXUXUXIXT   J IXIXUXUXUXFX:   j.IXKXUXUXUXxX%X*X&X*X&X=X$Xw . *.IXHX2X$X*X-X=X#X=X$.  O ",
"  .       .       5 VXUX[       X       .   P.IX:X    W.HXFXHXJXL   F UXLXJXJXHXfX-   k.UXHXUXKXUXK.    X .           o.UXZX% .       .         ",
": , < < 1 1 2 *   6 BXUX%.o % < 1 2 1 1 1 > W.UX:X  . !.UXLXIXUXL   H UXLXUXIXUXlX>   j.IXPXUXLXUXT.O @ : 1 < 1 < 2 , ,.UXAXk 1 3 1 2 < 2 &     ",
"cXcXcXcXbXlXvX=.  9 VXUX#.. y jXbXxXvXcXcXvXSXUX<X    Q.UXJXJXUXL . H IXIXPXPXIXjX-   j.PXHXPXKXUXR.  + %XcXxXcXvXcXcXCXUXUXnXcXvXvXcXlXbX0.  O ",
"z c x x x z v 6 O 0 NXUX%.o : x z x z x v l [.UX:XO O w g g h g , O H UXIXX.f k a @ o 8 j h f 4XPXE.+ @ f z x x c v x i.IXFXU z v x v l x 8 o + ",
".     X .     .   $ MXUX}       .   .     . S.UX&X.     .     .     z UXUXd .     .         . %XUXG.  .           .   / UXBX+               .   ",
"M.n.n.n.n.M.m.m.b.S.HXUX.Xn.m.M.m.m.M.b.B.m.wXUXzXv.m.m.n.n.n.m.m.b.!.UXUX/.M.M.n.b.b.n.M.m.b.zXUXwXb.m.n.M.M.M.M.N.m.OXIXJXK.n.N.M.m.M.M.b.v.b.",
"UXIXUXUXUXUXUXUXUXUXIXUXUXUXUXUXUXIXUXUXIXUXUXUXIXUXUXUXUXUXUXUXUXIXUXUXIXUXIXUXUXUXUXUXIXUXUXIXUXIXUXIXUXUXIXIXUXIXUXIXUXUXUXIXUXIXUXPXIXUXUXUX",
"IXUXIXHXPXJXKXUXUXUXIXUXUXUXUXUXUXUXUXUXUXUXIXIXUXUXPXUXPXUXUXUXIXUXUXIXUXUXUXUXIXUXUXIXIXUXIXUXIXUXIXUXIXIXUXUXUXUXIXUXIXIXIXUXIXUXUXUXUXUXPXUX",
"6X5XxXUXPXIXUXkX6X9XIXUXfX5X7X5X7X5X6X5X8X6XMXUXCX7X7X6X7X4X7X6X7X5XuXUXUXuX5X6X6X7X7X5X7X5X5XAXUXMX6X6X7X8X6X5X5X7X7XhXUXIXwX5X6X6X6X6X5X5X6X7X",
"  . p.UXLXKXUX1.  8 NXUX+.        .   .     P.IX;X.   .           . Z IXUXZ               .   ;XUXP.          . .     O.UXAX7 . .   .   .       ",
"O   p.KXGXHXLX3.  0 BXUX#.  O             . L.UX;X. . .   .         C UXUXA         .     X   :XUXI.. O           @   @.UXSXq     .         .   ",
"O . k.UXUXUXIX0.  0 BXUX%.  r iXdXdXsXaXdXsXVXUX,X.   V.sXiXsXsXdXsXzXUXIXiX0X9X8X8X5X7Xb..   ,XUXT.  o XXsXpXaXiXe   %.IXAXt   $.aXyXyXsX4.  + ",
"@ o h ! W Q ~ i . 8 VXPX*.O < ] ] ] [ [ ' ` #XUX>X  o Z { [ ] [ ] ( u.IXUXUXPXUXUXUXUXUX_.  . -XUXI.  O R { [ [ [ :   %.UXAXt o a ( / ^ / j     ",
"  .     .   .     6 NXUX] . .     . .       H.UX:X          . .     x UXKXPXUXPXPXLXJXPX~.    :XUXY.. o               +.IXSX&   . .         .   ",
":.,.1.<.2.,.<.b . 7 ZXUX^.e.r.y.t.y.t.-.# o Y.UX-X    _ u.r.t.y.a o H UXPXUXUXUXUXUXKXPX!..   ;XUXI.  O #.0.7.q.7., X $.UXFXj.e.t.y.t.e.i.H   X ",
"UXPXUXUXUXUXUXe.  0 CXUXuX;X;X:X;X-X-XR.X   U.IX;X.   d.;X*X-X:XM   H PXIXUXUXUXIXUXPXUX!..   :XUXU.  O Y.;X=X*X$Xq   %.UXGX3X-X>X;X>X*X;X&.  O ",
"JXLXLXLXKXFXKX1.. 8 VXUX[       .   .   O   U.UX;X  .   . .   .   . S UXIXUXIXUXUXUXJXUX!.    ;XUXI.X o .         X   $.UXZX:               .   ",
"UXIXUXIXUXKXUX4.  q NXUX%.o # o X O X o o . I.UX;X. . X o X O X +   S UXLXUXUXUXUXIXLXUX~..   :XUXI.  O o X o o o o   #.UXAXr o + X O X o o     "
};
