/* XPM */
static char *alphabeteast[] = {
/* columns rows colors chars-per-pixel */
"66 72 138 2 ",
"   c #0F0A10",
".  c #130E14",
"X  c #161117",
"o  c #171218",
"O  c #1A151B",
"+  c #1E191F",
"@  c #1F1A20",
"#  c #221D23",
"$  c #252126",
"%  c #272328",
"&  c #2A252B",
"*  c #2E292F",
"=  c #2F2B30",
"-  c #322D33",
";  c #353136",
":  c #373338",
">  c #3A363B",
",  c #3D393E",
"<  c #3F3B40",
"1  c #423E43",
"2  c #454146",
"3  c #474348",
"4  c #49454A",
"5  c #4D494E",
"6  c #514D52",
"7  c #545155",
"8  c #575458",
"9  c #59565A",
"0  c #5D5A5E",
"q  c #5F5C60",
"w  c #615D61",
"e  c #656266",
"r  c #676468",
"t  c #69666A",
"y  c #6C696D",
"u  c #6F6C70",
"i  c #716E72",
"p  c #757275",
"a  c #777478",
"s  c #79767A",
"d  c #7D7A7D",
"f  c #7F7D80",
"g  c #817E82",
"h  c #848285",
"j  c #898689",
"k  c #8C8A8C",
"l  c #8F8D90",
"z  c #908E91",
"x  c #959395",
"c  c #979598",
"v  c #999799",
"b  c #9C9A9C",
"n  c #9F9DA0",
"m  c #A09FA1",
"M  c #A4A2A4",
"N  c #A7A6A8",
"B  c #A8A7A9",
"V  c #ADACAD",
"C  c #AFAEB0",
"Z  c #B0AFB1",
"A  c #B5B4B5",
"S  c #B7B6B8",
"D  c #B8B7B8",
"F  c #BBBABC",
"G  c #BFBEC0",
"H  c #C0BFC0",
"J  c #C4C3C4",
"K  c #C7C6C8",
"L  c #C8C7C8",
"P  c #CCCBCC",
"I  c #CFCFD0",
"U  c #D0CFD0",
"Y  c #D1D0D1",
"T  c #D1D1D2",
"R  c #D2D1D2",
"E  c #D3D2D3",
"W  c #D4D3D4",
"Q  c #D5D4D5",
"!  c #D5D5D6",
"~  c #D6D5D6",
"^  c #D3D3D4",
"/  c #D7D7D8",
"(  c #D8D7D8",
")  c #D8D7D8",
"_  c #D8D8D9",
"`  c #DADADA",
"'  c #DADADB",
"]  c #DBDADB",
"[  c #DCDCDD",
"{  c #DDDDDE",
"}  c #DFDEDF",
"|  c #DFDFDF",
" . c #DCDBDC",
".. c #DFDFE0",
"X. c #E0DFE0",
"o. c #E0E0E0",
"O. c #E1E1E1",
"+. c #E1E1E2",
"@. c #E2E1E2",
"#. c #E2E2E3",
"$. c #E5E5E5",
"%. c #E6E6E7",
"&. c #E7E7E7",
"*. c #E3E3E4",
"=. c #E8E8E8",
"-. c #EBEAEB",
";. c #ECECED",
":. c #EFEEEF",
">. c #EFEFEF",
",. c #EBEBEB",
"<. c #F0F0F0",
"1. c #F1F0F1",
"2. c #F1F1F1",
"3. c #F2F1F2",
"4. c #F2F2F2",
"5. c #F3F3F3",
"6. c #F3F3F4",
"7. c #F4F3F4",
"8. c #F4F4F4",
"9. c #F5F5F5",
"0. c #F6F5F6",
"q. c #F6F6F6",
"w. c #F7F7F7",
"e. c #F2F2F3",
"r. c #F8F7F8",
"t. c #F8F7F8",
"y. c #F8F8F8",
"u. c #F9F9F9",
"i. c #FAFAFA",
"p. c #FBFBFB",
"a. c #FBFBFC",
"s. c #FCFBFC",
"d. c #FCFCFC",
"f. c #FCFCFD",
"g. c #FDFDFD",
"h. c #FEFEFE",
"j. c #FFFFFF",
"k. c #FFFFFF",
/* pixels */
"j.j.0 o O O 5 0.j.j.j.i o O O O O # K j.j.j.j.j.@.> O O O O O 4 0.0.3 o O O O O > @.j.j.j.j.j.H # O O O O o p j.j.j.0.5 o O O O O O ",
"j.0.0 O + O 5 :.j.j.j.i o O + + + % K j.j.j.j.j.@., O + + + O 4 0.0.3 o O + + O > @.j.j.j.j.j.F # + + + + O s j.j.j.:.5 O + + + + + ",
"q w v S S S m w t @.j.i . 6 S S S S i 0 Z j.U w e N S S S S S K j.0.4 o p S S S N e w U j.V 0 p S S S S S S Q j.| t w m S S S S S S ",
"o O F j.j.j.P # % Q j.i X < g g g s - . k j.F O * | j.j.j.j.j.j.j.0.4 X m j.j.j.| * O F j.j . - s g g g g f S j.Q % # P j.j.j.j.j.j.",
"O + i v v v s @ & Q j.i o O . . . . O O l j.F + - | j.j.j.j.j.j.j.0.4 o v j.j.j.| - + F j.j O O . . . . .   i j.Q & @ s v v v v v v ",
"O O o X X X o O & Q j.i X ; w w w 0 & . k j.F O * | j.j.j.j.j.j.j.0.4 o m j.j.j.| * O F j.j . & 0 w w w w 0 m j.Q & O o X X X X X X ",
"O O > 4 4 4 , O & Q j.i . 9 L P P K e 1 M j.P 4 7 F P P P P P ( j.0.4 o h Q P P S 7 4 P j.m 1 t K P P P P L | j.Q & O , 4 4 4 4 4 4 ",
"O + V 0.0.0.F # & Q j.i X @ % % % * F 0.r.j.j.0.| 1 # % % % # 6 0.0.4 O # % % % 1 | 0.j.j.0.0.S & % % % % # s j.Q % # F 0.0.0.0.0.0.",
"% & F j.j.j.P * ; / j.a # % % % % * L j.j.j.j.j.=.1 # % % % # 6 0.0.6 # % % % # 1 =.j.j.j.j.j.K & % % % % # s j.Q - * P j.j.j.j.j.j.",
"P P :.j.j.j.0.P I 0.j.| P P P P P P 0.j.j.j.j.j.j.Q P P P P P Q j.j.Q P P P P P Q j.j.j.j.j.j.0.P P P P P P X.j.0.P P 0.j.j.j.j.j.j.",
"j.j.j.j.j.j.j.j.j.j.j.j.j.j.j.j.j.j.j.j.j.j.j.j.j.j.j.j.j.j.j.j.j.j.j.j.j.j.j.j.j.j.j.j.j.j.j.j.j.j.j.j.j.j.j.j.j.j.j.j.j.j.j.j.j.j.",
"j.j.j.j.j.j.j.j.j.j.j.j.j.j.j.j.j.j.j.j.j.j.j.j.j.j.j.j.j.j.j.j.j.j.j.j.j.j.j.j.j.j.j.j.j.j.j.j.j.j.j.j.j.j.j.j.j.j.j.j.j.j.j.j.j.j.",
"j.j.S c v v v v m :.j.G x F j.j.j.j.Z x P j.@.v v v @.j.K c v V j.j.j.j.j.j.| v M 0.j.j.j.P x S j.j.j.j.F x K j.:.v v @.j.j.j.j.j.j.",
"j.j.9 . X X X . % Q j.u . t j.j.j.0.5 . k j.F O X # P j.s . . 2 0.j.j.j.j.j.V X ; :.j.j.j.j . 7 0.j.j.j.t . p j.Q % # P j.j.j.j.j.j.",
"P P y 2 2 2 3 2 7 | j.u . y j.j.j.0.6 X l j.P 4 2 5 V Q g 2 2 y 0.j.j.j.j.j.F 2 9 F Q 0.j.j . 7 j.j.j.j.y . p j.Q & # P j.j.j.j.j.j.",
"% & Z 0.<.<.0.0.0.j.j.g * i @.@.@.| 4 X k j.j.0.0.@.6 # x 0.0.0.j.j.j.j.j.j.j.0.Q > & H j.j . 5 | @.@.@.i = h j.Q & # P j.j.j.j.j.j.",
"O + S j.j.j.j.0.0.j.j.:.@.m ; ; ; - # O l j.j.j.j.0.5 . x j.j.j.j.j.j.j.j.j.j.j.| - + F j.j o # - ; ; ; m @.:.j.Q & # P j.j.j.j.j.j.",
"O + S j.j.j.Q 5 7 | j.j.j.B O O O O O O l j.j.j.j.0.5 X x j.j.j.j.j.j.j.j.j.j.j.| - @ F j.j o O O O O O B j.j.j.Q & # P j.j.j.j.j.j.",
"O + S j.j.j.P # & Q j.v 0 s S S S V , X l j.j.j.j.0.5 X x j.j.j.j.j.j.j.j.j.j.j.| * O F j.k X 1 V S S S s 0 m j.Q % # P j.j.j.j.j.j.",
"v v g s s s e + & Q j.y   t j.j.j.j.6 X l j.( s s p = O 5 s s x 0.0.x s s s s s s x v @.j.k . 7 j.j.j.j.t   p j.:.m x f s s s s s s ",
"j.j.9   . . . X & Q j.y   t j.j.j.0.5 . k j.F O . . X o X . . 1 0.0.1 . . . . . ; :.j.j.j.j . 6 0.j.j.j.t   p j.j.j.0.3 . . . . . . ",
"j.j.k 0 w w w q y @.j.v 9 v j.j.j.t.h 0 S j.Q e w w w w w w 0 g 0.0.g 0 w w w 0 p :.j.j.j.V 0 j j.j.j.j.v 9 n j.j.j.0.h 0 w w w w w ",
"j.j.j.j.j.j.j.j.j.j.j.j.j.j.j.j.j.j.j.j.j.j.j.j.j.j.j.j.j.j.j.j.j.j.j.j.j.j.j.j.j.j.j.j.j.j.j.j.j.j.j.j.j.j.j.j.j.j.j.j.j.j.j.j.j.j.",
"j.j.j.j.j.j.j.j.j.j.j.j.j.j.j.j.j.j.j.j.j.j.j.j.j.j.j.j.j.j.j.j.j.j.j.j.j.j.j.j.j.j.j.j.j.j.j.j.j.j.j.j.j.j.j.j.j.j.j.j.j.j.j.j.j.j.",
"j.j.0.<.0.0.0.j.j.j.j.j.j.j.0.0.<.0.j.j.j.j.j.j.j.0.0.0.0.0.j.j.j.j.j.j.0.0.0.0.0.j.j.j.j.j.j.j.0.<.0.0.j.j.j.j.j.j.j.0.0.0.0.0.j.j.",
"j.j.s 2 4 2 y 0.j.j.j.j.j.F 3 3 2 5 U j.j.j.j.j.:.w 2 3 2 x j.j.j.j.j.j.z 2 3 2 w :.j.j.j.j.j.P 5 3 3 3 F j.j.j.j.j.0.u 2 4 2 g j.j.",
"j.j.9 . O . 4 0.j.j.j.j.j.B X X X + K j.j.j.j.j.@.; . X . s j.j.j.j.j.j.p . X . ; @.j.j.j.j.j.H O X X X B j.j.j.j.j.0.4 . X . w j.j.",
"s s k 6 o 2 k s h @.j.V s h v v v x g s F j.| s s x v v v j s x 0.0.x s k v v v x s s | j.F s g x v v v h s Z j.@.h s z v v v k s s ",
"o O F g . y P # % Q j.y   y j.j.j.j.5 . k j.F O * | j.j.j.v . 2 0.0.2 . M j.j.j.@.* O F j.j . 6 j.j.j.j.t   p j.Q % # P j.j.j.S O o ",
"O + F s . t K # & Q j.i . y j.j.j.0.6 X l j.F + - | j.j.j.v X 4 0.0.4 o p S S S v & @ F j.j . 7 :.F S :.y . p j.Q & # z S S S g O O ",
"O @ F s . t L # & Q j.i . y j.j.j.0.6 X l j.F + * | j.j.j.v X 3 0.0.4 O O O O O O O + F j.j . 8 Q - % K u . p j.Q & O O + + + O O O ",
"O @ F s . t L % & Q j.i . y j.j.j.0.6 X l j.K ; 1 L @.@.@.x = 0 0.0.4 O & - - - - - > K j.j . 6 F & # V e . p j.Q & O * # O % - - - ",
"O + S s . t K # & Q j.i . y j.j.j.0.6 . l j.0.@.P 5 ; ; - s @.@.j.0.3 X k @.X.X.@.@.@.0.j.j o # - + O * % X p j.Q & # V 9 . y @.@.@.",
"+ # F g X y L % * Q j.i X y j.j.j.0.6 O z j.j.j.=., O + O s j.j.j.0.4 O m j.j.j.j.j.j.j.j.k O + O O O O + O s j.Q & % L r X s j.j.j.",
"S S :.Q S I :.F F 0.j.Q S U j.j.j.j.K S | j.j.j.0.H S S S Q j.j.j.j.K S @.j.j.j.j.j.j.j.j.| S S v & # k S S Q j.0.F F :.P S Q j.j.j.",
"j.j.j.j.j.j.j.j.j.j.j.j.j.j.j.j.j.j.j.j.j.j.j.j.j.j.j.j.j.j.j.j.j.j.j.j.j.j.j.j.j.j.j.j.j.j.j.j.| & @ K j.j.j.j.j.j.j.j.j.j.j.j.j.j.",
"j.j.j.j.j.j.j.j.j.j.j.j.j.j.j.j.j.j.j.j.j.j.j.j.j.j.j.j.j.j.j.j.j.j.j.j.j.j.j.j.j.j.j.j.j.j.j.j.:.k h | j.j.j.j.j.j.j.j.j.j.j.j.j.j.",
"j.j.P S S S S S F 0.j.Q S S L j.j.K S S | j.:.S F 0.j.j.j.| S K j.j.K S @.j.j.j.0.F S :.j.| S P 0.F F :.U S Q j.0.F S :.j.j.j.@.S S ",
"j.j.q O O O O O * Q j.i O O 7 j.:., O O z j.F # - | j.j.j.v O 4 0.0.4 O m j.j.j.| - # F j.k O 9 Q - % K i X a j.Q & % P j.j.j.S # + ",
"@.| t ; : : : ; 2 | j.g - - w | U 5 ; - v j.F + - | j.j.j.v X 4 0.0.4 X v j.j.j.| - + F j.j . 8 Q * # K y . p j.Q % # P j.j.j.S O O ",
"- ; M ( Q Q Q Q | j.j.:.@.@.S : 1 K @.@.0.j.F + - | j.j.j.v X 4 0.0.3 X v j.j.j.| - @ F j.k . 8 Q * # K u . p j.Q - * K 0.0.0.V % % ",
"O O > 5 4 4 4 4 9 | j.j.j.j.K @ & | j.j.j.j.F + - | j.j.j.v X 4 0.0.3 X v j.j.j.| - @ F j.j . 8 Q * # K u . p j.0.I K e 4 4 3 i P P ",
"O O X X X X X o & Q j.j.j.j.H # * | j.j.j.j.F + - | j.j.j.v X 4 0.0.3 X v j.j.j.| - @ F j.j . 8 Q * # K u . p j.j.j.0.4 . X . w j.j.",
"v v v v v v s O & Q j.j.j.j.H @ * | j.j.j.j.F + - | j.j.j.v . 2 0.0.2 . v j.j.j.| * O F j.j . 7 Q * # K y   p j.@.h s k x x x k s s ",
"v v v v v v x s h @.j.j.j.j.H # * | j.j.j.j.F @ % h v v v j s x 0.0.x s k v v v x s s | j.F s g g % + a h s C j.U # @ P j.j.j.S O o ",
"X X X X o . 4 0.j.j.j.j.j.j.F + & ( j.j.j.j.F + o X X X . s j.j.j.j.j.j.p . X . ; @.j.j.j.j.j.H + o O X B j.j.j.Q % # L j.j.j.S O O ",
"3 3 4 4 4 2 u 0.j.j.j.j.j.j.P 5 7 @.j.j.j.j.P 5 3 3 3 3 2 x j.j.j.j.j.j.z 2 3 2 w :.j.j.j.j.j.P 5 3 3 3 F j.j.j.| 6 5 Q j.j.j.K 4 3 ",
">.<.0.0.0.0.0.j.j.j.j.j.j.j.j.0.0.j.j.j.j.j.j.0.0.0.0.0.0.0.j.j.j.j.j.j.0.0.0.0.0.j.j.j.j.j.j.j.0.0.<.<.j.j.j.j.j.0.0.j.j.j.j.j.0.0.",
"j.j.j.j.j.j.j.j.j.j.j.j.j.j.j.j.j.j.j.j.j.j.j.j.j.j.j.j.j.j.j.j.j.j.j.j.j.j.j.j.j.j.j.j.j.j.j.j.j.j.j.j.j.j.j.j.j.j.j.j.j.j.j.j.j.j.",
"j.j.j.j.j.j.j.j.j.j.j.j.j.j.j.j.j.j.j.j.j.j.j.j.j.j.j.j.j.j.j.j.j.j.j.j.j.j.j.j.j.j.j.j.j.j.j.j.j.j.j.j.j.j.j.j.j.j.j.j.j.j.j.j.j.j.",
"w w P j.j.j.| e y @.j.v 0 w w w w e Q j.j.j.j.j.:.p q w 0 M j.j.j.0.g 0 0 M j.j.j.j.j.j.j.V 0 w w w w w K j.j.j.| t w w w w 0 z j.j.",
"o O S j.j.j.L # % Q j.y   . . . . + K j.j.j.j.j.:.- . .   s j.j.j.0.1 . . s j.j.j.j.j.j.j.h . . . . . . B j.j.j.U # . . . .   0 j.j.",
"o O S j.j.j.P # & Q j.V s s s s s s z v P j.@.v x s s s s h v V j.0.x s s h v C j.j.j.j.j.F s s s s s s k v K j.@.h s s s s s h v v ",
"w w v S S S z # & Q j.Q S S S S S V , . k j.F O * | j.j.j.v . 2 0.j.j.j.j.x . 4 0.j.j.j.j.| S S S S S S 6 . p j.0.F S S S S S g O O ",
"j.0.0 O O O O O & Q j.p O + O O O O O o k j.F @ - | j.j.j.v X 4 0.j.j.j.j.x X 5 0.j.j.j.j.k O + O O O O O X p j.Q & O O O O O O O O ",
"j.j.i - ; ; = O & Q j.i X # ; ; ; ; ; - v j.F + = | j.j.j.v X 3 0.j.j.j.j.x X 5 0.j.j.j.j.j X # ; ; ; ; ; - h j.Q 1 ; ; ; ; ; * O O ",
"0.:.| Q Q Q N # & Q j.s # e Q Q Q Q Q Q :.j.H & > Q 0.0.0.x # 6 0.j.0.:.0.k X 4 @.0.0.j.j.z # 6 P Q Q Q Q Q @.j.0.Q Q Q Q Q Q v & % ",
"3 3 4 4 4 4 , O & Q j.@.U v 4 4 4 4 4 2 M j.0.U F 9 2 3 2 s P ( j.0.t 2 3 - O # 2 3 4 P j.@.U B 5 4 4 4 4 2 z j.| 7 4 4 4 4 2 i P P ",
"X X X X X X o O & Q j.j.j.B X X X X X . k j.j.j.:.; . X . s j.j.j.0.2 . X o O O X X O F j.j.j.H + X X X X . p j.Q # X X X X . w j.j.",
"v v v v v v v v m :.j.j.j.| v v v v v v P j.j.j.0.M v v v K j.j.j.j.V c v v v v v v v @.j.j.j.@.v v v v v c K j.:.n v v v v c S j.j.",
"j.j.j.j.j.j.j.j.j.j.j.j.j.j.j.j.j.j.j.j.j.j.j.j.j.j.j.j.j.j.j.j.j.j.j.j.j.j.j.j.j.j.j.j.j.j.j.j.j.j.j.j.j.j.j.j.j.j.j.j.j.j.j.j.j.j.",
"j.j.j.j.j.j.j.j.j.j.j.j.j.j.j.j.j.j.j.j.j.j.j.j.j.j.j.j.j.j.j.j.j.j.j.j.j.j.j.j.j.j.j.j.j.j.j.j.j.j.j.j.j.j.j.j.j.j.j.j.j.j.j.j.j.j.",
"P P :.j.j.j.0.P P 0.j.j.j.:.P P P P P P @.j.j.j.j.Q P P P P P Q j.j.Q P P P P P Q j.j.j.j.j.j.0.P P P P :.j.j.j.0.P P P P P P | j.j.",
"% & F j.j.j.P * ; Q j.j.j.V % % % % % # x j.j.j.:.1 # % % % # 6 0.0.6 # % % % # 1 :.j.j.j.j.j.K & % % % V j.j.j.Q - % % % % # t j.j.",
"O + S j.j.j.P # & Q j.0.0.M % % % % % # x j.j.0.| 1 # % % % # 6 0.0.6 # % % % % 1 | 0.j.j.r.0.S & % % % M 0.0.j.Q & O # % % # e :.0.",
"+ # S j.j.j.K # & Q j.k 1 p P P P P P P @.j.P 4 7 S P P P P P Q j.j./ P P P P P F 7 4 P j.m 1 t K P P P p 1 z j.Q & # m P P P v 4 4 ",
"S S s w w e 6 + & Q j.u . ; e e e e e e S j.F O @ 7 w w w w 0 g 0.j.j.j.j.j.j.j.| * O F j.j . & e e e e - . p j.Q & + 7 e e e 5 O O ",
"j.j.9   . . X O & Q j.y . X . . . . X . k j.F # O . . . . X . 2 <.j.j.j.j.j.j.j.| - + F j.j O O . . . . O o p j.Q % X . . . . X O O ",
"j.j.M s s s e + & Q j.Z f g g g g s - . k j.F O # i g g h 7 o 4 0.j.j.j.j.j.j.j.| - + F j.j . - s g g g , . p j.@.j g g g g h 0 O o ",
"j.j.j.j.j.j.P # & Q j.Q S S S S S S i 0 Z j.U w e B S S F i o 4 0.j.j.j.j.j.j.j.| - + F j.V 0 p S S S S s 9 v j.0.F S S S S F v q q ",
"j.j.j.j.j.j.P # & Q j.i O + + + + % K j.j.j.j.j.@., O + + O O 4 0.j.j.j.j.j.j.j.| - + F j.j.j.F # + + @ V j.j.j.Q & + + + + O e 0.j.",
"j.j.j.j.j.j.P # & Q j.i o O O O O # K j.j.j.j.j.@.> O O O O O 4 0.j.j.j.j.j.j.j.| - + F j.j.j.H # O O O V j.j.j.Q & O O O O o w j.j."
};
