/* XPM */
static char *_a10387e11a14dba992c1f6d95823e0bRHs5Xo3djKi9CUxv[] = {
/* columns rows colors chars-per-pixel */
"72 72 256 2 ",
"   c black",
".  c #010101",
"X  c #020202",
"o  c gray1",
"O  c #040404",
"+  c gray2",
"@  c #060606",
"#  c #070707",
"$  c gray3",
"%  c #090909",
"&  c gray4",
"*  c #0B0B0B",
"=  c #0C0C0C",
"-  c gray5",
";  c #0E0E0E",
":  c gray6",
">  c #101010",
",  c #111111",
"<  c gray7",
"1  c #131313",
"2  c gray8",
"3  c #151515",
"4  c #161616",
"5  c gray9",
"6  c #181818",
"7  c #191919",
"8  c gray10",
"9  c #1B1B1B",
"0  c gray11",
"q  c #1D1D1D",
"w  c #1E1E1E",
"e  c gray12",
"r  c #202020",
"t  c gray13",
"y  c #222222",
"u  c #232323",
"i  c gray14",
"p  c #252525",
"a  c gray15",
"s  c #272727",
"d  c #282828",
"f  c gray16",
"g  c #2A2A2A",
"h  c gray17",
"j  c #2C2C2C",
"k  c #2D2D2D",
"l  c gray18",
"z  c #2F2F2F",
"x  c gray19",
"c  c #313131",
"v  c #323232",
"b  c gray20",
"n  c #343434",
"m  c #353535",
"M  c gray21",
"N  c #373737",
"B  c gray22",
"V  c #393939",
"C  c #3A3A3A",
"Z  c gray23",
"A  c #3C3C3C",
"S  c gray24",
"D  c #3E3E3E",
"F  c #3F3F3F",
"G  c gray25",
"H  c #414141",
"J  c gray26",
"K  c #434343",
"L  c #444444",
"P  c gray27",
"I  c #464646",
"U  c gray28",
"Y  c #484848",
"T  c #494949",
"R  c gray29",
"E  c #4B4B4B",
"W  c #4C4C4C",
"Q  c gray30",
"!  c #4E4E4E",
"~  c gray31",
"^  c #505050",
"/  c #515151",
"(  c gray32",
")  c #535353",
"_  c gray33",
"`  c #555555",
"'  c #565656",
"]  c gray34",
"[  c #585858",
"{  c gray35",
"}  c #5A5A5A",
"|  c #5B5B5B",
" . c gray36",
".. c #5D5D5D",
"X. c gray37",
"o. c #5F5F5F",
"O. c #606060",
"+. c gray38",
"@. c #626262",
"#. c gray39",
"$. c #646464",
"%. c #656565",
"&. c gray40",
"*. c #676767",
"=. c #686868",
"-. c DimGray",
";. c #6A6A6A",
":. c gray42",
">. c #6C6C6C",
",. c #6D6D6D",
"<. c gray43",
"1. c #6F6F6F",
"2. c gray44",
"3. c #717171",
"4. c #727272",
"5. c gray45",
"6. c #747474",
"7. c gray46",
"8. c #767676",
"9. c #777777",
"0. c gray47",
"q. c #797979",
"w. c gray48",
"e. c #7B7B7B",
"r. c #7C7C7C",
"t. c gray49",
"y. c #7E7E7E",
"u. c gray50",
"i. c #808080",
"p. c #818181",
"a. c gray51",
"s. c #838383",
"d. c #848484",
"f. c gray52",
"g. c #868686",
"h. c gray53",
"j. c #888888",
"k. c #898989",
"l. c gray54",
"z. c #8B8B8B",
"x. c gray55",
"c. c #8D8D8D",
"v. c #8E8E8E",
"b. c gray56",
"n. c #909090",
"m. c gray57",
"M. c #929292",
"N. c #939393",
"B. c gray58",
"V. c #959595",
"C. c gray59",
"Z. c #979797",
"A. c #989898",
"S. c gray60",
"D. c #9A9A9A",
"F. c #9B9B9B",
"G. c gray61",
"H. c #9D9D9D",
"J. c gray62",
"K. c #9F9F9F",
"L. c #A0A0A0",
"P. c gray63",
"I. c #A2A2A2",
"U. c gray64",
"Y. c #A4A4A4",
"T. c #A5A5A5",
"R. c gray65",
"E. c #A7A7A7",
"W. c gray66",
"Q. c #A9A9A9",
"!. c #AAAAAA",
"~. c gray67",
"^. c #ACACAC",
"/. c gray68",
"(. c #AEAEAE",
"). c #AFAFAF",
"_. c gray69",
"`. c #B1B1B1",
"'. c #B2B2B2",
"]. c gray70",
"[. c #B4B4B4",
"{. c gray71",
"}. c #B6B6B6",
"|. c #B7B7B7",
" X c gray72",
".X c #B9B9B9",
"XX c gray73",
"oX c #BBBBBB",
"OX c #BCBCBC",
"+X c gray74",
"@X c gray",
"#X c gray75",
"$X c #C0C0C0",
"%X c #C1C1C1",
"&X c gray76",
"*X c #C3C3C3",
"=X c gray77",
"-X c #C5C5C5",
";X c #C6C6C6",
":X c gray78",
">X c #C8C8C8",
",X c gray79",
"<X c #CACACA",
"1X c #CBCBCB",
"2X c gray80",
"3X c #CDCDCD",
"4X c #CECECE",
"5X c gray81",
"6X c #D0D0D0",
"7X c gray82",
"8X c #D2D2D2",
"9X c LightGray",
"0X c gray83",
"qX c #D5D5D5",
"wX c gray84",
"eX c #D7D7D7",
"rX c #D8D8D8",
"tX c gray85",
"yX c #DADADA",
"uX c gray86",
"iX c gainsboro",
"pX c #DDDDDD",
"aX c gray87",
"sX c #DFDFDF",
"dX c gray88",
"fX c #E1E1E1",
"gX c #E2E2E2",
"hX c gray89",
"jX c #E4E4E4",
"kX c gray90",
"lX c #E6E6E6",
"zX c #E7E7E7",
"xX c gray91",
"cX c #E9E9E9",
"vX c #EAEAEA",
"bX c gray92",
"nX c #ECECEC",
"mX c gray93",
"MX c #EEEEEE",
"NX c #EFEFEF",
"BX c gray94",
"VX c #F1F1F1",
"CX c gray95",
"ZX c #F3F3F3",
"AX c #F4F4F4",
"SX c gray96",
"DX c #F6F6F6",
"FX c gray97",
"GX c #F8F8F8",
"HX c #F9F9F9",
"JX c gray98",
"KX c #FBFBFB",
"LX c gray99",
"PX c #FDFDFD",
"IX c #FEFEFE",
"UX c white",
/* pixels */
"UXPXUXUXUXLXUXUXUXUXUXIXUXLXIXUXUXPXIXUXIXUXUXUXUXIXUXUXUXPXUXUXIXUXUXUXUXUXUXUXUXUXIXIXUXIXUXIXUXPXUXUXIXUXIXUXIXUXIXPXUXUXUXPXUXUXUXUXUXUXUXUX",
"IXUXUXUXKXUXUXPXPXUXUXLXUXUXUXUXUXUXUXIXUXUXPXUXUXUXIXUXUXUXUXIXUXUXIXLXUXPXUXUXIXUXUXUXPXUXLXUXUXUXIXPXUXPXUXUXUXPXIXUXIXIXPXUXUXUXUXUXUXUXUXUX",
"UXLXIXIXUXLXUXUXUXIXUXUXUXIXIXIXPXUXUXIXUXUXUXUXUXUXUXPXUXUXIXUXKXUXUXIXUXUXUXIXUXPXUXUXUXKXUXPXLXUXUXUXUXIXUXUXUXUXIXUXIXUXUXUXUXUXUXUXUXUXUXUX",
"IXUXUXIXUXUXLXKXKXKXLXKXJXKXLXPXPXLXPXKXGXLXPXIXJXPXJXPXPXJXKXHXPXGXLXHXKXLXLXUXKXKXLXJXPXUXUXUXUXPXPXPXUXIXPXIXPXLXUXUXUXIXUXIXUXUXUXUXUXUXUXUX",
"UXLXUXUXUXUXIXUXUXUXPXUXUXPXUXIXUXIXIXUXUXUXLXUXIXUXUXIXUXUXUXIXUXUXUXUXUXUXIXPXUXLXUXUXIXUXPXUXUXPXUXUXPXUXUXIXUXUXUXIXIXUXUXUXUXUXUXUXUXUXUXUX",
"UXUXPXUXIXUXzX .~ ` U I.L.T ) I G.lX' / [ U R.F.! _ Y U.sXQ ( ` J !.N.I ` Q $.&X' { _ P R.~.CXLXIX(.!.:XUXHXIXFXH.JXUXUXPXIXIXUXUXUXUXUXUXUXUXUX",
"UXUXUXUXLXUX;XP Q.U.y.:.=.p.T.U.| M.R A.z.u.:X| 5.n.c.' v.} ~.J.A.4X} x.U.A.}.F.Y C.F.F.1X+.VXIXUX7.0.G.UXPXUXZX| UXPXIXIXIXUXIXUXUXUXUXUXUXUXUX",
"UXIXUXPXPXUX1Xx >.-.R <.=.Y &.%.F f.v.PXPXUXIX$.zXUXUXr.s.V :.@.' '.[ ` *.O.y.B.Z.UX8.' #X^ G ` R J j.z.~.PXPXBXX.JXUXUXUXUXUXUXUXUXUXUXUXUXUXUX",
"IXUXPXUXIXIX<XG B.B.<.>.,.i.P.Y.' p.z.UXLXLXUX@.lXUXUXe.t.o.T.H.B.7X] r.m.j.R.A.V.IX'.*.y.O.i.V.b.` g.a.5.UXUXCXX.IXPXUXUXUXIXUXUXUXUXUXUXUXUXUX",
"UXIXUXPXPXIX*X4.UXUXqX6.@.V | ^ ) ^.e I K c G.} g K N ! Q.i  .' T I.,.vXUXKXUXQ.3 T [ c t.<.VXPXUX5.e.z.A B G M S IXUXIXUXUXIXPXUXUXUXUXUXUXUXUX",
"UXUXUXIXIXUXcXrXUXKXVXwX5XI.Y.H.0XBXQ.R.W.L.6X7XY.~.I.tXCXR.U.T.D.7XeXAXLXHXUXcXW.E.U.U.yXwXSXPXPXeXtXdX.XT.~.Y.=XUXIXUXUXUXUXUXUXUXUXUXUXUXUXUX",
"PXUXPXUXUXIXUXIXIXUXPXUXUXIXUXUXIXUXUXUXUXUXUXPXIXPXUXLXUXUXKXUXUXUXLXUXUXUXUXPXUXUXUXIXUXUXIXUXIXUXPXUXUXUXIXPXIXUXUXUXPXUXUXLXUXUXUXUXUXUXUXUX",
"UXIXUXPXIXUXUXLXUXUXUXKXIXKXJXJXPXIXJXKXLXLXPXIXLXUXPXJXIXKXIXPXLXLXIXPXUXPXIXUXKXHXLXPXLXIXUXUXPXUXIXUXLXKXPXPXPXUXIXUXPXUXUXUXUXUXUXUXUXUXUXUX",
"IXIXUXIXUXLXLXUXUXLXLXKXPXIXUXUXUXLXUXPXUXPXIXKXPXPXUXUXPXPXHXLXHXIXLXPXLXPXKXPXIXKXJXLXPXPXHXIXKXKXJXKXJXPXGXIXLXLXFXKXLXIXUXUXUXUXUXUXUXUXUXUX",
"UXUXPXUXUXIXUXIXIXIXUXIXUXPXUXUXUXUXLXPXUXUXUXPXUXPXUXUXKXUXUXPXUXPXUXIXPXPXUXUXPXUXLXUXPXUXUXPXUXPXUXUXUXIXUXPXUXIXUXUXPXUXIXUXUXUXUXUXUXUXUXUX",
"IXUXUXUXIXUXkX#XUXPX9X).=XNXPXPXUXpXoXUXIXyX#X|.pXUXPX=X5Xf.w.u.7.,X_.4.e.8.N.qXi.t.y.0.3X!.4.e.7.Z.8Xe.9.e.3.%XD.8.l.e.v.JXUXIXUXUXUXUXUXUXUXUX",
"UXUXUXUXKXUX@X4.UXkXt _.2.yXUXKXUX.X0 FXIX..:.` t CXPX7.p.N =.*.Z t.X.@.r.8.Y h.n -.*.m i.[ *.w.4.T h.L i.q.;.@Xs.[ y { 8.KXUXUXUXUXUXUXUXUXUXUX",
"UXIXPXUXIXUX7Xb f.h I.UX#.yXUXDXIX;XX E.HX* 4.a.,.M UXa.8.A.IXIX&Xe.@.r.n.v.^ p.D.UXUXXXy.O.t.v.C.' d.! Z.f.z.9XIXFX#.SXUXUXLXUXUXUXUXUXUXUXUXUX",
"IXUXUXUXKXPX2Xv 6.y ^.UXO.aXUXLXUXOX) @.e.^ l.,.MXy.T p.e.B.UXUX&Xu.o.^ &...z.V.M.UXzX_ j.} ( 2.x ' iXy.8.a.E d.UXMX| VXPXKXUXPXUXUXUXUXUXUXUXUX",
"UXIXUXUXPXUX%X1.UXgXq }.&.T %...9.M.C.3.8 }.8.2.sXUX3.; M.n &.*.A 8.1.xXUXIXPXE.l 1.E   y.>.mXIX,X-.tX>.w.u.T h.UXAX..FXUXUXUXUXUXUXUXUXUXUXUXUX",
"UXPXUXIXUXUXgX&XUXUXqX(.oX8.t.t.a.,X9XsX}.BX%X#XmXIXLX^.8Xa.t.y.0.=X#XBXLXAXUXaXy.w.f.c.;X@XDXLXSX{.>X4.w.w.7.1XUXHX}.HXPXUXUXUXUXUXUXUXUXUXUXUX",
"UXIXUXUXLXIXUXLXUXPXPXUXIXIXUXLXUXUXIXUXLXUXIXUXUXUXPXLXIXUXUXUXUXUXIXUXUXUXUXPXIXIXUXPXUXUXLXUXUXLXUXUXIXUXIXUXUXUXUXUXUXUXPXUXUXUXUXUXUXUXUXUX",
"UXUXIXUXUXUXPXUXUXUXIXLXIXKXJXPXKXJXUXPXLXUXKXPXUXIXUXUXLXHXJXJXJXKXUXLXUXUXPXUXPXLXHXIXIXKXUXUXPXUXKXGXLXHXPXPXIXIXIXPXUXPXUXPXUXUXUXUXUXUXUXUX",
"UXUXUXPXUXUXLXPXUXUXPXPXUXLXUXPXIXLXLXUXLXPXIXUXIXLXUXPXUXUXLXIXIXUXIXLXIXJXIXLXKXPXUXKXLXPXLXLXUXLXUXUXUXUXPXUXUXUXIXUXIXUXUXUXUXUXUXUXUXUXUXUX",
"UXUXIXUXUXPXUXIXUXLXUXUXIXUXUXPXUXPXUXUXHXUXUXIXIXUXPXPXPXUXPXUXIXUXUXPXUXPXUXUXUXPXUXUXIXUXUXIXUXUXIXUXUXUXUXUXUXUXUXUXUXUXUXUXUXUXUXUXUXUXUXUX",
"IXUXIXPXIXUXbXtXIXUXZXwX3XZXLXUX0X8XiXNXwXMX9XBX8X:XxXUXUX:XrXaXUXKXnXtX:XI.E.{.(.AXLX8XI.E.T.Q.MXPXPXUXLXUXLXUXUXUXUXUXUXUXUXUXUXUXUXUXUXUXUXUX",
"PXUXUXUXIXLX%X4.IXIX0X9.7.z.UXlXG .XT 9XE =.b.V.r.P.c UXF.Z ~.i.UXUX<Xq.d.k ( & N SXUXS.x ~ { p `.UXJXUXUXUXUXIXUXUXUXUXUXUXUXUXUXUXUXUXUXUXUXUX",
"UXIXIXIXIXUX*X3.UXUX9X2.iXM IXl.,.PX_ '.p.5 nXA pXPXa.v J SX@XU !.K.0.1.IXUX!.V mXUXPXUXUX@XOX ./.UXJXUXUXIXPXPXUXUXUXUXUXUXUXUXUXUXUXUXUXUXUXUX",
"UXIXUXUXPXUX%X0.IXUXeX=.UX .S.W qXIX+X' z.N C.&.IXUX=X   .UXpX| ' #.A -.UX[.B xXIXIXUXLXUX:.A S eXkX$XUXIXIXUXIXUXUXUXUXUXUXUXUXUXUXUXUXUXUXUXUX",
"UXPXUXPXKXUX<XA V.b.1. .IX4X  2.UXKXUX) 9 ! & yXIX@X0 sX+.{ nXZ.F.R.3.5.2X  :.Z.A.E.R IXIX_ :XUXPXb.I UXKXPXPXUXUXUXUXUXUXUXUXUXUXUXUXUXUXUXUXUX",
"UXLXUXIXUXUXkX..( { Q Z.UXUXf.wXIXPXLX&XS.wXk.IXUXv.+XIXZXh..X_ _ / Y `.F.}  .~ %.{.s.UXUX5.4XUXUX3XO.LXHXUXUXIXUXUXUXUXUXUXUXUXUXUXUXUXUXUXUXUX",
"UXUXPXUXUXPXUXUXUXPXUXUXIXIXUXPXUXUXUXUXIXPXUXIXIXUXIXIXLXUXUXIXIXUXPXPXUXUXUXUXUXUXPXUXUXUXUXLXIXvXY.UXUXIXIXUXUXUXUXUXUXUXUXUXUXUXUXUXUXUXUXUX",
"UXIXUXUXUXLXUXJXLXHXLXPXIXUXLXIXUXIXUXPXLXIXPXUXIXIXPXIXUXLXUXJXJXPXJXPXIXJXHXPXPXLXIXLXUXPXIXUXUXIXUXLXUXUXPXUXIXUXIXPXUXUXPXUXUXUXUXUXUXUXUXUX",
"UXUXUXPXPXUXIXIXPXLXKXUXJXKXIXPXPXUXPXLXPXIXJXIXPXJXLXIXPXLXPXPXPXHXPXIXHXLXUXLXKXLXLXUXPXIXUXUXUXPXJXUXIXUXUXUXIXUXUXUXLXUXUXIXUXUXUXUXUXUXUXUX",
"UXUXIXUXUXIXPXUXLXUXIXLXUXUXUXUXIXUXPXUXUXUXUXUXUXUXUXPXUXPXUXUXUXUXUXUXUXUXLXUXUXUXUXPXUXIXIXIXUXUXIXUXUXUXIXPXUXUXIXIXUXUXUXUXUXUXUXUXUXUXUXUX",
"IXUXIXUXUXIXJX;X$X#XOXgXpX#X$XoXfXGX;X=X*XoXsXsX+X*X#XlXFX%X%X@XXXsXtX+X%X@X-XnX;X$X*XoXsXhXKXIXUXgXkXbXIXUXUXPXdXLXUXIXUXUXJXUXUXUXUXUXUXUXUXUX",
"UXUXUXUXPXIX2X0 J H f ;.$.a L N ) ].1 n l t V.] w n p ( '.7 L G z I._ f H Z ] G.2 b F b F.-.VXPXPX0.9.K.UXJXPXAX| PXUXUXIXUXUXUXUXUXUXUXUXUXUXUX",
"UXUXKXUXLXUX,X' 8X;XF.>.<.J.-X,X$.t.x.IXUXLXUX#.jXUXUXr.q.4.2X@X.XaX ._.>XOXwXF.n.UX%X+XxX` (.#X#X@.0.D.cXJXUXMX| KXUXUXLXUXUXPXUXUXUXUXUXUXUXUX",
"UXPXUXUXPXPX9X8 m N e ,.&.x Y L x k.x.UXGXLXUX+.zXUXIXq.l.d E P m R.) u M k / c.C.UX$.0 g._ y N k M b.u.7.IXUXAX@.PXPXUXUXUXUXUXUXUXUXUXUXUXUXUX",
"UXUXIXUXPXUX@X4.UXPXqX2.-.n.].}.@.k.} `.Y.L.0X..b.W.!.o.g.+.+X(.Q.qX#.cXUXPXIXY.[ `.[.q.q.,.NXUXIX7.y.f.] W.E.S.Q IXUXUXIXUXPXUXUXUXUXUXUXUXUXUX",
"UXUXUXUXLXUXqXG.IXUXfXG.v.n K b k.aXD K K v S.z.n I n M.rXZ H J v G.S.NXIXKXUX>XZ J J M E.G.CXUXUXJ.Y.`.%.C K V 1.UXIXUXIXUXUXUXUXUXUXUXUXUXUXUX",
"UXUXLXUXUXUXPXUXUXPXUXUXLXUXUXIXUXIXUXPXUXIXUXUXIXPXUXUXPXUXUXPXIXUXUXIXUXIXIXIXUXUXUXUXIXJXUXUXUXUXIXUXIXIXUXUXUXUXUXIXPXUXIXUXUXUXUXUXUXUXUXUX",
"PXUXUXPXUXUXPXPXUXLXUXJXIXFXIXLXKXUXJXKXKXKXUXKXLXIXKXJXUXPXPXPXIXPXPXUXUXUXIXUXLXPXPXKXUXUXUXIXUXPXUXUXIXLXKXLXLXIXUXUXUXPXUXUXUXUXUXUXUXUXUXUX",
"IXPXUXUXUXUXUXPXUXIXUXUXIXUXIXIXUXUXUXIXUXUXJXUXUXLXUXUXPXIXKXIXJXUXIXIXIXPXIXPXPXIXUXIXLXPXPXPXKXIXPXUXLXPXUXPXUXUXPXUXUXUXIXUXUXUXUXUXUXUXUXUX",
"UXIXUXUXIXUXUXPXPXUXJXIXUXUXUXUXUXUXPXKXUXIXIXUXIXUXIXIXIXUXUXIXUXPXIXUXIXUXUXUXUXPXIXUXUXKXUXUXUXUXUXLXUXIXUXUXUXPXUXPXPXUXUXPXUXUXUXUXUXUXUXUX",
"UXPXLXUXIXIXJXDXUXPXJXmXDXKXUXIXUXHXSXUXIXHXFXCXKXUXIXZXGXlXkXxXjXAXZXjXjXzXvXGXkXzXzXlXZXAXgXhXhXbXGXcXkXhXhXCXUXIXPXUXUXKXUXUXUXUXUXUXUXUXUXUX",
"LXUXUXUXUXPX-Xe.IXIX*.a.t.pXUXJXUX.X~ PXUXN.7.o.3.UXUXa.b.e p f : k.X.9 x d m H.4 g s - b.' e x i S A.4 b k r J.UXHXUXUXLXUXUXPXUXUXUXUXUXUXUXUX",
"UXIXUXUXLXUX*X@.PXi.K IX$.iXIXHXIX&X. 4XUXt -.5.q l.PXw.9.g.LXSX(.0.;..X8X0X&.e.z.JXFX`.0.*.@X7XqX&.u.y.yX2X2XbXIXUXUXLXUXUXPXUXUXUXUXUXUXUXUXUX",
"UXIXUXUXLXUX0X< a > 9XUX$.aXUXLXUX%Xa e.XXw f.7.qXb P.v.9.V.UXIX$Xu.{ 7 z p G z.A.IXUXQ.p.^ 0 c 2 B E.a V A 0 N.IXLXIXUXUXUXUXUXUXUXUXUXUXUXUXUX",
"PXUXUXUXIXIX$X;.UXS.z FX$./.0X1XdXQ.a. .t V.y.:.jXMXn z k.3.iXeXZ.7.,.tXGXvXUXP.1.zXL.  p.<.pXIXH.4.HXXXOX4Xu.d.UXLXIXUXUXUXIXUXUXUXUXUXUXUXUXUX",
"UXLXUXUXKXUX2Xz.IXUXu.l.t.9 v a C D.^.~.X.rXz.j.hXPXyXR Q.f j k 8 n.h.bXIXUXIX@Xe h z 5 B.h.mXUXvX7.[.a v x r J.UXPXUXUXUXUXIXUXUXUXUXUXUXUXUXUX",
"UXIXPXPXUXUXUXIXIXPXUXKXUXUXJXUXUXUXUXPXUXIXLXUXUXUXUXPXIXUXUXUXIXUXPXUXPXJXUXUXUXUXUXUXPXUXUXKXUXPXKXLXPXUXLXUXUXPXUXUXUXUXIXUXUXUXUXUXUXUXUXUX",
"UXUXUXUXLXUXUXIXUXIXPXUXIXUXUXUXUXPXPXUXIXUXUXIXUXLXLXUXUXIXIXIXIXPXUXPXUXUXUXIXUXUXUXPXUXLXUXUXPXIXUXUXUXUXUXUXUXIXUXUXIXUXUXUXUXUXUXUXUXUXUXUX",
"UXIXLXUXPXUXUXUXIXUXIXUXUXPXUXLXPXUXUXIXUXPXUXIXIXUXUXUXUXPXUXUXUXUXUXPXIXUXPXUXPXIXLXIXPXUXLXUXUXUXUXUXLXLXUXPXUXIXUXUXIXUXUXUXUXUXUXUXUXUXUXUX",
"IXUXUXUXUXPXUXPXUXUXUXPXIXUXUXUXUXUXPXUXUXLXUXIXUXUXPXJXUXUXJXPXPXPXIXUXIXUXUXLXUXUXUXIXUXUXUXKXIXPXJXIXUXUXPXUXUXIXUXUXPXIXIXUXUXUXUXUXUXUXUXUX",
"UXIXPXUXUXUXIXUXUXUXUXUXIXUXUXUXUXLXUXPXIXUXLXIXLXPXIXUXPXPXLXIXUXPXUXJXUXLXPXUXUXIXUXUXIXPXPXUXPXLXUXUXIXUXIXIXUXIXUXIXLXIXIXIXUXUXUXUXUXUXUXUX",
"LXUXPXUXIXUXtXh k z w r.z.dXUXUXC.Z.9.UXIXW.v.w.8Xp.|.,.dX5.).) mXUX9.b.c.lXPXUXM.K.j h A 2 Q.qXQ.UXx.UX).L.IXh.4XUXPXPXPX( OXg.FXIXUXUXPXIXUXUX",
"UXPXUXIXIXIXGX0XI.) qXkX$.iXUXPX,.=XI 3XPXG 1XP.-.@X, -.*XD UXq.( C.M LXO.sXUXUX,.OX8XgX( V IXtXG 1.o.IXf 2 S $ ) UXGXUX~ :.UX[ HXPXIXUXUXUXUXUX",
"PXPXUXUXUXUXKXUX5X2.IXIX=.uXUXUX<.aXG.2.1XU UXFXS eXu .X%.E.PXUX)   jXUX) q n h 8 yXIXF.I GXIX,.2 . f +Xb.;.yX) P.UXUX[ | UXZX6.HXUXIXIXUXUXIXUX",
"UXUXPXUXIXUXUXPX,X=.IXIX$.5XVXPX*.>XUXI l |.UXUXZ.m d V ! IXIXP.J :.[ UXuX$XOX8X^ sX).9 kXZXKX<Xm Y  .ZXz 1 S - ^ UX$.^ UXLXZXl.ZXUXUXPXIXUXUXUX",
"UXUXUXIXUXPXJXUX7X6.PXUX} 4 g s 9 rXIXf.n IXIXUXSXr ).m G.IXrXx yXPX) m.r.e n l d .X< e c , N.9XM.PX3.UXB.u.IXO.-X!.L UXPXUXjXr NXPXUXIXUXUXIXUX",
"UXUXUXLXUXUXUXUXJXCXUXIXNXhXkXfXhXPXUXHXSXUXIXUXUXSXKXMXHXUXCXBXUXLXHXNXmXaXlXdXvXCXcXzXgXaXCXIXPXLXUXUXHXDXUXAXUXBXDXUXPXIXPXBXHXUXIXUXUXUXIXUX",
"UXIXIXUXUXLXUXIXUXIXIXIXUXUXLXUXUXIXUXPXUXIXUXUXUXLXIXUXIXUXIXUXPXUXLXIXUXUXIXUXUXUXUXPXUXUXPXUXIXIXPXPXKXUXLXUXPXUXJXUXUXPXUXUXUXUXIXUXUXIXUXUX",
"IXUXUXPXUXUXPXUXPXUXIXUXUXPXUXPXUXIXUXUXIXUXUXUXUXIXUXPXPXUXUXIXIXUXUXLXUXPXIXIXPXIXUXPXIXPXIXUXUXPXUXUXIXPXUXIXUXUXIXIXIXUXUXPXIXUXIXUXUXUXUXIX",
"UXUXIXIXUXUXPXLXPXKXJXUXIXKXIXLXLXKXIXUXJXKXPXIXPXPXUXLXUXPXKXIXKXLXIXLXIXPXJXPXIXPXPXHXIXPXPXPXLXPXKXIXIXLXJXKXKXUXIXIXUXLXUXUXUXUXUXUXUXUXUXUX",
"IXPXUXUXPXIXIXUXUXUXUXPXUXUXIXUXUXUXUXKXUXUXIXPXIXUXLXUXIXIXUXIXUXUXKXUXPXPXUXUXUXUXPXUXPXUXUXPXUXUXUXUXPXUXUXUXUXIXUXUXUXIXIXIXUXUXUXUXUXUXUXUX",
"UXIXUXIXIXIXlXU G L M n./.R.V F G N `.4.n J B :.(.XXUXIX%X(.6.M H C $.`.C G H m /.O.S L V 0.].V K S D  X#.V K N 4.UXPXUXPXUXUXUXUXUXUXUXUXUXUXUX",
"LXUXPXUXUXIX;XU ).E.p.=.6.$X}.`.$X7.a.qX/.'.).X.0.P.UXUXQ.y.@.Q.'./.1Xk.,.$X_./.pX'.L.Y.A. .p.5.+X$X=.p. .].'.R.~ IXUXPXUXLXPXUXUXUXUXUXUXUXUXUX",
"UXUXUXUXPXUX%X8.IXUXeX2.w.W.^ ~ [ g h.f.H ( ! G c.e J L t c.R P ) U u.m.h [ / Y %XPXHXUXSX2.s.l ( [ j b.V E ` L L PXUXUXLXUXUXIXUXUXUXUXUXUXUXUX",
"UXUXIXIXKXUX*X6.UXPXwX>.i.w.;.oX^.Q.kX%XQ.(./.Q 2X_.R.[.;.l.yXT.).Q.| e.3.|. X=.N.UXKXKXBX3.y.4. XoX@.A.0XE.(.P.~ IXIXUXUXPXIXIXUXUXUXUXUXUXUXUX",
"UXIXUXUXIXUX4X5 C A w #.a.d.i Q U B ~.8.S T P g NXPXKXUX~.f.w.C Y S U h.i ! Q e C.UXKXUXFX,.y.s E Q u N.@.G E A H UXKXUXUXUXUXUXUXUXUXUXUXUXUXUX",
"IXUXUXUXPXUXGX$X XOX{.iXgXkXOX|. X'.uX2X`.|.}.:XKXLXKXIXbXhX>X]..X[.3XcX|.|. X XnXIXUXPXPXaXkX}. X}. XcX&X{.|.[.5XIXUXUXIXUXUXUXUXUXUXUXUXUXUXUX"
};
