/* XPM */
static char *alphabetnorth[] = {
/* columns rows colors chars-per-pixel */
"66 72 240 2 ",
"   c #000000",
".  c #010101",
"X  c #020202",
"o  c #030303",
"O  c #040404",
"+  c #050505",
"@  c #060606",
"#  c #070707",
"$  c #080808",
"%  c #090909",
"&  c #0A0A0A",
"*  c #0B0B0B",
"=  c #0C0C0C",
"-  c #0D0D0D",
";  c #0E0E0E",
":  c #0F0F0F",
">  c #101010",
",  c #111111",
"<  c #121212",
"1  c #131313",
"2  c #141414",
"3  c #151515",
"4  c #161616",
"5  c #171717",
"6  c #181818",
"7  c #191919",
"8  c #1A1A1A",
"9  c #1B1B1B",
"0  c #1C1C1C",
"q  c #1D1D1D",
"w  c #1E1E1E",
"e  c #1F1F1F",
"r  c #202020",
"t  c #212121",
"y  c #222222",
"u  c #232323",
"i  c #242424",
"p  c #252525",
"a  c #262626",
"s  c #272727",
"d  c #292929",
"f  c #2A2A2A",
"g  c #2B2B2B",
"h  c #2C2C2C",
"j  c #2D2D2D",
"k  c #2E2E2E",
"l  c #2F2F2F",
"z  c #303030",
"x  c #313131",
"c  c #323232",
"v  c #333333",
"b  c #343434",
"n  c #353535",
"m  c #363636",
"M  c #373737",
"N  c #383838",
"B  c #393939",
"V  c #3A3A3A",
"C  c #3B3B3B",
"Z  c #3C3C3C",
"A  c #3D3D3D",
"S  c #3E3E3E",
"D  c #3F3F3F",
"F  c #404040",
"G  c #414141",
"H  c #424242",
"J  c #434343",
"K  c #444444",
"L  c #454545",
"P  c #474747",
"I  c #484848",
"U  c #494949",
"Y  c #4A4A4A",
"T  c #4B4B4B",
"R  c #4C4C4C",
"E  c #4D4D4D",
"W  c #4E4E4E",
"Q  c #4F4F4F",
"!  c #505050",
"~  c #515151",
"^  c #525252",
"/  c #535353",
"(  c #545454",
")  c #575757",
"_  c #585858",
"`  c #595959",
"'  c #5A5A5A",
"]  c #5B5B5B",
"[  c #5C5C5C",
"{  c #5D5D5D",
"}  c #5E5E5E",
"|  c #5F5F5F",
" . c #606060",
".. c #616161",
"X. c #626262",
"o. c #636363",
"O. c #646464",
"+. c #656565",
"@. c #666666",
"#. c #676767",
"$. c #686868",
"%. c #696969",
"&. c #6A6A6A",
"*. c #6B6B6B",
"=. c #6C6C6C",
"-. c #6D6D6D",
";. c #6E6E6E",
":. c #6F6F6F",
">. c #707070",
",. c #717171",
"<. c #727272",
"1. c #737373",
"2. c #747474",
"3. c #757575",
"4. c #767676",
"5. c #777777",
"6. c #787878",
"7. c #797979",
"8. c #7A7A7A",
"9. c #7C7C7C",
"0. c #7D7D7D",
"q. c #7E7E7E",
"w. c #7F7F7F",
"e. c #808080",
"r. c #818181",
"t. c #828282",
"y. c #838383",
"u. c #848484",
"i. c #858585",
"p. c #868686",
"a. c #878787",
"s. c #888888",
"d. c #898989",
"f. c #8A8A8A",
"g. c #8B8B8B",
"h. c #8C8C8C",
"j. c #8D8D8D",
"k. c #8E8E8E",
"l. c #8F8F8F",
"z. c #909090",
"x. c #919191",
"c. c #929292",
"v. c #939393",
"b. c #949494",
"n. c #959595",
"m. c #969696",
"M. c #9A9A9A",
"N. c #9B9B9B",
"B. c #9D9D9D",
"V. c #9E9E9E",
"C. c #A0A0A0",
"Z. c #A2A2A2",
"A. c #A3A3A3",
"S. c #A4A4A4",
"D. c #A5A5A5",
"F. c #A6A6A6",
"G. c #A7A7A7",
"H. c #A8A8A8",
"J. c #A9A9A9",
"K. c #AAAAAA",
"L. c #ABABAB",
"P. c #ACACAC",
"I. c #ADADAD",
"U. c #AEAEAE",
"Y. c #AFAFAF",
"T. c #B0B0B0",
"R. c #B1B1B1",
"E. c #B2B2B2",
"W. c #B3B3B3",
"Q. c #B4B4B4",
"!. c #B5B5B5",
"~. c #B7B7B7",
"^. c #B8B8B8",
"/. c #B9B9B9",
"(. c #BABABA",
"). c #BBBBBB",
"_. c #BDBDBD",
"`. c #C0C0C0",
"'. c #C1C1C1",
"]. c #C2C2C2",
"[. c #C3C3C3",
"{. c #C4C4C4",
"}. c #C5C5C5",
"|. c #C6C6C6",
" X c #C7C7C7",
".X c #C8C8C8",
"XX c #C9C9C9",
"oX c #CACACA",
"OX c #CBCBCB",
"+X c #CCCCCC",
"@X c #CDCDCD",
"#X c #CECECE",
"$X c #CFCFCF",
"%X c #D0D0D0",
"&X c #D1D1D1",
"*X c #D2D2D2",
"=X c #D3D3D3",
"-X c #D4D4D4",
";X c #D5D5D5",
":X c #D6D6D6",
">X c #D7D7D7",
",X c #D8D8D8",
"<X c #D9D9D9",
"1X c #DADADA",
"2X c #DBDBDB",
"3X c #DCDCDC",
"4X c #DDDDDD",
"5X c #DEDEDE",
"6X c #DFDFDF",
"7X c #E0E0E0",
"8X c #E1E1E1",
"9X c #E2E2E2",
"0X c #E3E3E3",
"qX c #E4E4E4",
"wX c #E5E5E5",
"eX c #E6E6E6",
"rX c #E7E7E7",
"tX c #E8E8E8",
"yX c #E9E9E9",
"uX c #EAEAEA",
"iX c #ECECEC",
"pX c #EDEDED",
"aX c #EEEEEE",
"sX c #EFEFEF",
"dX c #F0F0F0",
"fX c #F1F1F1",
"gX c #F2F2F2",
"hX c #F3F3F3",
"jX c #F4F4F4",
"kX c #F5F5F5",
"lX c #F6F6F6",
"zX c #F7F7F7",
"xX c #F8F8F8",
"cX c #F9F9F9",
"vX c #FAFAFA",
"bX c #FBFBFB",
"nX c #FCFCFC",
"mX c #FDFDFD",
"MX c #FEFEFE",
"NX c #FFFFFF",
/* pixels */
"                > +XNXX.                p.NXE.                M sXsXM                 E.NXp.                ' NX:X>                 ",
"                > +XNXX.                p.NXE.                M hXhXM                 E.NXp.                X.NX:X>                 ",
"    6.E.P.E.p.  % +XNX+X^   d G.E.P.d   p.NXE.  > b.P.P.P.P.P.).NXNX).M   Q P.P.b.>   E.NXp.  d P.P.P.P.P.P.+XNX:X>   p.E.P.E.P.P.P.",
"    Q 2.2.2.^   % +XNXNXp.  9 -.2.-.9   p.NXE.  9 6XNXNXNXNXNXNXNXNXNXQ   2.NXNX6X9   E.NXp.  9 -.2.2.2.2.2.G.NX:X>   ^ 2.2.2.2.2.2.",
"                > +XNXNXp.              p.NXE.  9 6XNXNXNXNXNXNXNXNXNXQ   2.NXNX6X9   E.NXp.                ' NX:X>                 ",
"    M ^ ^ ^ A   > +XNXNXp.  > ^ ^ ^ >   p.NXE.  9 6XNXNXNXNXNXNXNXNXNXQ   2.NXNX6X9   E.NXp.  > ^ ^ ^ ^ ^ ^ b.NX:X>   A ^ ^ ^ ^ ^ ^ ",
"    P.NXNXNX`.% % +XNX6XX.  d ).`.).M   p.NXE.  > P.+X`.+X+X`.:XNXNX+XA   ' +X+XP.>   E.NXp.  M ).`.`.`.`.`.6XNX:X> % ).NXNXNXNXNXNX",
"    P.NXNXNX`.% % +XNXX.      % % %     p.NXE.    % % % % % % A sXsXA       % % %     E.NXp.    % % % % % % -.NX:X> % `.NXNXNXNXNXNX",
"% > E.NXNXNX`.> 9 +XNXX.  % % % % % % % f.NXE.> % % % % % % % A sXsXA % % % % % % % > ).NXp.% % % % % % %   X.NX:X9 > `.NXNXNXNXNXNX",
"`.`.sXNXNXNXhX`.+XhXNX6X`.`.`.`.`.`.`.`.rXNXsX`.`.`.`.`.`.`.`.:XNXNX:X`.`.`.`.`.`.`.`.sXNXrX`.`.`.`.`.`.`.`.6XNXhX+X`.hXNXNXNXNXNXNX",
"NXNXNXNXNXNXNXNXNXNXNXNXNXNXNXNXNXNXNXNXNXNXNXNXNXNXNXNXNXNXNXNXNXNXNXNXNXNXNXNXNXNXNXNXNXNXNXNXNXNXNXNXNXNXNXNXNXNXNXNXNXNXNXNXNXNX",
"NXNXNXNXNXNXNXNXNXNXNXNXNXNXNXNXNXNXNXNXNXNXNXNXNXNXNXNXNXNXNXNXNXNXNXNXNXNXNXNXNXNXNXNXNXNXNXNXNXNXNXNXNXNXNXNXNXNXNXNXNXNXNXNXNXNX",
"f.f.f.f.f.f.f.f.b.rXNXE.f.E.NXNXNXNXP.f.`.NX6Xf.f.f.f.f.f.f.f.G.hXNXNXNXNXNX:Xf.f.f.b.6XNX`.f.P.NXhXN.f.:XNXNXNXrXb.b.rXNXNXNXNXNXNX",
"                % +XNX'   ' NXNXNXhXA   p.NXE.                d sXNXNXNXNXNXG.        E.NXp.  A hXrXy   N.NXNXNX+X%   `.NXNXNXNXNXNX",
"    y M M M M M A :XNX'   ' NXNXNXhXP   p.NX`.M M d %   9 M d ' hXNXNXNXNXNXE.M d     E.NXp.  P NXsXy   G.NXNXNX+X% % `.NXNXNXNXNXNX",
"    G.hXsXsXsXsXhXNXNX'   Q 6X6X6X:XA   p.NXNXsXsXrXM   6.hXsXhXNXNXNXNXNXNXNXsX+X>   E.NXp.  A :X+Xy   f.rXsXNX+X% % `.NXNXNXNXNXNX",
"    E.NXNXNXNXsXhXNXNXX.  % 9 9 9 9     p.NXNXNXNXhXM   f.NXNXNXNXNXhXsXhXNXNXNX6X9   E.NXp.    9 9     > 9 2.NX+X% % `.NXNXNXNXNXNX",
"    P.NXNXNX+XA A :XNXX.                p.NXNXNXNXhXM   f.NXNXNXNXhX' d G.NXNXNX6X>   E.NXp.                ' NX+X% % `.NXNXNXNXNXNX",
"    P.NXNXNX`.  % +XNX'   A P.P.P.G.d   p.NXNXNXNXhXM   f.NXNXNXNXsXM   f.NXNXNX6X9   E.NXp.  d G.P.P.P.A   ' NX+X% % `.NXNXNXNXNXNX",
"    Q -.-.-.^   % +XNX'   ' NXNXNXNXP   p.NX:X-.-.X.>   A -.-.p.hXsXM   A -.-.-.' %   E.NXp.  P NXNXNXNX'   ' NX+X%   ^ -.-.-.-.-.-.",
"                % +XNX'   ^ NXNXNXhXA   6.NXE.                d sXsXd                 E.NX6.  A hXNXNXNX^   ' NX+X%                 ",
"Q Q Q Q Q Q Q Q ' 6XNXf.P f.NXNXNXhX6.Q G.NX+X^ Q Q Q Q Q Q Q 2.hXhX2.Q Q Q Q Q Q Q ^ +XNXP.Q 6.NXNXNXNXf.P b.NX6X^ Q Q Q Q Q Q Q Q ",
"NXNXNXNXNXNXNXNXNXNXNXNXNXNXNXNXNXNXNXNXNXNXNXNXNXNXNXNXNXNXNXNXNXNXNXNXNXNXNXNXNXNXNXNXNXNXNXNXNXNXNXNXNXNXNXNXNXNXNXNXNXNXNXNXNXNX",
"NXNXNXNXNXNXNXNXNXNXNXNXNXNXNXNXNXNXNXNXNXNXNXNXNXNXNXNXNXNXNXNXNXNXNXNXNXNXNXNXNXNXNXNXNXNXNXNXNXNXNXNXNXNXNXNXNXNXNXNXNXNXNXNXNXNX",
"sXsXsXsXsXsXsXsXsXNXNXhXsXsXsXsXsXsXsXsXhXNXNXsXsXsXsXsXsXsXsXhXNXNXhXsXsXsXsXsXsXsXsXNXNXhXsXsXsXsXsXsXsXsXhXNXNXsXsXsXsXsXsXsXsXsX",
"M M M M M M M M A :XNX6.d M M M M M M d N.NX`.M M M M M M M d ' hXhX' d M M M M M M M `.NXN.d M M M M M M d 6.NX6XP M M M M M M M M ",
"                % +XNX'                 p.NXE.                M sXsXd                 E.NXp.                ' NX+X%                 ",
"    X.A   M -.  % +XNX'   M f.f.f.p.y   p.NXE.  % 2.f.f.f.Q   M sXsXM   Q b.b.b.6.%   E.NXp.  y p.f.f.f.M   X.NX:X>   -.b.f.b.X.    ",
"    E.2.  ' `.% % +XNXX.  ' NXNXNXNXP   p.NXE.  > 6XNXNXNXf.  M sXsXM   Q f.f.f.6.%   E.NXp.  P NXNXNXNX'   ' NX:X>   -.f.f.f.X.    ",
"    E.-.  ' `.% % +XNXX.  ' NXNXNXhXP   p.NXE.  > :XNXNXNXf.  M sXsXM                 E.NXp.  P rXE.P.rX'   X.NX:X>                 ",
"    E.-.  ' `.% % +XNXX.  ' NXNXNXhXP   p.NXE.  9 6XNXNXNXf.  M sXsXM   9 M M M M M M `.NXp.  P +X9 % ).'   ' NX:X>   d >   > M M M ",
"    E.-.  ' `.% % +XNXX.  ' NXNXNXhXP   p.NXE.  > ).6X6X6X6.  M sXsXM   p.hXsXsXsXsXsXNXNXp.  A P.>   N.^   ' NX:X> % E.^   X.hXsXsX",
"    E.-.  ' `.% % +XNX'   ' NXNXNXhXP   p.NXE.    > 9 9 9 %   M sXsXM   f.NXNXNXNXNXNXNXNXp.    >     > %   ' NX:X> % `.'   -.NXNXNX",
"    E.2.  ' `.% > +XNXX.  ' NXNXNXhXP   p.NXE.%               M sXsXM   f.NXNXNXNXNXNXNXNXp.                X.NX:X> % `.'   -.NXNXNX",
"P.P.rX:XP.+XsXE.E.sXNX+XP.+XNXNXNXNX`.P.:XNXrXP.P.P.P.P.P.P.P.).NXNX).P.6XNXNXNXNXNXNXNXNX:XP.P.b.%   6.E.P.+XNXsXE.E.sX+XP.+XNXNXNX",
"NXNXNXNXNXNXNXNXNXNXNXNXNXNXNXNXNXNXNXNXNXNXNXNXNXNXNXNXNXNXNXNXNXNXNXNXNXNXNXNXNXNXNXNXNXNXNXNX6X>   ).NXNXNXNXNXNXNXNXNXNXNXNXNXNX",
"NXNXNXNXNXNXNXNXNXNXNXNXNXNXNXNXNXNXNXNXNXNXNXNXNXNXNXNXNXNXNXNXNXNXNXNXNXNXNXNXNXNXNXNXNXNXNXNXsX6.2.:XNXNXNXNXNXNXNXNXNXNXNXNXNXNX",
"G.G.P.P.P.P.P.P.P.sXNX+XG.P.P.P.G.G.G.G.:XNXrXP.E.hXNXNXNX:XG.).NXNX).G.G.+XNXsXP.G.P.rXNX:XG.).sXE.P.rX`.G.+XNXsXP.P.P.P.G.G.P.G.P.",
"                % +XNXX.                p.NXE.  9 6XNXNXNXf.  M sXsXM     2.NX`.%     E.NXp.  A +X9 % ).'   X.NX:X>                 ",
"    > y 9 9 9 9 d :XNX2.9 9 >     9 9 9 b.NXE.  > 6XNXNXNXf.  M sXhXQ     2.NX`.%   9 ).NXp.  A +X>   E.'   X.NX:X>   > %   % >     ",
"    f.:X:X:X:X+X:XhXNXsX6XrXG.  > ).rX6XsXNXE.  9 6XNXNXNXf.  M sXNXrXP   2.NX`.% % E.hXNXp.  A +X>   ).'   ' NX:X9 > P.Q   X.N.% % ",
"    y M M M M M P :XNXNXNXNX).  > :XNXNXNXNXE.  9 6XNXNXNXf.  M sXNXNXQ   2.NX`.% % +XNXNXp.  A +X>   ).'   X.NXhX+X+XsX^   -.sX`.`.",
"                % +XNXNXNXNX).  > :XNXNXNXNXE.  > 6XNXNXNXf.  M sXNXNXQ   2.NX`.% % +XNXNXp.  A +X>   E.'   X.NXNXNXNXNXQ   -.NXNXNX",
"b.b.b.b.b.b.2.  % +XNXNXNXNX).  > :XNXNXNXNXE.  9 6XNXNXNXf.  M sXNXNXQ   2.NX`.% % +XNXNXp.  A +X>   ).'   X.NXrX2.-.6X^   -.:X-.-.",
"f.f.b.b.b.b.-.  % +XNXNXNXNX).  > :XNXNXNXNXE.  % 2.f.f.f.Q   M sXNXNXQ   A f.-.  > +XNXNXp.  y 2.%   X.M   ' NX+X%   -.d   A X.    ",
"                % +XNXNXNXNXE.  > :XNXNXNXNXE.                d sXNXNXQ           % +XNXNXp.                ' NX+X%                 ",
"M M M M M M M M A :XNXNXNXNX`.M P 6XNXNXNXNX`.M M M M M M M d ' sXNXNX-.d M M M M A :XNXNXN.d M M M M M M d 6.NX6XP M M M M M M M M ",
"sXsXsXsXsXsXsXsXsXNXNXNXNXNXNXsXsXNXNXNXNXNXNXsXsXsXsXsXsXsXsXhXNXNXNXhXsXsXsXsXsXsXNXNXNXhXsXsXsXsXsXsXsXsXhXNXNXsXsXsXsXsXsXsXsXsX",
"NXNXNXNXNXNXNXNXNXNXNXNXNXNXNXNXNXNXNXNXNXNXNXNXNXNXNXNXNXNXNXNXNXNXNXNXNXNXNXNXNXNXNXNXNXNXNXNXNXNXNXNXNXNXNXNXNXNXNXNXNXNXNXNXNXNX",
"NXNXNXNXNXNXNXNXNXNXNXNXNXNXNXNXNXNXNXNXNXNXNXNXNXNXNXNXNXNXNXNXNXNXNXNXNXNXNXNXNXNXNXNXNXNXNXNXNXNXNXNXNXNXNXNXNXNXNXNXNXNXNXNXNXNX",
"Q Q `.NXNXNX:X^ ' 6XNXb.Q Q Q Q Q Q Q Q G.NX+X^ Q Q Q Q Q Q Q 2.hXhX2.Q Q Q Q 2.hXNXNXNXNXG.Q Q Q Q Q Q Q Q b.NX6X' Q Q Q Q Q Q Q Q ",
"    P.NXNXNX`.  % +XNX'                 6.NXE.                d sXsXd         M hXNXNXNXNX6.                ' NX+X%                 ",
"    E.NXNXNX`.% % +XNXG.-.-.-.-.-.-.9   p.NXE.  % ' -.-.-.A   M sXhXf.-.2.A   M hXNXNXNXNX).-.-.-.-.-.-.y   X.NXrX6.-.-.-.-.2.Q     ",
"    2.P.P.P.p.  % +XNX+XP.P.P.P.P.G.d   p.NXE.  > 6XNXNXNXf.  M sXNXNXNXNXf.  M hXNXNXNXNX:XP.P.P.P.P.P.A   X.NXhXE.P.P.P.P.P.2.    ",
"                > +XNXX.                p.NXE.  > :XNXNXNXf.  M sXNXNXNXNXp.  M hXNXNXNXNXp.                ' NX:X>                 ",
"9 9 9 9 9 9 >   % +XNX'   % 9 9 9 9 9 9 b.NXE.  > 6XNXNXNXf.  M sXNXNXNXNXf.  M hXNXNXNXNXp.    9 9 9 9 9 9 2.NX:Xd 9 9 9 9 9 >     ",
"+X+X+X+X+X+XN.% % +XNXX.  Q +X+X+X+X+X+XrXNXE.  > +XsXsXhXp.  M sXNXhXsXhX6.  M rXsXsXNXNXp.  M `.+X+X+X+X+XrXNXhX:X+X+X+X+X:Xf.    ",
"M M M M M M y   % +XNXX.  > M M M M M M N.NXE.    d M M M 9   M sXhX' d M 9   % d M M `.NXp.  % M M M M M M p.NX6XP M M M M M y     ",
"                % +XNX'                 6.NXE.                M sXsXd                 E.NXp.                ' NX+X%                 ",
"f.f.f.f.f.f.f.f.b.sXNX).f.f.f.f.f.f.f.f.`.NX6Xf.f.f.f.f.f.f.f.G.hXhXG.f.f.f.f.f.f.f.b.6XNX`.f.f.f.f.f.f.f.f.).NXsXb.f.f.f.f.f.f.f.f.",
"NXNXNXNXNXNXNXNXNXNXNXNXNXNXNXNXNXNXNXNXNXNXNXNXNXNXNXNXNXNXNXNXNXNXNXNXNXNXNXNXNXNXNXNXNXNXNXNXNXNXNXNXNXNXNXNXNXNXNXNXNXNXNXNXNXNX",
"NXNXNXNXNXNXNXNXNXNXNXNXNXNXNXNXNXNXNXNXNXNXNXNXNXNXNXNXNXNXNXNXNXNXNXNXNXNXNXNXNXNXNXNXNXNXNXNXNXNXNXNXNXNXNXNXNXNXNXNXNXNXNXNXNXNX",
"`.`.sXNXNXNXhX`.+XhXNX6X`.`.`.`.`.`.`.`.rXNXsX`.`.`.`.`.`.`.`.:XNXNX:X`.`.`.`.`.`.`.`.sXNXrX`.`.`.`.`.`.`.`.6XNXhX+X`.`.`.`.`.`.`.`.",
"% > E.NXNXNX`.> 9 +XNXX.% % % % % % % % f.NXE.> % % % % % % % A hXhXA % % % % % % % > ).NXf.% % % % % % % % X.NX:X9 % % % % % % % % ",
"    P.NXNXNX`.% % +XNX'     % % % % % % f.NXE.    % % % % % % A hXhXA % % % % % %     E.NXp.    % % % %     ' NX:X>   % % % % %     ",
"    P.NXNXNX`.% % +XNXX.  P `.`.`.`.`.`.rXNXE.  > G.`.`.`.`.`.:XNXNX:X`.`.`.+X+XP.>   E.NXp.  M ).`.`.`.P   X.NX:X>   b.`.`.`.p.    ",
"    M ^ ^ ^ A   > +XNXX.  9 ^ ^ ^ ^ ^ ^ P.NXE.    P ^ ^ ^ ^ ^ 2.hXNXNXNXNXNXNXNX6X9   E.NXp.  > ^ ^ ^ ^ 9   X.NX:X>   A Q Q Q M     ",
"                > +XNX'                 p.NXE.                M sXNXNXNXNXNXNXNX6X9   E.NXp.                X.NX+X%                 ",
"-.-.-.-.-.2.^   % +XNXG.2.2.2.2.2.-.9   p.NXE.  % X.2.2.2.P   M sXNXNXNXNXNXNXNX6X9   E.NXp.  9 -.-.-.-.y   X.NXrX6.2.2.2.2.2.Q     ",
"NXNXNXNXNXNX`.% % +XNX+XP.P.P.P.E.P.d   p.NXE.  > b.E.P.E.X.  M sXNXNXNXNXNXNXNX6X9   E.NXp.  d P.P.P.P.A   ' NXhXE.P.P.P.P.E.6.    ",
"NXNXNXNXNXNX`.% % +XNXX.                p.NXE.                M sXNXNXNXNXNXNXNX6X9   E.NXp.                ' NX:X>                 ",
"NXNXNXNXNXNX`.% % +XNXX.                p.NXE.                M sXNXNXNXNXNXNXNX6X9   E.NXp.                X.NX:X>                 "
};
