/* XPM */
static char *afd7f342254d4772b3b03772d1096f47EomCCyjyANy0Ldgx[] = {
/* columns rows colors chars-per-pixel */
"72 72 161 2 ",
"   c #020003",
".  c #080307",
"X  c #070308",
"o  c #0A060B",
"O  c #0D090E",
"+  c #100D0F",
"@  c #0F0A10",
"#  c #120D13",
"$  c #141216",
"%  c #181317",
"&  c #171318",
"*  c #1A151B",
"=  c #1D191E",
"-  c #1F1A20",
";  c #221D23",
":  c #252226",
">  c #282327",
",  c #272428",
"<  c #2A252B",
"1  c #2C292E",
"2  c #2F2C30",
"3  c #312E32",
"4  c #343235",
"5  c #383637",
"6  c #373438",
"7  c #39363A",
"8  c #3C3A3D",
"9  c #3F3C40",
"0  c #423E42",
"q  c #444245",
"w  c #474448",
"e  c #4A464A",
"r  c #4C4A4D",
"t  c #4E4C51",
"y  c #514E52",
"u  c #545255",
"i  c #585657",
"p  c #575558",
"a  c #59565A",
"s  c #5C5A5D",
"d  c #605D5F",
"f  c #5F5D61",
"g  c #605E61",
"h  c #646264",
"j  c #676569",
"k  c #69676B",
"l  c #6C6A6C",
"z  c #6F6D70",
"x  c #716E72",
"c  c #747275",
"v  c #787677",
"b  c #777578",
"n  c #79777A",
"m  c #7B7A7C",
"M  c #807E7F",
"N  c #7F7D80",
"B  c #817F82",
"V  c #848385",
"C  c #888687",
"Z  c #878588",
"A  c #89878A",
"S  c #8C8A8D",
"D  c #8F8D90",
"F  c #918E92",
"G  c #949295",
"H  c #979598",
"J  c #989699",
"K  c #9C9A9D",
"L  c #9F9CA0",
"P  c #A19FA1",
"I  c #A4A3A5",
"U  c #A9A5A6",
"Y  c #A7A5A8",
"T  c #A8A6A9",
"R  c #ABAAAC",
"E  c #AFADB0",
"W  c #B0AEB2",
"Q  c #B4B3B5",
"!  c #B7B6B8",
"~  c #B8B6B9",
"^  c #B7B9B8",
"/  c #BBBABC",
"(  c #BFBDC0",
")  c #C4C4C4",
"_  c #C7C6C9",
"`  c #C9C7C9",
"'  c #CBCACC",
"]  c #D0CECF",
"[  c #CFCED0",
"{  c #D0CED1",
"}  c #D5D3D6",
"|  c #D5D3D5",
" . c #D7D5D7",
".. c #D6D4D5",
"X. c #D4D3D5",
"o. c #D8D6D7",
"O. c #D7D5D8",
"+. c #D9D7DA",
"@. c #D9D9DB",
"#. c #DAD8DB",
"$. c #DDDBDE",
"%. c #DFDFDF",
"&. c #DCDBDC",
"*. c #E0DEDF",
"=. c #E0E2DF",
"-. c #DFDDE0",
";. c #DFDEE0",
":. c #E1DFE1",
">. c #E1DFE2",
",. c #E0DEE1",
"<. c #E1E1E3",
"1. c #E2E0E3",
"2. c #E2E0E1",
"3. c #E3E3E3",
"4. c #E8E6E7",
"5. c #E7E6E8",
"6. c #E9E7E9",
"7. c #ECEBEC",
"8. c #EFEDF0",
"9. c #F1EFF2",
"0. c #F1F1F1",
"q. c gray95",
"w. c #F3F1F4",
"e. c #F4F2F5",
"r. c #F5F3F6",
"t. c gray96",
"y. c #F5F7F6",
"u. c gray97",
"i. c #F4F4F4",
"p. c #F8F6F7",
"a. c #F6F8F6",
"s. c #F9F9F7",
"d. c #F7F5F8",
"f. c #F7F6F8",
"g. c #F8F6F9",
"h. c #F9F9F9",
"j. c #F8F8F8",
"k. c #F9FBF8",
"l. c #F9F9FB",
"z. c gray98",
"x. c #FBFBFB",
"c. c #FCFAFB",
"v. c #FBFDFB",
"b. c #FCFEFB",
"n. c #FBFBFD",
"m. c #FDFBFE",
"M. c gray99",
"N. c #FDFDFD",
"B. c #FDFFFC",
"V. c #FCFFFD",
"C. c #FFFFFD",
"Z. c #FEFFFD",
"A. c #FDFDFF",
"S. c #FEFCFF",
"D. c #FFFDFF",
"F. c #FDFFFE",
"G. c #FEFEFE",
"H. c #FFFEFF",
"J. c white",
"K. c #FEFFFF",
"L. c #FEFEFE",
/* pixels */
"s.c.V O ; ; O G J.h.h.J.c o - = - ; $ q J.J.J.J.J.h.J.g O ; - - ; # u J.J.y # = = = ; O g J.h.J.J.J.J.m.8 $ - - = ; O m J.h.k.J.G O - = - = = = ",
"J.J.B   $ #   G J.J.J.J.c o = o o O   4 J.J.J.J.J.J.J.s   # @ @ # X w J.J.y # & @ @ $   s J.J.J.J.J.J.J.3   O o O @   c J.b.J.J.G   # # @ @ # @ ",
"a r Z Q ^ ! Q B w l u.J.c X 6 ` ' ` ` ! p r ) J.#.u t J ^ / / / / ^ ' J.J.y X r / ^ ^ ^ J t u #.J.( r a ! ` ` ' ` ` ` &.J.h.k r N Q ! ^ ! ! ! ! ",
"$   J J.J.J.J.Z   1 r.J.c X 1 Z A C S c @   Y J.' O   ~ J.J.J.J.J.J.J.J.J.u X f J.J.J.J.^   O ' J.I   # b S S C S S V ^ J.0.<   Z J.J.J.J.J.J.J.",
"- $ s J H G K u O 7 r.J.c O =           ; # W J.' * $ Q h.u.k.n.h.h.J.k.J.u   s h.u.u.n.W $ = ' J.T # ;               j J.w.4 # u K H H J J J J ",
"= = O     X   # & 4 d.J.c o : h h h h u $ X T J.' # X ! J.J.J.J.J.J.J.J.J.u   g J.J.J.J.! X O ' J.I   $ u h h h h h p Y J.0.2 * # X             ",
"* & 3 q 0 0 q 1 # 6 d.J.c X 7 $.3.-.:.) 8 3 ^ J.X.8 4 I X.X.o.X.#.} 3.J.J.u X u X.} | } I 4 8 } J.Q 2 9 ) :.&.3.3.:.:.7.J.r.3 # 1 0 0 0 0 q 0 q ",
"; o F J.n.n.J.M X 7 r.J.c o = $ & * O 8 J.J.J.J.J.c.J.s o * * * = O t J.J.y # = * & = o s J.m.J.J.J.J.m.5 O * & $ * X b J.0.4 X N J.h.J.J.b.J.J.",
"= X S J.J.J.J.m   4 r.J.x X * % & * @ 8 J.J.J.J.J.J.J.s X * & & * O r J.J.r o * & & * o s J.J.J.J.J.J.J.5 # & & & * X n J.0.3   m J.J.J.J.J.J.J.",
"X.X.6.J.J.J.J.6.X.#.J.J.3.X.} } } X.} &.J.J.J.J.J.J.J.3.X.O.} } X.X.-.J.J.&.X.} } X.O.X.3.J.J.J.J.J.J.J.$.X.X.} } X.X.4.J.J.#.X.4.J.J.J.J.J.J.J.",
"J.J.J.h.J.h.h.J.J.J.J.J.J.J.J.J.J.J.J.J.h.h.J.J.J.h.h.J.J.J.J.J.J.J.J.J.J.J.J.J.J.J.J.J.J.J.J.J.J.J.J.J.J.J.J.J.J.J.J.J.J.J.J.J.J.J.J.J.J.J.J.J.",
"J.J.J.J.J.J.J.J.J.J.J.J.J.J.J.J.J.J.J.J.J.J.J.J.J.J.J.J.J.J.J.J.J.J.J.J.J.J.J.J.J.J.J.J.J.J.J.J.J.J.J.J.J.J.J.J.J.J.J.J.J.J.J.J.J.J.J.J.J.J.J.J.",
"J.J.` G K K K K J T h.J.) F T J.J.J.J.6.K H &.J.7.J P H _ J.h.I K H Q J.J.J.J.J.J.J.Q G ^ J.h.J.J.#.G K 7.J.J.J.J.T G ) J.h.I F ) J.J.J.J.J.J.J.",
"J.J.v   X   X X   = u.J.k   1 h.J.J.J.[ o   T J.`   X   c J.r.&     9 J.m.J.J.J.J.J.7   u J.J.J.J.L   O X.J.J.J.h.2   c J.0.:   b J.h.J.J.J.J.J.",
"X.X.V 4 0 0 0 0 8 u u.J.c X 7 J.J.J.J.O.- # R J.} 8 q 4 B X.' r 8 5 l J.J.J.J.J.J.J.k 1 z } O.0.J.R # ; &.J.J.J.J.8   m J.0.4 o M J.h.J.J.J.J.J.",
"= o S J.J.J.J.J.J.J.v.J.m # q 6.7.6.7.) = o W J.h.J.n.J.G X : 5.J.m.J.J.J.J.J.J.J.J.h.J.Q O & ' J.Y o - ` 7.7.7.6.q # V J.0.4 X M J.h.J.J.J.J.J.",
"- o F J.J.J.J.J.J.J.J.J.0.6.' 1 < < 1 , = O E J.J.J.b.J.H X , 5.J.J.J.J.J.J.J.J.J.J.k.J.Q O * ' J.Y o = , 1 1 < 1 ' 6.0.J.u.4 X B J.h.J.J.J.J.J.",
"; # F h.h.u.h.F , u h.J.J.J.6.o o o o @ - O E J.n.J.u.h.G X , 4.h.h.J.J.J.J.h.J.h.h.h.n.Q # * ' J.Y o - @ o O o o 6.J.J.J.r.6 o B m.h.h.h.J.J.n.",
"@   F J.J.J.J.V   4 u.J.K w j ~ / ~ ^ K * o E J.J.J.J.J.L X , u.J.J.J.J.J.J.J.J.J.J.J.J.^   X ` J.Y o = P ^ ~ ^ ~ j e K J.0.:   m J.J.J.J.J.J.J.",
"K G V c m n n w # 7 u.J.l   4 J.J.J.J.-.= @ R J.3.b v m t $ ; z m c K J.J.K c m n m n c V G J 4.J.T O ; 3.J.J.J.J.4   c J.g.I F S x m n n n m n ",
"J.J.n         X o , u.J.l   4 d.h.h.J.' O   T J.)         # o       7 J.J.7             y J.J.J.J.I   @ X.J.h.J.g.3   b J.m.J.J.S               ",
"s.h.Y u d s s s u l d.J.K w c J.J.J.J.3.a y ) J.#.a s s s a s s f u V J.J.V u f s a s u S n.h.J.J.) y s 4.J.J.J.h.x w P J.J.h.h.Q y f s s s s s ",
"J.J.J.J.J.J.J.J.J.J.J.J.J.J.J.J.J.J.J.J.J.J.J.J.J.J.J.J.J.J.J.J.J.J.J.J.J.J.J.J.J.J.J.J.J.J.J.J.J.J.J.J.J.J.J.J.J.J.J.J.J.J.J.J.J.J.J.J.J.J.J.J.",
"J.J.J.J.J.J.J.J.J.J.J.J.J.J.J.J.J.J.J.J.J.J.J.J.J.J.J.J.J.J.J.J.J.J.J.J.J.J.J.J.J.J.J.J.J.J.J.J.J.J.J.J.J.J.J.J.J.J.J.J.J.J.J.J.J.J.J.J.J.J.J.J.",
"J.J.J.J.J.J.J.J.J.J.J.J.J.J.J.J.J.J.J.J.J.J.J.J.J.J.J.J.J.J.J.J.J.J.J.J.J.J.J.J.J.J.J.J.J.J.J.J.J.J.J.J.J.J.J.J.J.J.J.J.J.J.J.J.J.J.J.J.J.J.J.J.",
"u.m.H 4 0 0 4 I J.a.J.J.c.k.&.0 0 q 7 f J.h.J.J.J.h.h.n 4 q 0 5 ) J.h.J.J.h.h.) 6 q q 4 n J.h.J.J.J.h.h.a 7 q 9 0 &.J.h.J.J.h.J.I 4 q q 4 K J.h.",
"J.J.m   & &   F J.J.J.J.J.J.4.  X X X 3 J.J.J.J.J.J.J.u   X X   ) J.J.J.J.J.J.^   X X   u J.J.J.J.J.J.m.,   X   X 6.J.J.J.J.J.J.F   X X   Z J.J.",
"n x F m $ * B S l C h.J.R l m K L K J G n c ' J.3.b c S J K K J N l K J.J.K l B G J J G S c b 3.J.` x m G H H J K m l Q J.u.Z l V G J H F Z x m ",
"O   K #.O # 7.S   1 u.J.k   3 J.J.J.J.-.o   T J.` X   ~ J.J.J.J.y   w J.J.w   a J.J.J.J.)   X ` J.L   O 3.J.J.J.J.3   c J.0.:   Z J.J.J.J.D   # ",
"; O K ' O # #.S X 8 u.J.c o 9 h.k.a.h.' ; # R J.' = # Q h.a.a.k.a X i J.J.u o r ^ ! ! ~ V $ = ' J.T # ; #.X.R ) u.8 X m J.0.5 O h ^ Q ! ~ j $ ; ",
"= X K ' o # &.S X 6 d.J.c X 8 h.J.k.b.X.* O R J.' $ o Q J.J.J.J.a   u J.J.y # & o o o o # * # ' J.Y o * 7.c   8 J.8   m J.0.1 & $ o @ @ O # * & ",
"- X K [ O # &.S   7 u.J.c X 8 h.J.J.J.} * O R J.' : = E 7.7.7.8.s # s J.J.y O ; < < 1 < , , ; [ J.Y o * #.c X w 6.7 X m J.0.2 # ; , = = : , , , ",
"; o L { O $ $.S X 8 u.J.c X 8 n.J.h.J.} = O W J.g.6.7.j ; 3 2 ; ! 6.7.J.J.u X s 7.6.7.7.7.7.6.u.J.T @ ; 1 ; * = 1 ; O m J.0.4 X V ` $ $ W 7.6.7.",
"$   K '   X $.V   1 u.J.l   4 m.J.J.J.] O   R J.n.J.J.p   O O   / J.J.J.J.e   p J.J.J.J.J.J.J.b.J.I   # O # = * o #   c J.7.<   Z #.    ( J.J.J.",
"/ ! 3.7.! ^ u.&.Q ) J.J.O.! ) J.J.J.J.0.^ ~ 4.J.J.J.J.X.~ / / ~ 6.J.J.J.J.' Q X.J.J.J.J.J.J.J.b.J.4.~ / / a O 7 / / ! X.J.J.) ! #.0.^ ^ 7.J.J.J.",
"J.J.J.J.J.J.J.J.J.J.J.J.J.J.J.v.J.J.J.J.J.J.J.J.J.J.J.J.J.J.J.J.J.J.J.J.J.J.J.J.J.J.J.J.J.h.J.J.J.J.J.J.J.k   6 J.J.J.J.J.J.J.J.J.J.J.J.J.J.J.J.",
"J.h.J.J.J.J.J.J.J.J.J.J.J.J.J.J.J.J.J.J.J.J.J.J.J.J.J.J.J.h.J.J.J.J.J.J.J.J.J.J.J.J.J.J.J.J.J.J.J.J.J.J.J.Q m K k.J.J.J.J.J.J.J.J.J.J.J.J.J.J.J.",
"J.J.#.! / / / / ^ ) J.J.X.! / / 0.J.4.^ ( ^ 4.J.7.^ ~ 6.J.J.J.J.' ! ' J.J.' ! ' J.J.J.J.5.^ ^ 0.J.4.^ ^ u.3._ } J.) Q X.J.h.) ! #.J.J.J.J.#.~ / ",
"J.J.m   O o o o X : u.J.j   O o X.J.K   $   Y J.' o   E J.h.J.J.r   e J.J.e   u J.h.h.J.E   o ` J.I   O 5.z   7 n.3   c J.0.,   v J.h.h.J.V   $ ",
"4.7.V = 3 2 1 2 , q u.J.m = 3 1 ` 6.K - 3 ; Q J.' * # Q J.J.J.J.a X u J.J.u X f J.J.J.J.Q @ * ' J.T O = 6.n X w m.8 X m J.0.6 . V J.J.h.J.C O ; ",
", & S 0.6.7.0.7.8.9.J.J.u.7.0.7.w # x 0.6.7.u.J.[ * @ Q J.J.J.J.p   u J.J.u   s J.J.J.J.Q O * ' J.I O * 4.n   w c.8 X m J.0.4   N J.h.h.J.Z o = ",
"= & 4 w w w q w 8 a h.J.J.J.J.J.8 X x J.J.J.J.J.] * O Q J.m.J.J.a   u J.J.u   f J.b.k.J.Q O & ' J.Y o * 6.b   w h.8 X m J.h.X.[ S 5 q q 5 Z [ { ",
"X X           o O 1 g.J.J.J.J.J.0 X x J.J.J.J.J.] & # W h.p.h.J.a X p J.J.a X f b.h.a.h.W @ = ' J.Y @ = 4.n   q u.8 X B J.J.J.J.G   X X   C J.J.",
"Y T T R T Y R u   < g.J.J.J.J.J.0 X x J.h.J.J.J.X.* O ( J.J.J.J.y   w J.J.w   p J.J.J.J.~   X ` J.P   o u.V   w J.3   x J.u.Z l Z G K J G Z l n ",
"R R R R R R I D k Z m.J.J.J.J.J.0 X c J.J.J.J.J.X.& $ c K J K H B l K J.J.K l B J K K H D c b 3.J.` z n K t # 4 K m l W J.0.:   N J.J.J.J.Z X # ",
"              S J.J.J.J.J.J.J.h.7   l J.J.J.J.J.' O & .     X   ) J.J.J.J.J.J.^   X     u J.J.J.J.J.J.J., X & @   5.J.J.J.d.1   m J.u.a.h.V X = ",
"0 0 0 0 0 q 3 I h.h.J.J.J.J.J.J.s , C J.h.J.J.J.X.7 9 0 q 0 0 5 ) J.h.J.J.h.J./ 5 q q 6 n h.h.J.J.J.h.h.s 7 8 8 0 :.h.J.J.u.u < G J.h.h.J.K 1 q ",
"J.J.J.J.J.J.J.J.J.J.J.J.J.J.J.J.J.J.J.J.J.J.J.J.J.J.J.J.J.J.J.J.J.J.J.J.J.J.J.J.J.J.J.J.J.J.J.J.J.J.J.J.J.J.J.J.J.J.J.J.J.J.J.J.J.J.J.J.J.J.J.J.",
"J.J.J.J.J.J.J.J.h.J.J.J.J.J.J.J.J.J.J.J.J.J.J.J.J.J.J.J.J.J.J.J.J.J.J.J.J.J.J.J.J.J.J.J.J.J.J.J.J.J.J.J.J.J.J.J.J.J.J.J.J.J.J.J.J.J.J.J.J.J.J.J.",
"J.J.J.J.J.J.J.J.J.J.J.J.J.J.J.J.J.J.J.J.J.J.J.J.J.J.J.J.J.J.J.J.J.J.J.J.J.J.J.J.J.J.J.J.J.J.J.J.J.J.J.J.J.J.J.J.J.J.J.J.J.J.J.J.J.J.J.J.J.J.J.J.",
"s r E J.J.h.J.I w z u.J.K y g s s s p v h.h.J.J.J.h.n.S u s s p ' h.h.J.J.Z u s k 0.J.J.J.J.J.J.J.) u g s s f d s 3.h.h.J.g.l a s s s g u R h.g.",
"#   C J.h.h.J.b   1 u.J.s             < J.J.J.J.J.J.J.t         ) J.J.J.J.7     $ J.J.J.J.J.J.h.J.K               4.J.J.J.u.+             V J.J.",
"$   G J.J.J.J.C X 7 u.J.! m Z Z Z Z V Z K H #.J.6.J H V c m n b G G Q J.J.K c m n J G ' J.J.J.J.J.} N C Z Z Z Z Z K G ) J.h.G V C Z Z Z B D G K ",
"s y C Q ^ ! ^ g o 5 u.J.&.) ' ` ` _ ' Y o   Y J._ X   ~ J.J.J.J.y   w J.J.J.J.J.u.&   S J.h.J.J.J.6.) ` ` ) ` ` _ ,   c J.h.' ` ` ` ` ) ` j   O ",
"J.J.N   O o o $ $ 4 0.J.k   O X X X X o = o R J.' * # Q n.a.h.J.a X p J.J.h.h.h.3.< o G J.h.J.J.J.P   @ X o X X X * o n J.7.=   o X X X X # ; = ",
"h.J.C = 3 < 1 ; # 4 d.J.c O ; 1 1 1 1 1 1 * Q J.' * O Q J.v.J.J.a   u J.J.J.J.J.6., X H J.J.J.J.J.T O ; , 1 1 1 1 2 * B J.w.8 , 1 1 1 1 1 ; * = ",
"J.J.r.6.7.6.7.b X 7 u.J.c   5 6.7.6.7.6.6.6.u.J.' & O W J.m.h.J.p   u J.J.J.J.J.6.> . G J.n.J.v.J.T o = ` 6.6.7.7.7.6.u.J.J.7.7.7.6.7.6.8.m o = ",
"0 9 q q q q q 3 & 7 u.J.5.X.) q q q q q w 7 / J.u.X.X.z 4 0 q 6 R X.&.J.J.l 4 0 8 ; * 3 0 0 7 X.J.7.} } a 8 q q q w 5 G J.u.u 9 q q q w 6 S } X.",
"        X X X o X : h.J.J.J.-.          X   I J.J.J.J.y   X X   / J.J.J.J.0 X X X o o X   X   ` J.J.J.J.:         X   k J.0.&   X     X   V J.J.",
"K K K L K K K K J Y J.J.J.J.7.K K K K K K G &.J.J.J.J.^ H K P H =.v.J.J.J.Q J K K K K K K K K 6.J.J.J.J.T K K K K K H ) J.h.Y J K K K K H ` J.k.",
"J.J.J.J.J.J.J.J.J.J.J.J.J.J.J.J.J.J.J.J.J.J.J.J.J.J.J.J.J.J.J.J.J.J.J.J.J.J.J.J.J.J.J.J.J.J.J.J.J.J.J.J.J.J.J.J.J.J.J.J.J.J.J.J.J.J.J.J.J.J.J.J.",
"J.J.J.k.k.k.h.J.J.J.J.J.J.J.J.J.J.J.J.J.J.J.J.J.J.J.J.J.J.J.J.J.J.J.J.J.J.J.J.J.J.J.J.J.J.h.h.J.J.J.J.J.J.J.J.J.J.J.h.J.J.J.J.J.J.J.J.J.J.J.J.J.",
"X.X.6.J.J.J.J.6.X.#.J.J.J.J.u.} } } } } X.X.0.J.J.J.J.3.X.O.} } X.X.&.J.J.&.X.X.} | X.X.3.J.J.J.J.J.J.J.#.X.} X.X.h.J.J.J.h.#.} X.X.} } } 6.J.J.",
"= X S J.h.h.J.m   4 h.J.J.J.&.& & $ % & * o R J.J.J.J.s o * * & * o r J.J.r o * & & * o s J.J.J.J.J.J.J.5 O * & & &.J.J.J.g.1 @ * & & = X Z J.h.",
"; O D J.h.h.J.N X 5 h.J.J.J.$.& $ & & $ * . R J.h.J.J.s o * & $ * o r J.J.y O * & * * o s J.J.J.J.J.J.m.6 O * $ & #.J.J.J.u.3 & * & $ * X Z J.n.",
"$   F J.J.J.J.V X 7 r.J.C 1 u -.3.3.3.3.3.3.0.J.X.8 4 R :.-.3.3.3.-.6.J.J.3.} #.O.O.X.X.I 4 8 X.J.! 3 9 ) 3.*.3.-.u 1 S J.w.4 X c 3.:.:.:.S 3 9 ",
"^ ~ Z u h s g 7 # 6 d.J.z X : k k k j l j a ` J.' O O e h h h h h p Z J.J.J.J.J.J.J.J.J.Q X # ` J.I   $ s k k k j =   c J.9.4 $ 0 k j j l 8 o # ",
"J.J.n         + $ 4 r.J.j   o           $   Y J.' * ;           o   w J.J.J.J.J.J.J.h.J.Q # * ' J.T # ;           = # m J.0.=             O ; ; ",
"h.J.! c B m m w @ 4 u.J.! N S S S A S c # X U J.` o X g S C A Z 8 o u J.J.J.J.J.J.J.J.J.Q O & ' J.P   # b S S S Z ;   c J.u.G V C S S Z S e X # ",
"J.J.J.J.J.J.J.Z   7 u.J.&.` ' ' ' ` ` ! p r ) J.#.p r I ` ' ` [ r X u J.J.J.J.J.J.J.J.J.Q @ & ' J./ r a ! ` ` ' ' k w K J.h.X.' ' ` ` ` ) S e a ",
"J.J.J.J.h.h.h.m X 7 u.J.k   O o o @   4 J.J.J.J.J.J.J.a   O o o * # y J.J.J.J.J.J.J.h.J.Q O * X.J.J.J.J.3   O o @ 4.J.J.J.u.: X O O o #   Z J.J.",
"J.J.J.J.J.k.J.B X 5 u.J.c @ ; = = ; $ 0 J.m.J.J.J.h.m.g O ; = - = @ y J.J.J.J.J.J.J.J.J.Q @ * { J.h.J.h.8 $ ; = - :.m.J.J.u.3 & - - = ; O S h.h."
};
