/* XPM */
static char *wall_west[] = {
/* columns rows colors chars-per-pixel */
"72 72 148 2 ",
"   c #000000",
".  c #010101",
"X  c #020202",
"o  c #030303",
"O  c #040404",
"+  c #050505",
"@  c #060606",
"#  c #070707",
"$  c #080808",
"%  c #090909",
"&  c #0A0A0A",
"*  c #0F0F0F",
"=  c #101010",
"-  c #111111",
";  c #181818",
":  c #1C1C1C",
">  c #1D1D1D",
",  c #1E1E1E",
"<  c #1F1F1F",
"1  c #222222",
"2  c #232323",
"3  c #242424",
"4  c #252525",
"5  c #262626",
"6  c #272727",
"7  c #282828",
"8  c #292929",
"9  c #2A2A2A",
"0  c #2B2B2B",
"q  c #2C2C2C",
"w  c #2D2D2D",
"e  c #303030",
"r  c #313131",
"t  c #323232",
"y  c #343434",
"u  c #353535",
"i  c #363636",
"p  c #373737",
"a  c #505050",
"s  c #515151",
"d  c #525252",
"f  c #535353",
"g  c #545454",
"h  c #555555",
"j  c #565656",
"k  c #5A5A5A",
"l  c #5B5B5B",
"z  c #5C5C5C",
"x  c #5D5D5D",
"c  c #5E5E5E",
"v  c #5F5F5F",
"b  c #606060",
"n  c #626262",
"m  c #696969",
"M  c #6B6B6B",
"N  c #6C6C6C",
"B  c #6D6D6D",
"V  c #6E6E6E",
"C  c #6F6F6F",
"Z  c #717171",
"A  c #727272",
"S  c #737373",
"D  c #747474",
"F  c #757575",
"G  c #767676",
"H  c #777777",
"J  c #787878",
"K  c #797979",
"L  c #7A7A7A",
"P  c #7B7B7B",
"I  c #7C7C7C",
"U  c #7D7D7D",
"Y  c #7E7E7E",
"T  c #808080",
"R  c #818181",
"E  c #828282",
"W  c #838383",
"Q  c #858585",
"!  c #868686",
"~  c #878787",
"^  c #888888",
"/  c #8C8C8C",
"(  c #8F8F8F",
")  c #959595",
"_  c #969696",
"`  c #979797",
"'  c #9D9D9D",
"]  c #9F9F9F",
"[  c #A0A0A0",
"{  c #A2A2A2",
"}  c #A3A3A3",
"|  c #A4A4A4",
" . c #A5A5A5",
".. c #A6A6A6",
"X. c #A7A7A7",
"o. c #ACACAC",
"O. c #ADADAD",
"+. c #AFAFAF",
"@. c #B0B0B0",
"#. c #B1B1B1",
"$. c #B2B2B2",
"%. c #BABABA",
"&. c #BCBCBC",
"*. c #BEBEBE",
"=. c #C0C0C0",
"-. c #C1C1C1",
";. c #C3C3C3",
":. c #C9C9C9",
">. c #CACACA",
",. c #CECECE",
"<. c #CFCFCF",
"1. c #D0D0D0",
"2. c #D1D1D1",
"3. c #D2D2D2",
"4. c #D3D3D3",
"5. c #D4D4D4",
"6. c #D7D7D7",
"7. c #D8D8D8",
"8. c #D9D9D9",
"9. c #DADADA",
"0. c #DBDBDB",
"q. c #DCDCDC",
"w. c #DDDDDD",
"e. c #DEDEDE",
"r. c #DFDFDF",
"t. c #E1E1E1",
"y. c #E2E2E2",
"u. c #E3E3E3",
"i. c #E4E4E4",
"p. c #E5E5E5",
"a. c #E6E6E6",
"s. c #E7E7E7",
"d. c #E8E8E8",
"f. c #E9E9E9",
"g. c #EAEAEA",
"h. c #EBEBEB",
"j. c #EEEEEE",
"k. c #EFEFEF",
"l. c #F0F0F0",
"z. c #F1F1F1",
"x. c #F2F2F2",
"c. c #F3F3F3",
"v. c #F4F4F4",
"b. c #F5F5F5",
"n. c #F6F6F6",
"m. c #F7F7F7",
"M. c #F8F8F8",
"N. c #F9F9F9",
/* pixels */
"M.M.M.M.M.M.M.M.M.M.M.M.M.M.M.M.M.M.M.M.M.M.M.M.M.M.M.M.m.m.m.M.M.M.M.M.M.M.M.M.m.m.m.M.M.M.M.M.M.M.M.M.M.M.M.M.M.M.M.M.M.M.M.M.M.M.M.M.M.M.M.M.",
"M.M.M.M.M.M.M.M.M.M.M.M.M.M.M.M.M.M.M.M.M.M.M.M.M.M.M.M.m.m.M.M.M.M.M.M.M.M.M.M.M.M.M.M.M.M.M.M.M.M.M.M.M.M.M.M.M.M.M.M.M.M.M.M.M.M.M.M.M.M.M.M.",
"M.M.M.M.M.M.M.M.M.M.M.M.M.M.M.M.M.M.M.M.M.M.M.M.M.M.M.M.M.m.s.:.*.+. .]  . .@.-.5.s.f.m.M.M.M.M.M.M.M.M.M.M.M.M.M.M.M.M.M.M.M.M.M.M.M.M.M.M.M.M.",
"M.M.M.M.M.M.M.M.M.M.M.M.M.M.M.M.M.M.M.M.M.M.M.M.M.M.M.M.M.m.M > $ o o o o o $ = > r d W @.q.m.M.M.M.M.M.M.M.M.M.M.M.M.M.M.M.M.M.M.M.M.M.M.M.M.M.",
"M.M.M.M.M.M.M.M.M.M.M.M.M.M.M.M.M.M.M.M.M.M.M.M.M.M.M.M.M.m.d o o o o o o o o o o o o o $ w c  .q.m.M.M.M.M.M.M.M.M.M.M.M.M.M.M.M.M.M.M.M.M.M.M.",
"M.M.M.M.M.M.M.M.M.M.M.M.M.M.M.M.M.M.M.M.M.M.M.M.M.M.M.M.M.m.d o o o o o o o o o o o o o o o o o r L :.m.m.M.M.M.M.M.M.M.M.M.M.M.M.M.M.M.M.M.M.M.",
"M.M.M.M.M.M.M.M.M.M.M.M.M.M.M.M.M.M.M.M.M.M.M.M.M.M.M.M.M.m.d o o o o o o o o o o o o o o o o o o o 2 L 5.m.m.M.M.M.M.M.M.M.M.M.M.M.M.M.M.M.M.M.",
"M.M.M.M.M.M.M.M.M.M.M.M.M.M.M.M.M.M.M.M.M.M.M.M.M.M.M.M.M.f.d o o o o o o o o o o o o o o o o o o o o o w ` s.m.M.M.M.M.M.M.M.M.M.M.M.M.M.M.M.M.",
"M.M.M.M.M.M.M.M.M.M.M.M.M.M.M.M.M.M.M.M.M.M.M.M.M.M.M.M.M.f.d o o o o o o o o o o o o o o o o o o o o o o o d :.m.M.M.M.M.M.M.M.M.M.M.M.M.M.M.M.",
"M.M.M.M.M.M.M.M.M.M.M.M.M.M.m.M.M.M.M.M.M.M.M.M.M.M.M.M.M.m.d o o o o o o o o o o o o o o o o o o o o o o o o 2  .m.m.M.M.M.M.M.M.M.M.M.M.M.M.M.",
"M.M.M.M.M.M.M.M.M.M.M.M.M.s.5.m.M.M.M.M.M.M.M.M.M.M.m.m.m.f.d o o o o o o o o o o o o o o o o o o o o o o o o o = W f.M.M.M.M.M.M.M.M.M.M.M.M.M.",
"M.M.M.M.M.M.M.M.M.M.M.M.s.M W m.M.M.M.M.M.M.M.M.M.M.m.m.M.f.d o o o o o o o o o o o o o o o o o o o o o o o o o o o Z s.M.M.M.M.M.M.M.M.M.M.M.M.",
"M.M.M.M.M.M.M.M.m.M.m.s.M o L m.M.M.M.M.M.M.M.M.M.M.M.M.m.f.d o o o o o o o o o o o o o o o o o o o o o o o o o o o o M s.M.M.M.M.M.M.M.M.M.M.M.",
"M.M.M.M.M.M.m.M.m.m.f.Z o o L m.M.M.M.M.M.M.M.M.M.M.M.M.m.f.d o o o o o o o o o o o o o o o o o o o o o o o o o o o o o Z f.M.M.M.M.M.M.M.M.M.M.",
"M.M.M.M.M.M.M.M.m.m.W o o o L m.M.M.M.M.M.M.M.M.M.M.M.M.M.f.d o o o o o o o o o o o o o o o o o o o o o o o o o o o o o o W m.M.M.M.M.M.M.M.M.M.",
"M.M.M.M.M.M.M.M.m. .= o o o L m.M.M.M.M.M.M.M.M.M.M.M.M.M.f.d o o o o o o o o o o o o o o o o o o o o o o o o o o o o o o =  .m.M.M.M.M.M.M.M.M.",
"M.M.M.M.M.M.M.m.:.w o o o o Z m.m.m.M.M.M.M.M.M.M.M.M.M.M.f.d o o o o o o o o o o o o o o o o o o o o o o o o o o o o o o o 2 :.m.M.M.M.M.M.M.M.",
"M.M.M.M.M.M.M.f.d o o o o o Z m.M.m.M.M.M.M.M.M.M.M.M.M.M.f.d o o o o o o o o o o o o o o o o o o o o o o o o o o o o o o o o d s.M.M.M.M.M.M.M.",
"M.M.M.M.M.M.m.` o o o o o o Z m.M.M.M.M.M.M.M.M.M.M.M.M.M.f.d o o o o o o o o o o o o o o o o o o o o o o o o o o o o o o o o o ` m.m.m.M.M.M.M.",
"M.M.M.M.M.M.5.w o o o o o o Z m.M.M.M.M.M.M.M.M.M.M.M.M.M.f.d o o o o o o o o o o o o o o o o o o o o o o o o o o o o o o o o o w 5.M.M.M.M.M.M.",
"m.m.m.m.M.m.L o o o o o o o Z m.M.M.M.M.M.M.M.M.M.M.M.M.M.f.d o o o o o o o o o o o o o o o o o o o o o o o o o o o o o o o o o o L m.M.M.M.M.M.",
"M.m.m.M.M.5.2 o o o o o o o Z m.M.M.M.M.M.M.M.M.M.M.M.M.M.m.d o o o o o o o o o o o o o o o o o o o o o o o o o o o o o o o o o o 2 :.M.M.M.M.M.",
"M.M.m.M.m.W o o o o o o o o Z m.M.M.M.M.M.M.M.M.M.M.m.m.m.f.d o o o o o o o o o o o o o o o o o o o o o o o o o o o o o o o o o o o W m.M.M.M.M.",
"M.M.m.M.q.r o o o o o o o o Z m.M.M.M.M.M.M.M.M.M.M.m.m.M.f.d o o o o o o o o o o o o o o o o o o o o o o o o o o o o o o o o o o o r q.M.M.M.M.",
"M.M.M.M. .o o o o o o o o o Z m.M.M.M.M.M.M.M.M.M.M.M.M.M.f.d o o o o o o o o o o o o o o o o o o o o o o o o o o o o o o o o o o o o  .M.M.M.M.",
"M.M.M.m.c o o o o o o o o o Z m.M.M.M.M.M.M.M.M.M.M.M.M.M.f.d o o o o o o o o o o o o o o o o o o o o o o o o o o o o o o o o o o o o c f.m.M.M.",
"M.M.M.q.2 o o o o o o o o o Z m.M.M.M.M.M.M.M.M.M.M.M.M.m.f.d o o o o o o o o o o o o o o o o o o o o o o o o o o o o o o o o o o o o 2 5.M.m.M.",
"M.M.M.@.$ o o o o o o o o o Z m.M.M.M.M.M.M.M.M.M.M.M.M.m.f.d o o o o o o o o o o o o o o o o o o o o o o o o o o o o o o o o o o o o o +.M.M.M.",
"M.M.m.W o o o o o o o o o o Z m.M.M.M.M.M.M.M.M.M.M.M.M.M.m.d o o o o o o o o o o o o o o o o o o o o o o o o o o o o o o o o o o o o o L m.M.M.",
"M.M.f.d o o o o o o o o o o Z m.M.M.M.M.M.M.M.M.M.M.M.M.M.m.d o o o o o o o o o o o o o o o o o o o o o o o o o o o o o o o o o o o o o d f.M.M.",
"M.M.s.r o o o o o o o o o o Z m.M.M.M.M.M.M.M.M.M.M.M.M.M.m.d o o o o o o o o o o o o o o o o o o o o o o o o o o o o o o o o o o o o o r s.M.M.",
"M.M.5.> o o o o o o o o o o L m.M.M.M.M.M.M.M.M.M.M.M.M.M.m.d o o o o o o o o o o o o o o o o o o o o o o o o o o o o o o o o o o o o o > 5.M.M.",
"m.M.*.$ o o o o o o o o o o L m.M.M.M.M.M.M.M.M.M.M.M.m.M.m.d o o o o o o o o o o o o o o o o o o o o o o o o o o o o o o o o o o o o o $ *.M.M.",
"M.M.@.o o o o o o o o o o o L m.M.M.M.M.M.M.M.M.M.m.M.m.M.m.d o o o o o o o o o o o o o o o o o o o o o o o o o o o o o o o o o o o o o o +.M.M.",
"M.M. .o o o o o o o o o o o L m.M.M.M.M.M.M.M.M.M.M.m.m.M.f.d o o o o o o o o o o o o o o o o o o o o o o o o o o o o o o o o o o o o o o  .M.M.",
"M.M. .o o o o o o o o o o o L m.M.M.M.M.M.M.M.M.M.M.M.m.M.f.d o o o o o o o o o o o o o o o o o o o o o o o o o o o o o o o o o o o o o o ] M.M.",
"M.M. .o o o o o o o o o o o L m.M.M.M.M.M.M.M.M.M.M.M.M.M.f.d o o o o o o o o o o o o o o o o o o o o o o o o o o o o o o o o o o o o o o ] M.M.",
"M.M. .o o o o o o o o o o o L m.M.M.M.M.M.M.M.M.M.M.M.M.M.f.d o o o o o o o o o o o o o o o o o o o o o o o o o o o o o o o o o o o o o o  .M.M.",
"M.M.@.$ o o o o o o o o o o L m.M.M.M.M.M.M.M.M.M.M.M.M.M.m.d o o o o o o o o o o o o o o o o o o o o o o o o o o o o o o o o o o o o o o +.M.M.",
"M.M.*.$ o o o o o o o o o o Z m.M.M.M.M.M.M.M.M.M.M.M.M.M.m.d o o o o o o o o o o o o o o o o o o o o o o o o o o o o o o o o o o o o o $ *.M.M.",
"M.M.q.M c c c c c c c c c c  .m.M.M.M.M.M.M.M.M.M.M.M.M.M.m.( c c c c c c c c c c c c c c c c c c c c c c c c c c c c c c c c c c n n n M q.M.M.",
"M.M.m.m.m.m.m.m.m.m.m.m.m.m.m.m.M.M.M.M.M.M.M.M.M.M.M.M.M.m.m.m.m.m.m.m.m.m.m.m.m.m.m.m.m.m.m.m.m.m.m.m.m.m.m.m.m.m.m.m.m.m.m.m.m.m.m.m.m.m.m.m.",
"M.M.M.M.m.m.M.M.M.M.M.M.M.m.m.m.M.M.M.M.M.M.M.M.M.M.M.M.M.M.M.M.m.m.m.m.M.M.M.M.m.m.m.m.M.M.M.M.M.M.M.m.M.M.M.M.m.m.m.m.m.m.M.m.M.M.M.M.M.M.m.m.",
"M.M.M.M.m.m.m.m.M.M.M.M.m.m.m.m.M.M.M.M.M.M.M.M.M.M.M.M.M.M.M.M.m.m.m.m.m.M.M.M.m.m.m.m.m.m.M.M.M.M.m.m.M.M.M.M.m.m.m.m.m.m.m.m.M.M.M.M.M.M.m.M.",
"M.M.M.M.m.m.m.m.M.M.M.M.M.M.M.M.M.M.M.M.M.M.M.M.M.M.M.M.M.M.M.M.m.m.M.M.M.M.M.M.m.m.M.M.M.M.M.M.m.m.m.m.M.M.M.m.M.M.M.M.m.M.M.M.M.M.M.M.M.M.M.M.",
"M.M.M.M.m.M.M.M.M.M.M.M.M.M.M.M.M.M.M.M.M.M.M.M.M.M.M.M.M.M.M.M.M.M.M.M.M.M.M.M.M.M.M.M.M.M.M.M.M.M.M.M.M.M.M.M.M.M.M.M.M.M.M.M.M.M.M.M.M.M.M.M.",
"M.M.M.m.f.q.q.q.q.q.q.q.q.q.s.m.M.M.M.M.M.M.M.M.M.M.M.M.M.m.s.q.q.q.q.q.q.q.q.q.q.q.q.q.q.q.q.q.q.q.q.q.q.q.q.q.q.q.q.q.q.q.q.q.q.q.q.f.m.M.M.M.",
"M.M.M.M.-.r w w w w w w w 2 ( m.M.M.M.M.M.M.M.M.M.M.M.M.M.m.M 2 w w w w w w w w w w w w w w 2 w w w w w w w w w w w w w w w w w w w r *.M.M.M.M.",
"M.M.M.M.s.r o o o o o o o o Z m.M.M.M.M.M.M.M.M.M.M.M.M.M.f.d o o o o o o o o o o o o o o o o o o o o o o o o o o o o o o o o o o o w q.M.M.M.M.",
"M.M.M.M.m.( o o o o o o o o Z m.M.M.M.M.M.M.M.M.M.M.M.M.M.f.d o o o o o o o o o o o o o o o o o o o o o o o o o o o o o o o o o o o W m.m.M.M.M.",
"M.M.M.M.M.5.2 o o o o o o o Z m.M.M.M.M.M.M.M.M.M.M.M.M.M.f.d o o o o o o o o o o o o o o o o o o o o o o o o o o o o o o o o o o 2 :.M.M.m.m.m.",
"M.M.M.M.M.m.L o o o o o o o Z m.M.M.M.M.M.M.M.M.M.M.M.M.M.m.d o o o o o o o o o o o o o o o o o o o o o o o o o o o o o o o o o o L m.M.m.m.m.m.",
"M.M.M.M.M.M.5.w o o o o o o Z m.M.M.M.M.M.M.M.M.M.M.M.M.M.m.d o o o o o o o o o o o o o o o o o o o o o o o o o o o o o o o o o w 5.M.M.M.M.M.M.",
"M.M.M.M.M.M.m.` o o o o o o Z m.M.M.M.M.M.M.M.M.M.M.M.M.M.m.d o o o o o o o o o o o o o o o o o o o o o o o o o o o o o o o o o ` m.M.M.M.M.M.M.",
"M.M.M.M.M.M.M.s.d o o o o o Z m.M.M.M.M.M.M.M.M.M.M.M.M.M.m.d o o o o o o o o o o o o o o o o o o o o o o o o o o o o o o o o d f.M.M.M.M.M.M.M.",
"M.M.M.M.M.M.M.M.:.2 o o o o Z m.M.M.M.M.M.M.M.M.M.M.M.M.M.f.d o o o o o o o o o o o o o o o o o o o o o o o o o o o o o o o w :.m.M.M.M.M.M.M.M.",
"M.M.M.M.M.M.M.M.m. .= o o o Z m.M.M.M.M.M.M.M.M.M.M.M.M.M.f.d o o o o o o o o o o o o o o o o o o o o o o o o o o o o o o =  .m.M.M.M.M.M.M.M.M.",
"M.M.M.M.M.M.M.M.m.f.W o o o Z m.M.M.M.M.M.M.M.M.M.M.M.M.M.m.d o o o o o o o o o o o o o o o o o o o o o o o o o o o o o o W m.m.M.M.M.M.M.M.M.M.",
"M.M.M.M.M.M.M.M.m.m.f.Z o o Z m.M.M.M.M.M.M.M.M.M.M.m.m.M.f.d o o o o o o o o o o o o o o o o o o o o o o o o o o o o o Z f.m.M.M.M.M.M.M.M.M.M.",
"M.M.M.M.M.M.M.M.m.m.M.s.M o Z m.M.M.M.M.M.M.M.M.M.M.m.m.M.f.d o o o o o o o o o o o o o o o o o o o o o o o o o o o o M s.m.M.m.M.M.M.M.M.M.M.M.",
"M.M.M.M.M.M.M.M.M.M.M.M.s.Z W m.M.M.M.M.M.M.M.M.M.M.M.M.m.f.a o o o o o o o o o o o o o o o o o o o o o o o o o o o Z s.M.M.M.M.M.M.M.M.M.M.M.M.",
"M.M.M.M.M.M.M.M.M.M.M.M.m.f.5.m.M.M.M.M.M.M.M.M.M.M.M.M.m.f.a o o o o o o o o o o o o o o o o o o o o o o o o o = W f.M.M.M.M.M.M.M.M.M.M.M.M.M.",
"M.M.M.M.M.M.M.M.M.M.M.M.M.M.m.M.M.M.M.M.M.M.M.M.M.M.M.M.m.f.d o o o o o o o o o o o o o o o o o o o o o o o o w  .m.M.M.M.M.M.M.M.M.M.M.M.M.M.M.",
"M.M.M.M.M.M.M.M.M.M.M.M.M.M.M.M.M.M.M.M.M.M.M.M.M.M.M.M.m.f.a o o o o o o o o o o o o o o o o o o o o o o o d :.m.M.M.M.M.M.M.M.M.M.M.M.M.M.M.M.",
"M.M.M.M.M.M.M.M.M.M.M.M.M.M.M.M.M.M.M.M.M.M.M.M.M.M.M.M.M.f.d o o o o o o o o o o o o o o o o o o o o o w ` s.m.M.M.M.M.M.M.M.M.M.M.M.M.M.M.M.M.",
"M.M.M.M.M.M.M.M.M.M.M.M.M.M.M.M.M.M.M.M.M.M.M.M.M.M.M.M.M.m.d o o o o o o o o o o o o o o o o o o o 2 L 5.m.M.M.M.M.M.M.M.M.M.M.M.M.M.M.M.M.M.M.",
"M.M.M.M.M.M.M.M.M.M.M.M.M.M.M.M.M.M.M.M.M.M.M.M.M.M.M.M.M.f.d o o o o o o o o o o o o o o o o o r W :.m.m.M.M.M.M.M.M.M.M.M.M.M.M.M.M.M.M.M.M.M.",
"M.M.M.M.M.M.M.M.M.M.M.M.M.M.M.M.M.M.M.M.M.M.M.M.M.M.M.M.M.m.d o o o o o o o o o o o o o $ w n  .q.m.m.m.M.M.m.M.M.M.M.M.M.M.M.M.M.M.M.M.M.M.M.M.",
"M.M.M.M.M.M.M.M.M.M.M.M.M.M.M.M.M.M.M.M.M.M.M.M.M.M.M.M.M.m.Z > = $ o o o o $ = > r d W @.q.m.M.M.M.M.M.M.M.M.M.M.M.M.M.M.M.M.M.M.M.M.M.M.M.M.M.",
"M.M.M.M.M.M.M.M.M.M.M.M.M.M.M.M.M.M.M.M.M.M.M.M.M.M.M.M.M.m.s.5.-.@. .] ]  .@.-.5.s.f.m.M.M.M.M.M.M.M.M.M.M.M.M.M.M.M.M.M.M.M.M.M.M.M.M.M.M.M.M.",
"M.M.M.M.M.M.M.M.M.M.M.M.M.M.M.M.M.M.M.M.M.M.M.M.M.M.m.m.M.M.M.M.M.M.M.M.M.M.M.M.M.M.m.m.M.M.M.M.M.M.M.M.M.M.M.M.M.M.M.M.M.M.M.M.M.M.M.M.M.M.M.M.",
"M.M.M.M.M.M.M.M.M.M.M.M.M.M.M.M.M.M.M.M.M.M.M.M.M.M.m.M.M.M.M.m.M.M.M.M.M.M.M.M.m.m.m.m.M.M.M.M.M.M.M.M.M.M.M.M.M.M.M.M.M.M.M.M.M.M.M.M.M.M.M.M."
};
