/* XPM */
static char *dummy[]={
"72 72 67 2",
".g c #000000",
".k c #010101",
".l c #020202",
".5 c #030303",
".p c #040404",
".j c #050505",
".q c #060606",
".0 c #070707",
".2 c #080808",
".1 c #090909",
".x c #0a0a0a",
".3 c #0b0b0b",
".m c #0d0d0d",
".w c #0e0e0e",
".W c #0f0f0f",
".X c #121212",
".V c #141414",
".Y c #161616",
".Z c #191919",
".4 c #1a1a1a",
".d c #1e1e1e",
".c c #222222",
".o c #303030",
"## c #333333",
".6 c #363636",
".n c #383838",
".8 c #393939",
".R c #3a3a3a",
".T c #3b3b3b",
"#a c #3c3c3c",
".7 c #3d3d3d",
"#. c #3e3e3e",
".9 c #3f3f3f",
".U c #404040",
".N c #414141",
".Q c #424242",
".G c #434343",
".S c #444444",
".K c #454545",
".M c #464646",
".v c #474747",
".L c #484848",
".F c #494949",
".P c #4a4a4a",
".y c #4b4b4b",
".H c #4c4c4c",
".J c #4d4d4d",
".E c #4e4e4e",
".b c #4f4f4f",
".e c #505050",
".I c #515151",
".# c #525252",
".B c #535353",
".z c #545454",
".C c #555555",
".s c #565656",
".A c #575757",
".u c #585858",
".h c #595959",
".D c #5a5a5a",
".t c #5b5b5b",
".O c #5c5c5c",
".f c #5d5d5d",
".i c #5e5e5e",
".r c #5f5f5f",
".a c #606060",
"Qt c #616161",
"QtQtQt.#.a.b.c.d.e.fQtQtQtQtQtQtQtQtQtQtQt.g.gQtQtQtQtQtQtQtQtQt.h.i.#.aQtQt.j.k.g.g.g.g.l.l.m.n.o.l.p.q.g.gQtQtQtQtQtQtQtQtQtQtQtQtQtQtQtQtQtQt",
"QtQtQtQt.a.a.r.r.iQtQtQtQtQtQtQtQtQtQtQtQt.g.gQtQtQtQtQtQtQtQt.a.h.r.s.tQtQt.u.v.q.g.q.g.j.q.w.x.q.#.f.y.z.h.i.a.bQtQtQtQtQtQtQtQtQtQtQtQtQtQtQt",
"Qt.a.r.f.A.A.u.B.iQtQtQtQtQtQtQtQtQtQtQtQt.g.gQtQtQtQtQtQtQtQt.h.r.a.u.z.h.z.b.C.v.rQtQt.D.E.B.F.G.H.h.v.h.B.DQt.I.aQtQtQtQtQtQtQtQtQtQtQtQtQtQt",
"QtQt.f.t.a.a.tQt.i.h.CQtQtQtQtQtQtQtQtQtQt.g.gQtQtQtQtQtQtQt.a.C.J.A.z.C.I.s.a.a.#.sQt.a.t.K.L.M.N.z.K.t.a.t.i.r.I.iQtQtQtQtQtQtQtQtQtQtQtQtQtQt",
"QtQt.t.i.a.D.a.i.t.O.aQtQtQtQtQtQtQtQtQtQt.g.gQtQtQtQtQtQtQt.b.B.D.A.e.O.e.a.a.i.s.z.#.s.N.b.e.J.f.D.J.AQt.i.t.h.D.rQtQtQtQtQtQtQtQtQtQtQtQtQtQt",
"QtQt.f.i.O.I.h.fQtQtQtQtQtQtQtQtQtQtQtQtQt.g.gQtQtQtQtQtQtQtQt.i.s.I.J.I.#.z.t.t.h.F.A.P.C.s.Q.C.DQt.u.H.tQt.B.fQtQtQtQtQtQtQtQtQtQtQtQtQtQtQtQt",
"QtQt.O.z.s.i.i.C.hQtQtQtQtQtQtQtQtQtQtQtQt.g.gQtQtQtQtQtQtQtQt.I.z.r.J.J.L.Q.i.t.s.L.E.t.#.s.K.CQtQt.i.#.h.f.z.iQtQtQtQtQtQtQtQtQtQtQtQtQtQtQtQt",
"QtQt.D.A.C.t.O.OQtQtQtQtQtQtQtQtQtQtQtQtQt.g.gQtQtQtQtQtQtQtQt.O.h.E.G.D.C.R.v.#.E.z.A.A.t.b.S.uQtQtQt.u.b.e.f.OQtQtQtQtQtQtQtQtQtQtQtQtQtQtQtQt",
"Qt.a.D.i.rQt.O.aQtQtQtQtQtQtQtQtQtQtQtQtQt.g.gQtQtQtQtQtQtQtQtQt.h.D.G.H.s.e.L.T.P.S.B.u.D.v.y.C.t.hQt.t.h.t.D.tQtQtQtQtQtQtQtQtQtQtQtQtQtQtQtQt",
"QtQt.D.fQt.i.rQtQtQtQtQtQtQtQtQtQtQtQtQtQt.g.gQtQtQtQtQtQtQt.O.#.t.s.K.B.t.C.P.I.U.K.B.z.H.P.b.E.s.B.a.D.AQt.r.#.iQtQtQtQtQtQtQtQtQtQtQtQtQtQtQt",
"QtQtQt.f.t.fQt.a.t.rQtQtQtQtQtQtQtQtQtQtQt.g.gQtQtQtQtQtQtQt.O.u.t.t.I.y.J.M.B.b.e.J.F.K.I.J.A.e.A.h.h.B.C.f.i.t.A.rQtQtQtQtQtQtQtQtQtQtQtQtQtQt",
"QtQtQtQt.h.z.h.A.s.rQtQtQtQtQtQtQtQtQtQtQt.g.gQtQtQtQtQtQtQtQtQtQtQt.t.u.e.E.D.B.t.u.E.J.y.y.A.v.#.h.A.i.h.O.t.u.z.u.CQtQtQtQtQtQtQtQtQtQtQtQtQt",
"QtQt.r.i.f.#.t.rQtQtQtQtQtQtQtQtQtQtQtQtQt.g.gQtQtQtQtQtQtQtQtQtQtQt.s.h.v.y.M.s.s.B.e.u.B.I.E.P.E.h.#Qt.O.fQtQt.u.a.fQtQtQtQtQtQtQtQtQtQtQtQtQt",
"QtQt.C.h.r.r.rQtQtQtQtQtQtQtQtQtQtQtQtQtQt.g.gQtQtQtQtQtQtQtQtQtQt.D.u.f.#.M.A.B.L.I.C.A.O.f.B.E.e.A.h.D.#.BQtQt.t.iQtQtQtQtQtQtQtQtQtQtQtQtQtQt",
"QtQt.A.D.i.OQtQtQtQtQtQtQtQtQtQtQtQtQtQtQt.g.gQtQtQtQtQtQtQtQtQt.u.r.t.u.s.B.#.b.I.J.C.DQtQt.u.z.F.D.h.#.C.BQtQt.i.tQtQtQtQtQtQtQtQtQtQtQtQtQtQt",
"QtQt.r.h.h.OQtQtQtQtQtQtQtQtQtQtQtQtQtQtQt.g.gQtQtQtQtQtQtQt.i.z.t.h.C.B.O.s.H.r.O.e.z.C.rQt.f.u.z.C.s.z.e.C.iQt.a.hQtQtQtQtQtQtQtQtQtQtQtQtQtQt",
".aQt.a.r.s.fQtQtQtQtQtQtQtQtQtQtQtQtQtQtQt.g.gQtQtQtQtQtQtQt.E.A.f.a.h.s.h.A.aQtQt.f.B.a.O.t.#.e.Q.C.u.u.H.E.sQtQt.D.rQtQtQtQtQtQtQtQtQtQtQtQtQt",
".aQt.DQt.t.s.fQtQtQtQtQtQtQtQtQtQtQtQtQtQt.g.gQtQtQtQtQtQtQtQtQtQtQt.i.A.sQtQtQtQt.r.iQtQt.r.D.u.D.r.f.D.L.G.H.e.A.z.tQtQtQtQtQtQtQtQtQtQtQtQtQt",
"QtQt.f.D.f.s.h.tQtQtQtQtQtQtQtQt.z.tQtQtQt.g.gQtQtQtQtQtQtQtQtQtQtQt.O.AQtQtQtQtQtQtQtQtQtQtQt.t.aQtQtQt.s.a.i.D.z.H.uQtQtQtQtQtQtQtQtQtQtQtQtQt",
"QtQtQtQt.i.D.e.t.DQtQtQtQtQtQtQt.z.B.aQtQt.g.gQtQtQtQtQtQtQtQtQtQtQt.I.OQtQtQtQtQtQtQtQtQtQtQtQtQtQtQtQtQtQtQtQtQt.t.DQtQtQtQtQtQtQtQtQtQtQtQtQt",
"QtQtQtQtQtQt.i.D.sQtQtQtQtQtQtQt.h.i.hQtQt.g.gQtQtQtQtQtQtQtQtQtQtQtQtQtQtQtQtQtQtQtQtQtQtQtQtQtQtQtQtQtQtQtQtQtQtQtQtQtQtQtQtQtQtQtQtQtQtQtQtQt",
"QtQtQtQtQtQtQt.z.rQtQtQtQtQtQtQt.AQt.i.tQt.g.g.h.hQtQtQtQtQtQtQtQtQtQtQtQtQtQtQtQtQtQtQtQtQtQtQtQtQtQtQtQtQtQtQtQtQtQtQtQtQtQtQtQtQtQtQtQtQtQtQt",
"QtQtQtQtQtQtQtQtQtQtQtQtQtQtQt.a.hQt.r.A.A.g.g.A.CQtQtQtQtQtQtQtQtQtQtQtQtQtQtQtQtQtQtQtQtQtQtQtQtQtQtQtQt.e.DQtQtQtQtQtQtQtQtQtQtQtQtQtQtQtQtQt",
"QtQtQtQtQtQtQtQtQtQtQtQtQt.r.h.h.B.u.D.O.A.g.g.i.z.P.AQtQtQtQtQtQtQtQtQtQtQtQtQtQtQtQtQtQtQtQtQtQtQtQtQtQt.a.u.aQtQtQtQtQtQtQtQtQtQtQtQtQtQtQtQt",
".g.g.g.g.g.g.g.g.g.g.g.g.g.g.g.g.g.g.g.g.g.g.g.g.g.g.g.g.g.g.g.g.g.g.k.q.x.V.W.X.m.Y.w.Z.W.W.x.V.0.q.g.1.g.g.k.m.2.g.g.g.g.g.g.g.g.g.g.g.g.g.g.g",
".g.g.g.g.g.g.g.g.g.g.g.g.g.g.g.g.g.g.g.g.g.g.g.g.g.g.g.g.g.g.g.g.g.g.3.4.x.q.j.j.p.5.l.k.g.g.g.g.g.g.g.g.g.g.g.g.g.g.g.g.g.g.g.g.g.g.g.g.g.g.g.g",
"QtQtQtQtQtQtQtQtQtQtQtQt.h.C.F.y.e.B.y.I.s.D.A.A.s.s.I.uQtQtQtQtQtQtQtQtQtQtQtQtQtQtQtQtQtQtQtQtQtQt.g.gQtQtQtQtQt.h.rQtQtQtQtQtQtQtQtQtQtQt.D.I",
"QtQtQtQtQtQtQtQtQtQtQt.t.Q.s.B.F.B.#.z.z.aQtQt.t.u.u.u.C.rQtQtQtQtQtQtQtQtQtQtQtQtQtQtQtQtQtQtQtQtQt.g.gQtQtQtQtQtQt.h.rQtQtQtQtQtQtQtQtQt.D.zQt",
"QtQtQtQtQtQtQtQtQtQtQt.i.u.i.A.M.fQt.r.t.#.fQtQt.C.s.D.A.tQtQtQtQtQtQtQtQtQtQtQtQtQtQtQtQtQtQtQtQtQt.g.gQtQtQtQtQtQtQt.D.iQtQtQtQtQtQt.r.u.s.aQt",
"QtQtQtQtQtQtQtQtQtQtQt.C.h.t.z.T.I.rQtQt.r.B.A.r.i.E.O.u.u.aQtQtQtQtQtQtQtQtQtQtQtQtQtQtQtQtQtQtQtQt.g.gQtQtQtQtQtQtQtQt.D.iQtQtQtQt.i.h.B.tQtQt",
"QtQtQtQtQtQtQtQtQtQt.h.y.rQt.O.6.E.I.z.t.iQt.A.s.D.I.C.t.D.tQtQtQtQtQtQtQtQtQtQtQtQtQtQtQtQtQtQtQtQt.g.gQtQtQtQtQtQtQtQtQt.t.fQtQt.O.tQt.O.sQtQt",
"QtQtQtQtQtQtQtQtQtQtQt.rQtQt.a.y.E.O.t.z.z.s.t.u.h.J.#.h.t.uQtQtQtQtQtQtQtQtQtQtQtQtQtQtQtQtQtQtQtQt.g.gQtQtQtQtQtQtQtQtQtQt.t.f.D.fQtQtQt.f.tQt",
"QtQtQtQtQtQtQtQtQtQtQtQtQtQt.r.#.b.t.tQt.i.h.A.u.z.y.#.e.I.O.OQtQtQtQtQtQtQtQtQtQtQtQtQtQtQtQtQtQtQt.g.gQtQtQtQtQtQtQtQtQtQt.r.B.DQtQtQtQtQt.h.r",
"QtQtQtQtQtQtQtQtQtQtQtQtQtQt.O.z.J.i.f.DQtQt.r.t.h.b.E.h.K.b.#QtQtQtQtQtQtQtQtQtQtQtQtQtQtQtQtQtQtQt.g.gQtQtQtQtQtQtQtQtQt.i.hQt.O.OQtQtQtQt.r.h",
"QtQtQtQtQtQtQtQtQtQtQtQtQtQt.r.O.e.hQt.r.u.r.a.r.f.e.M.e.N.b.v.E.sQtQtQtQtQtQtQtQtQtQtQtQtQtQtQtQtQt.g.gQtQtQtQtQtQtQtQt.O.tQtQtQt.O.OQtQtQtQt.O",
"QtQtQtQtQtQtQtQtQtQtQtQtQtQtQt.r.M.E.h.h.A.e.e.B.B.e.b.s.L.y.C.r.rQtQtQtQtQtQtQtQtQtQtQtQtQtQtQtQtQt.g.gQtQtQtQtQtQt.a.h.O.a.r.r.r.r.t.D.iQtQtQt",
"QtQtQtQtQtQtQtQtQtQtQtQtQtQtQt.a.s.C.r.aQtQt.#.O.a.O.AQt.D.t.rQtQtQtQtQtQtQtQtQtQtQtQtQtQtQtQtQtQtQt.g.gQt.#.J.A.u.s.e.s.h.h.h.h.h.h.D.u.uQtQtQt",
"QtQtQtQtQtQtQtQtQtQtQtQtQtQtQtQtQt.e.aQtQtQtQtQtQtQtQtQt.t.iQtQtQtQtQtQtQtQtQtQtQtQtQtQtQtQtQtQtQtQt.g.gQtQt.D.i.f.hQtQtQtQtQtQtQtQtQtQtQtQt.a.i",
"QtQtQtQtQtQtQtQtQtQtQtQtQtQtQtQtQtQtQtQtQtQtQtQtQtQtQtQt.t.iQtQtQtQtQtQtQtQtQtQtQtQtQtQtQtQtQtQtQtQt.g.gQtQtQt.#.AQtQtQtQtQtQtQtQtQtQt.r.O.h.u.t",
"QtQtQtQtQtQtQtQtQtQtQtQtQtQtQtQtQtQtQtQtQtQtQtQtQtQtQtQt.t.iQtQtQtQtQtQtQtQtQtQtQtQtQtQtQtQtQtQtQtQt.g.gQtQtQt.O.iQtQtQtQtQtQtQt.i.t.u.h.O.rQtQt",
"QtQtQtQtQtQtQtQtQtQtQtQtQtQtQtQtQtQtQtQtQtQtQtQtQtQtQtQt.t.fQtQtQtQtQtQtQtQtQtQtQtQtQtQtQtQtQtQtQtQt.g.gQtQtQtQtQtQtQtQt.r.f.D.u.t.f.r.r.f.D.rQt",
"QtQtQtQtQtQtQtQtQtQtQtQtQtQtQtQtQtQtQtQtQtQtQtQtQtQtQtQt.s.tQtQtQtQtQtQtQtQtQtQtQtQtQtQtQtQtQtQtQtQt.g.gQtQtQtQtQt.i.O.A.A.u.h.D.h.u.h.D.t.D.iQt",
"QtQtQtQtQtQtQtQtQtQtQtQtQtQtQtQtQtQtQtQtQtQtQtQtQtQtQtQt.h.fQtQtQtQtQtQtQtQtQtQtQtQtQtQtQtQtQtQtQtQt.g.gQt.a.B.C.I.B.z.A.D.O.f.i.rQtQtQtQtQtQtQt",
"QtQtQtQtQtQtQtQtQtQtQtQtQtQtQtQtQtQtQtQtQtQtQtQtQtQtQtQtQtQtQtQtQtQtQtQtQtQtQtQtQtQtQtQtQtQtQtQtQtQt.g.gQt.u.H.D.r.aQtQtQtQtQtQtQtQtQtQtQtQtQtQt",
"QtQtQtQtQtQtQtQtQtQtQtQtQtQtQtQtQtQtQtQtQtQtQtQtQtQtQtQtQtQtQtQtQtQtQtQtQtQtQtQtQtQtQtQtQtQtQtQtQtQt.g.gQtQtQtQtQtQtQtQtQtQtQtQtQtQtQtQtQtQtQtQt",
"QtQtQtQtQtQtQtQtQtQtQtQtQtQtQtQtQtQtQtQtQtQtQtQtQtQtQtQtQtQtQtQtQtQtQtQtQtQtQtQtQtQtQtQtQtQtQtQtQtQt.g.gQtQtQtQtQtQtQtQtQtQtQtQtQtQtQtQtQtQtQtQt",
".g.g.g.g.g.g.g.g.g.g.g.g.g.g.g.g.g.g.g.g.g.g.g.g.g.g.g.g.g.g.g.g.g.g.g.g.g.g.g.g.g.g.g.g.g.g.g.g.g.g.g.g.g.g.g.g.g.g.g.g.g.g.g.g.g.g.g.g.g.g.g.g",
".g.g.g.g.g.g.g.g.g.g.g.g.g.g.g.g.g.g.g.g.g.g.g.g.g.g.g.g.g.g.g.g.g.g.g.g.g.g.g.g.g.g.g.g.g.g.g.g.g.g.g.g.g.g.g.g.g.g.g.g.g.g.g.g.g.g.g.g.g.g.g.g",
"QtQtQtQtQtQtQtQtQtQtQtQtQtQtQtQtQtQtQtQtQt.g.gQtQtQtQtQtQtQtQtQtQtQtQtQtQtQtQtQtQtQtQtQtQtQtQtQtQtQtQtQtQtQtQtQtQtQtQtQtQtQtQtQtQtQtQtQtQtQtQtQt",
"QtQtQtQtQtQtQtQtQtQtQtQtQtQtQtQtQtQtQtQtQt.g.gQtQtQtQtQtQtQtQtQtQtQtQtQtQtQtQtQtQtQtQtQtQtQtQtQtQtQtQtQtQtQtQtQtQtQtQtQtQtQtQtQtQtQtQtQtQtQtQtQt",
"QtQtQtQtQtQtQtQtQtQtQtQtQtQtQtQtQtQtQtQtQt.g.gQtQtQtQtQtQtQtQtQtQtQtQtQtQtQtQtQtQtQtQtQtQtQtQtQtQtQtQtQtQtQtQtQtQtQtQtQtQtQtQtQtQtQtQtQtQtQtQtQt",
"QtQtQtQtQtQtQtQtQtQtQtQtQtQtQtQtQtQtQtQtQt.g.gQtQtQtQtQtQtQtQtQtQtQtQtQtQtQtQtQtQtQtQtQtQtQtQtQtQtQtQtQtQtQtQtQtQtQtQtQtQtQtQtQtQtQtQtQtQtQtQtQt",
"QtQtQtQtQtQtQtQtQtQtQtQtQtQtQtQtQtQtQtQtQt.g.gQtQtQtQtQtQtQtQtQtQtQt.I.OQtQtQtQtQtQtQtQtQtQtQtQtQtQtQtQtQtQtQtQtQt.t.DQtQtQtQtQtQtQtQtQtQtQtQtQt",
"QtQtQtQtQtQtQtQtQtQtQtQtQtQtQtQtQtQtQtQtQt.g.gQtQtQtQtQtQtQtQtQtQtQt.O.AQtQtQtQtQtQtQtQtQtQtQt.h.rQtQtQt.z.r.i.u.e.y.uQtQtQtQtQtQtQtQtQtQtQtQtQt",
".h.gQtQtQtQtQtQtQtQtQtQtQtQtQtQtQtQtQtQtQt.g.gQtQtQtQtQtQtQtQtQtQtQt.i.A.sQtQtQtQt.r.fQtQt.i.h.z.h.i.f.h.G.Q.F.b.A.z.tQtQtQtQtQtQtQtQtQtQtQtQtQt",
".N.gQtQtQtQtQtQtQtQtQtQtQtQtQtQtQtQtQtQtQt.g.gQtQtQtQtQtQtQt.E.A.f.a.u.z.h.s.aQtQt.h.y.a.t.D.J.F.7.z.A.#.H.H.CQtQt.h.rQtQtQtQtQtQtQtQtQtQtQtQtQt",
".8.gQtQtQtQtQtQtQtQtQtQtQtQtQtQtQtQtQtQtQt.g.gQtQtQtQtQtQtQt.i.z.t.h.z.e.O.s.F.r.t.P.e.#.iQt.O.A.E.B.B.I.E.C.iQt.a.uQtQtQtQtQtQtQtQtQtQtQtQtQtQt",
".e.gQtQtQtQtQtQtQtQtQtQtQtQtQtQtQtQtQtQtQt.g.gQtQtQtQtQtQtQtQtQt.u.r.t.A.C.e.E.H.e.L.#.uQtQt.A.B.G.A.C.H.C.BQtQt.i.tQtQtQtQtQtQtQtQtQtQtQtQtQtQt",
".#.g.aQtQtQtQtQtQtQtQtQtQtQtQtQtQtQtQtQtQt.g.gQtQtQtQtQtQtQtQtQtQt.D.u.f.b.G.z.e.M.E.b.z.t.O.#.H.y.A.s.h.I.#QtQt.t.iQtQtQtQtQtQtQtQtQtQtQtQtQtQt",
".s.L.DQtQtQtQtQtQtQtQtQtQtQtQtQtQtQtQtQtQt.g.gQtQtQtQtQtQtQtQtQtQtQt.C.h.N.Q.G.I.B.e.H.s.I.H.F.L.F.A.bQt.t.fQtQt.A.a.fQtQtQtQtQtQtQtQtQtQtQtQtQt",
".f.D.B.iQt.z.hQtQtQtQtQtQtQtQtQtQtQtQtQtQt.g.gQtQtQtQtQtQtQtQtQtQtQt.D.u.E.M.u.e.h.s.M.K.G.G.J.U.L.A.z.i.s.O.t.A.#.u.CQtQtQtQtQtQtQtQtQtQtQtQtQt",
".D.z.C.z.h.y.f.r.aQtQtQtQtQtQtQtQtQtQtQtQt.g.gQtQtQtQtQtQtQt.O.u.t.t.I.P.H.S.I.E.F.P.S.9.M.v.z.M.e.#.s.b.B.O.i.D.C.iQtQtQtQtQtQtQtQtQtQtQtQtQtQt",
".g.z.s.A.F.B.h.A.C.B.y.iQtQtQtQtQtQtQtQtQt.g.gQtQtQtQtQtQtQt.O.#.t.s.S.#.t.z.L.E#.#..e.e.9.v.F.K.e.e.a.h.sQt.r.I.iQtQtQtQtQtQtQtQtQtQtQtQtQtQtQt",
".g.D.h.b.B.E.A.D.t.f.rQtQtQtQtQtQtQtQtQtQt.g.gQtQtQtQtQtQtQtQtQt.h.D.U.H.s.b.M##.L.Q.E.z.A.U.L.B.s.uQt.D.u.D.u.hQtQtQtQtQtQtQtQtQtQtQtQtQtQtQtQt",
".g.g.I.e.z.r.AQtQtQtQtQtQtQtQtQtQtQtQtQtQt.g.gQtQtQtQtQtQtQtQt.O.h.H.G.D.z.6.K.b.L.I.z.B.h.v#..AQtQtQt.A.J.y.O.OQtQtQtQtQtQtQtQtQtQtQtQtQtQtQtQt",
".E.g.I.D.CQt.a.IQtQtQtQtQtQtQtQtQtQtQtQtQt.g.gQtQtQtQtQtQtQtQt.I.B.r.J.H.S#..f.h.z.K.H.h.b.B#a.IQtQt.i.e.u.f.z.iQtQtQtQtQtQtQtQtQtQtQtQtQtQtQtQt",
".K.q.h.#.E.h.e.LQtQtQtQtQtQtQtQtQtQtQtQtQt.g.gQtQtQtQtQtQtQtQt.i.s.I.H.H.b.z.h.t.A.L.C.v.B.z#a.B.hQt.B.y.tQt.B.fQtQtQtQtQtQtQtQtQtQtQtQtQtQtQtQt",
".9.g.b.9.L.z.t.tQt.A.rQtQtQtQtQtQtQtQtQtQt.g.gQtQtQtQtQtQtQt.H.I.D.s.b.t.e.a.r.i.B.I.e.C#..H.Q.S.f.h.y.CQt.i.t.h.D.rQtQtQtQtQtQtQtQtQtQtQtQtQtQt",
".k.g.G.G.t.D.u.s.u.#.B.iQtQtQtQtQtQtQtQtQt.g.gQtQtQtQtQtQtQt.r.C.H.A.I.C.I.C.a.a.I.CQt.a.t.S.7.7.U.B.K.h.a.t.i.r.I.iQtQtQtQtQtQtQtQtQtQtQtQtQtQt",
".g.g.A.b.s.P.s.t.O.u.A.rQtQtQtQtQtQtQtQtQt.g.gQtQtQtQtQtQtQtQt.h.i.a.A.z.h.#.H.C.v.rQtQt.h.L.E.K.N.F.h.M.s.I.DQt.I.aQtQtQtQtQtQtQtQtQtQtQtQtQtQt",
".g.g.z.t.i.u.B.A.O.aQtQtQtQtQtQtQtQtQtQtQt.g.gQtQtQtQtQtQtQtQt.a.h.r.s.tQtQt.u.v.q.g.q.g.g.g.5.g.g.b.f.y.z.u.i.a.bQtQtQtQtQtQtQtQtQtQtQtQtQtQtQt",
".5.2.u.f.h.h.CQtQtQtQtQtQtQtQtQtQtQtQtQtQt.g.gQtQtQtQtQtQtQtQtQt.h.i.#.aQtQt.j.k.g.g.g.g.l.l.g##.o.l.p.q.g.gQtQtQtQtQtQtQtQtQtQtQtQtQtQtQtQtQtQt"};
